<svg xmlns="http://www.w3.org/2000/svg" xmlns:xlink="http://www.w3.org/1999/xlink" contentStyleType="text/css" data-diagram-type="CLASS" height="545px" preserveAspectRatio="none" style="width:443px;height:545px;background:#FFFFFF;" version="1.1" viewBox="0 0 443 545" width="443px" zoomAndPan="magnify"><title>REQ-001 Project Selection Foundation - Core Data Model</title><defs/><g><g class="title" data-source-line="1"><text fill="#000000" font-family="sans-serif" font-size="14" font-weight="bold" lengthAdjust="spacing" textLength="378.834" x="25.3086" y="24.5332">REQ-001 Project Selection Foundation - Core Data Model</text></g><!--class ProjectDefinition--><g class="entity" data-entity="ProjectDefinition" data-source-line="4" data-uid="ent0002" id="entity_ProjectDefinition"><rect fill="#F1F1F1" height="153.6563" rx="2.5" ry="2.5" style="stroke:#181818;stroke-width:0.5;" width="183.1855" x="91.5" y="188.6094"/><ellipse cx="128.6616" cy="204.6094" fill="#ADD1B2" rx="11" ry="11" style="stroke:#181818;stroke-width:1;"/><path d="M131.4272,200.4844 Q131.5835,200.2656 131.771,200.1563 Q131.9585,200.0469 132.1772,200.0469 Q132.5522,200.0469 132.7866,200.3125 Q133.021,200.5625 133.021,201.1719 L133.021,202.625 Q133.021,203.2344 132.7866,203.5 Q132.5522,203.7656 132.1772,203.7656 Q131.8335,203.7656 131.6304,203.5625 Q131.4272,203.375 131.3179,202.8594 Q131.271,202.5 131.0835,202.3125 Q130.7554,201.9375 130.146,201.7188 Q129.5366,201.5 128.9116,201.5 Q128.146,201.5 127.5054,201.8281 Q126.8804,202.1563 126.3804,202.9063 Q125.896,203.6563 125.896,204.6875 L125.896,205.7813 Q125.896,207.0156 126.7866,207.8438 Q127.6772,208.6563 129.271,208.6563 Q130.2085,208.6563 130.8647,208.4063 Q131.2554,208.25 131.6772,207.8125 Q131.9429,207.5469 132.0835,207.4688 Q132.2397,207.3906 132.4429,207.3906 Q132.771,207.3906 133.021,207.6563 Q133.2866,207.9063 133.2866,208.25 Q133.2866,208.5938 132.9429,209 Q132.4429,209.5781 131.646,209.9063 Q130.5679,210.3594 129.271,210.3594 Q127.7554,210.3594 126.5522,209.7344 Q125.5679,209.2344 124.8804,208.1719 Q124.1929,207.0938 124.1929,205.8125 L124.1929,204.6563 Q124.1929,203.3281 124.8022,202.1875 Q125.4272,201.0313 126.521,200.4219 Q127.6147,199.7969 128.8491,199.7969 Q129.5835,199.7969 130.2241,199.9688 Q130.8804,200.125 131.4272,200.4844 Z " fill="#000000"/><text fill="#000000" font-family="sans-serif" font-size="14" lengthAdjust="spacing" textLength="101.9375" x="147.5864" y="210.3379">ProjectDefinition</text><line style="stroke:#181818;stroke-width:0.5;" x1="92.5" x2="273.6855" y1="220.6094" y2="220.6094"/><ellipse cx="102.5" cy="234.9141" fill="none" rx="3" ry="3" style="stroke:#038048;stroke-width:1;"/><text fill="#000000" font-family="sans-serif" font-size="14" lengthAdjust="spacing" textLength="58.3516" x="111.5" y="239.1426">name: str</text><ellipse cx="102.5" cy="252.5234" fill="none" rx="3" ry="3" style="stroke:#038048;stroke-width:1;"/><text fill="#000000" font-family="sans-serif" font-size="14" lengthAdjust="spacing" textLength="109.7168" x="111.5" y="256.752">display_name: str</text><ellipse cx="102.5" cy="270.1328" fill="none" rx="3" ry="3" style="stroke:#038048;stroke-width:1;"/><text fill="#000000" font-family="sans-serif" font-size="14" lengthAdjust="spacing" textLength="108.9717" x="111.5" y="274.3613">config_path: Path</text><ellipse cx="102.5" cy="287.7422" fill="none" rx="3" ry="3" style="stroke:#038048;stroke-width:1;"/><text fill="#000000" font-family="sans-serif" font-size="14" lengthAdjust="spacing" textLength="112.0479" x="111.5" y="291.9707">system_axes: int?</text><ellipse cx="102.5" cy="305.3516" fill="none" rx="3" ry="3" style="stroke:#038048;stroke-width:1;"/><text fill="#000000" font-family="sans-serif" font-size="14" lengthAdjust="spacing" textLength="157.1855" x="111.5" y="309.5801">features: ProjectFeatures</text><ellipse cx="102.5" cy="322.9609" fill="none" rx="3" ry="3" style="stroke:#038048;stroke-width:1;"/><text fill="#000000" font-family="sans-serif" font-size="14" lengthAdjust="spacing" textLength="115.9375" x="111.5" y="327.1895">ui: ProjectUiConfig</text><line style="stroke:#181818;stroke-width:0.5;" x1="92.5" x2="273.6855" y1="334.2656" y2="334.2656"/></g><!--class ProjectFeatures--><g class="entity" data-entity="ProjectFeatures" data-source-line="13" data-uid="ent0003" id="entity_ProjectFeatures"><rect fill="#F1F1F1" height="136.0469" rx="2.5" ry="2.5" style="stroke:#181818;stroke-width:0.5;" width="168.4199" x="7" y="402.6094"/><ellipse cx="38.9198" cy="418.6094" fill="#ADD1B2" rx="11" ry="11" style="stroke:#181818;stroke-width:1;"/><path d="M41.6854,414.4844 Q41.8417,414.2656 42.0292,414.1563 Q42.2167,414.0469 42.4354,414.0469 Q42.8104,414.0469 43.0448,414.3125 Q43.2792,414.5625 43.2792,415.1719 L43.2792,416.625 Q43.2792,417.2344 43.0448,417.5 Q42.8104,417.7656 42.4354,417.7656 Q42.0917,417.7656 41.8886,417.5625 Q41.6854,417.375 41.5761,416.8594 Q41.5292,416.5 41.3417,416.3125 Q41.0136,415.9375 40.4042,415.7188 Q39.7948,415.5 39.1698,415.5 Q38.4042,415.5 37.7636,415.8281 Q37.1386,416.1563 36.6386,416.9063 Q36.1542,417.6563 36.1542,418.6875 L36.1542,419.7813 Q36.1542,421.0156 37.0448,421.8438 Q37.9354,422.6563 39.5292,422.6563 Q40.4667,422.6563 41.1229,422.4063 Q41.5136,422.25 41.9354,421.8125 Q42.2011,421.5469 42.3417,421.4688 Q42.4979,421.3906 42.7011,421.3906 Q43.0292,421.3906 43.2792,421.6563 Q43.5448,421.9063 43.5448,422.25 Q43.5448,422.5938 43.2011,423 Q42.7011,423.5781 41.9042,423.9063 Q40.8261,424.3594 39.5292,424.3594 Q38.0136,424.3594 36.8104,423.7344 Q35.8261,423.2344 35.1386,422.1719 Q34.4511,421.0938 34.4511,419.8125 L34.4511,418.6563 Q34.4511,417.3281 35.0604,416.1875 Q35.6854,415.0313 36.7792,414.4219 Q37.8729,413.7969 39.1073,413.7969 Q39.8417,413.7969 40.4823,413.9688 Q41.1386,414.125 41.6854,414.4844 Z " fill="#000000"/><text fill="#000000" font-family="sans-serif" font-size="14" lengthAdjust="spacing" textLength="98.8203" x="56.6798" y="424.3379">ProjectFeatures</text><line style="stroke:#181818;stroke-width:0.5;" x1="8" x2="174.4199" y1="434.6094" y2="434.6094"/><ellipse cx="18" cy="448.9141" fill="none" rx="3" ry="3" style="stroke:#038048;stroke-width:1;"/><text fill="#000000" font-family="sans-serif" font-size="14" lengthAdjust="spacing" textLength="125.2754" x="27" y="453.1426">firmware_tools: bool</text><ellipse cx="18" cy="466.5234" fill="none" rx="3" ry="3" style="stroke:#038048;stroke-width:1;"/><text fill="#000000" font-family="sans-serif" font-size="14" lengthAdjust="spacing" textLength="142.4199" x="27" y="470.752">mechanical_tools: bool</text><ellipse cx="18" cy="484.1328" fill="none" rx="3" ry="3" style="stroke:#038048;stroke-width:1;"/><text fill="#000000" font-family="sans-serif" font-size="14" lengthAdjust="spacing" textLength="138.5439" x="27" y="488.3613">application_tools: bool</text><ellipse cx="18" cy="501.7422" fill="none" rx="3" ry="3" style="stroke:#038048;stroke-width:1;"/><text fill="#000000" font-family="sans-serif" font-size="14" lengthAdjust="spacing" textLength="101.9375" x="27" y="505.9707">stress_test: bool</text><ellipse cx="18" cy="519.3516" fill="none" rx="3" ry="3" style="stroke:#038048;stroke-width:1;"/><text fill="#000000" font-family="sans-serif" font-size="14" lengthAdjust="spacing" textLength="129.9785" x="27" y="523.5801">integration_test: bool</text><line style="stroke:#181818;stroke-width:0.5;" x1="8" x2="174.4199" y1="530.6563" y2="530.6563"/></g><!--class ProjectUiConfig--><g class="entity" data-entity="ProjectUiConfig" data-source-line="21" data-uid="ent0004" id="entity_ProjectUiConfig"><rect fill="#F1F1F1" height="83.2188" rx="2.5" ry="2.5" style="stroke:#181818;stroke-width:0.5;" width="129.2617" x="210.5" y="429.1094"/><ellipse cx="225.5" cy="445.1094" fill="#ADD1B2" rx="11" ry="11" style="stroke:#181818;stroke-width:1;"/><path d="M228.2656,440.9844 Q228.4219,440.7656 228.6094,440.6563 Q228.7969,440.5469 229.0156,440.5469 Q229.3906,440.5469 229.625,440.8125 Q229.8594,441.0625 229.8594,441.6719 L229.8594,443.125 Q229.8594,443.7344 229.625,444 Q229.3906,444.2656 229.0156,444.2656 Q228.6719,444.2656 228.4688,444.0625 Q228.2656,443.875 228.1563,443.3594 Q228.1094,443 227.9219,442.8125 Q227.5938,442.4375 226.9844,442.2188 Q226.375,442 225.75,442 Q224.9844,442 224.3438,442.3281 Q223.7188,442.6563 223.2188,443.4063 Q222.7344,444.1563 222.7344,445.1875 L222.7344,446.2813 Q222.7344,447.5156 223.625,448.3438 Q224.5156,449.1563 226.1094,449.1563 Q227.0469,449.1563 227.7031,448.9063 Q228.0938,448.75 228.5156,448.3125 Q228.7813,448.0469 228.9219,447.9688 Q229.0781,447.8906 229.2813,447.8906 Q229.6094,447.8906 229.8594,448.1563 Q230.125,448.4063 230.125,448.75 Q230.125,449.0938 229.7813,449.5 Q229.2813,450.0781 228.4844,450.4063 Q227.4063,450.8594 226.1094,450.8594 Q224.5938,450.8594 223.3906,450.2344 Q222.4063,449.7344 221.7188,448.6719 Q221.0313,447.5938 221.0313,446.3125 L221.0313,445.1563 Q221.0313,443.8281 221.6406,442.6875 Q222.2656,441.5313 223.3594,440.9219 Q224.4531,440.2969 225.6875,440.2969 Q226.4219,440.2969 227.0625,440.4688 Q227.7188,440.625 228.2656,440.9844 Z " fill="#000000"/><text fill="#000000" font-family="sans-serif" font-size="14" lengthAdjust="spacing" textLength="97.2617" x="239.5" y="450.8379">ProjectUiConfig</text><line style="stroke:#181818;stroke-width:0.5;" x1="211.5" x2="338.7617" y1="461.1094" y2="461.1094"/><ellipse cx="221.5" cy="475.4141" fill="none" rx="3" ry="3" style="stroke:#038048;stroke-width:1;"/><text fill="#000000" font-family="sans-serif" font-size="14" lengthAdjust="spacing" textLength="98.0342" x="230.5" y="479.6426">workspace: str?</text><ellipse cx="221.5" cy="493.0234" fill="none" rx="3" ry="3" style="stroke:#038048;stroke-width:1;"/><text fill="#000000" font-family="sans-serif" font-size="14" lengthAdjust="spacing" textLength="65.3652" x="230.5" y="497.252">notes: str?</text><line style="stroke:#181818;stroke-width:0.5;" x1="211.5" x2="338.7617" y1="504.3281" y2="504.3281"/></g><!--class ValidationIssue--><g class="entity" data-entity="ValidationIssue" data-source-line="26" data-uid="ent0005" id="entity_ValidationIssue"><rect fill="#F1F1F1" height="118.4375" rx="2.5" ry="2.5" style="stroke:#181818;stroke-width:0.5;" width="126.9512" x="309.5" y="206.6094"/><ellipse cx="324.5" cy="222.6094" fill="#ADD1B2" rx="11" ry="11" style="stroke:#181818;stroke-width:1;"/><path d="M327.2656,218.4844 Q327.4219,218.2656 327.6094,218.1563 Q327.7969,218.0469 328.0156,218.0469 Q328.3906,218.0469 328.625,218.3125 Q328.8594,218.5625 328.8594,219.1719 L328.8594,220.625 Q328.8594,221.2344 328.625,221.5 Q328.3906,221.7656 328.0156,221.7656 Q327.6719,221.7656 327.4688,221.5625 Q327.2656,221.375 327.1563,220.8594 Q327.1094,220.5 326.9219,220.3125 Q326.5938,219.9375 325.9844,219.7188 Q325.375,219.5 324.75,219.5 Q323.9844,219.5 323.3438,219.8281 Q322.7188,220.1563 322.2188,220.9063 Q321.7344,221.6563 321.7344,222.6875 L321.7344,223.7813 Q321.7344,225.0156 322.625,225.8438 Q323.5156,226.6563 325.1094,226.6563 Q326.0469,226.6563 326.7031,226.4063 Q327.0938,226.25 327.5156,225.8125 Q327.7813,225.5469 327.9219,225.4688 Q328.0781,225.3906 328.2813,225.3906 Q328.6094,225.3906 328.8594,225.6563 Q329.125,225.9063 329.125,226.25 Q329.125,226.5938 328.7813,227 Q328.2813,227.5781 327.4844,227.9063 Q326.4063,228.3594 325.1094,228.3594 Q323.5938,228.3594 322.3906,227.7344 Q321.4063,227.2344 320.7188,226.1719 Q320.0313,225.0938 320.0313,223.8125 L320.0313,222.6563 Q320.0313,221.3281 320.6406,220.1875 Q321.2656,219.0313 322.3594,218.4219 Q323.4531,217.7969 324.6875,217.7969 Q325.4219,217.7969 326.0625,217.9688 Q326.7188,218.125 327.2656,218.4844 Z " fill="#000000"/><text fill="#000000" font-family="sans-serif" font-size="14" lengthAdjust="spacing" textLength="94.9512" x="338.5" y="228.3379">ValidationIssue</text><line style="stroke:#181818;stroke-width:0.5;" x1="310.5" x2="435.4512" y1="238.6094" y2="238.6094"/><ellipse cx="320.5" cy="252.9141" fill="none" rx="3" ry="3" style="stroke:#038048;stroke-width:1;"/><text fill="#000000" font-family="sans-serif" font-size="14" lengthAdjust="spacing" textLength="63.8271" x="329.5" y="257.1426">path: Path</text><ellipse cx="320.5" cy="270.5234" fill="none" rx="3" ry="3" style="stroke:#038048;stroke-width:1;"/><text fill="#000000" font-family="sans-serif" font-size="14" lengthAdjust="spacing" textLength="71.5654" x="329.5" y="274.752">severity: str</text><ellipse cx="320.5" cy="288.1328" fill="none" rx="3" ry="3" style="stroke:#038048;stroke-width:1;"/><text fill="#000000" font-family="sans-serif" font-size="14" lengthAdjust="spacing" textLength="80.1377" x="329.5" y="292.3613">message: str</text><ellipse cx="320.5" cy="305.7422" fill="none" rx="3" ry="3" style="stroke:#038048;stroke-width:1;"/><text fill="#000000" font-family="sans-serif" font-size="14" lengthAdjust="spacing" textLength="56.7998" x="329.5" y="309.9707">field: str?</text><line style="stroke:#181818;stroke-width:0.5;" x1="310.5" x2="435.4512" y1="317.0469" y2="317.0469"/></g><!--class ProjectLoadResult--><g class="entity" data-entity="ProjectLoadResult" data-source-line="33" data-uid="ent0006" id="entity_ProjectLoadResult"><rect fill="#F1F1F1" height="83.2188" rx="2.5" ry="2.5" style="stroke:#181818;stroke-width:0.5;" width="250.1162" x="153" y="45.6094"/><ellipse cx="216.6084" cy="61.6094" fill="#ADD1B2" rx="11" ry="11" style="stroke:#181818;stroke-width:1;"/><path d="M219.374,57.4844 Q219.5303,57.2656 219.7178,57.1563 Q219.9053,57.0469 220.124,57.0469 Q220.499,57.0469 220.7334,57.3125 Q220.9678,57.5625 220.9678,58.1719 L220.9678,59.625 Q220.9678,60.2344 220.7334,60.5 Q220.499,60.7656 220.124,60.7656 Q219.7803,60.7656 219.5771,60.5625 Q219.374,60.375 219.2646,59.8594 Q219.2178,59.5 219.0303,59.3125 Q218.7021,58.9375 218.0928,58.7188 Q217.4834,58.5 216.8584,58.5 Q216.0928,58.5 215.4521,58.8281 Q214.8271,59.1563 214.3271,59.9063 Q213.8428,60.6563 213.8428,61.6875 L213.8428,62.7813 Q213.8428,64.0156 214.7334,64.8438 Q215.624,65.6563 217.2178,65.6563 Q218.1553,65.6563 218.8115,65.4063 Q219.2021,65.25 219.624,64.8125 Q219.8896,64.5469 220.0303,64.4688 Q220.1865,64.3906 220.3896,64.3906 Q220.7178,64.3906 220.9678,64.6563 Q221.2334,64.9063 221.2334,65.25 Q221.2334,65.5938 220.8896,66 Q220.3896,66.5781 219.5928,66.9063 Q218.5146,67.3594 217.2178,67.3594 Q215.7021,67.3594 214.499,66.7344 Q213.5146,66.2344 212.8271,65.1719 Q212.1396,64.0938 212.1396,62.8125 L212.1396,61.6563 Q212.1396,60.3281 212.749,59.1875 Q213.374,58.0313 214.4678,57.4219 Q215.5615,56.7969 216.7959,56.7969 Q217.5303,56.7969 218.1709,56.9688 Q218.8271,57.125 219.374,57.4844 Z " fill="#000000"/><text fill="#000000" font-family="sans-serif" font-size="14" lengthAdjust="spacing" textLength="114.3994" x="237.1084" y="67.3379">ProjectLoadResult</text><line style="stroke:#181818;stroke-width:0.5;" x1="154" x2="402.1162" y1="77.6094" y2="77.6094"/><ellipse cx="164" cy="91.9141" fill="none" rx="3" ry="3" style="stroke:#038048;stroke-width:1;"/><text fill="#000000" font-family="sans-serif" font-size="14" lengthAdjust="spacing" textLength="220.2061" x="173" y="96.1426">valid_projects: list[ProjectDefinition]</text><ellipse cx="164" cy="109.5234" fill="none" rx="3" ry="3" style="stroke:#038048;stroke-width:1;"/><text fill="#000000" font-family="sans-serif" font-size="14" lengthAdjust="spacing" textLength="224.1162" x="173" y="113.752">invalid_projects: list[ValidationIssue]</text><line style="stroke:#181818;stroke-width:0.5;" x1="154" x2="402.1162" y1="120.8281" y2="120.8281"/></g><!--reverse link ProjectDefinition to ProjectFeatures--><g class="link" data-entity-1="ProjectDefinition" data-entity-2="ProjectFeatures" data-source-line="38" data-uid="lnk7" id="link_ProjectDefinition_ProjectFeatures"><path codeLine="38" d="M143.5261,353.7091 C134.6561,373.2791 130.13,383.2694 121.48,402.3594" fill="none" id="ProjectDefinition-backto-ProjectFeatures" style="stroke:#181818;stroke-width:1;"/><polygon fill="#181818" points="148.48,342.7794,142.3598,346.593,143.5261,353.7091,149.6463,349.8955,148.48,342.7794" style="stroke:#181818;stroke-width:1;"/></g><!--reverse link ProjectDefinition to ProjectUiConfig--><g class="link" data-entity-1="ProjectDefinition" data-entity-2="ProjectUiConfig" data-source-line="39" data-uid="lnk8" id="link_ProjectDefinition_ProjectUiConfig"><path codeLine="39" d="M222.4747,353.7088 C235.7347,382.9588 245.39,404.2794 256.57,428.9394" fill="none" id="ProjectDefinition-backto-ProjectUiConfig" style="stroke:#181818;stroke-width:1;"/><polygon fill="#181818" points="217.52,342.7794,216.3542,349.8956,222.4747,353.7088,223.6405,346.5925,217.52,342.7794" style="stroke:#181818;stroke-width:1;"/></g><!--reverse link ProjectLoadResult to ProjectDefinition--><g class="link" data-entity-1="ProjectLoadResult" data-entity-2="ProjectDefinition" data-source-line="40" data-uid="lnk9" id="link_ProjectLoadResult_ProjectDefinition"><path codeLine="40" d="M250.2815,139.6154 C240.7415,157.3354 234.95,168.0994 223.94,188.5394" fill="none" id="ProjectLoadResult-backto-ProjectDefinition" style="stroke:#181818;stroke-width:1;"/><polygon fill="none" points="255.97,129.0494,249.6037,132.4362,250.2815,139.6154,256.6478,136.2286,255.97,129.0494" style="stroke:#181818;stroke-width:1;"/></g><!--reverse link ProjectLoadResult to ValidationIssue--><g class="link" data-entity-1="ProjectLoadResult" data-entity-2="ValidationIssue" data-source-line="41" data-uid="lnk10" id="link_ProjectLoadResult_ValidationIssue"><path codeLine="41" d="M305.7192,139.615 C318.1092,162.625 328.09,181.1694 341.73,206.5094" fill="none" id="ProjectLoadResult-backto-ValidationIssue" style="stroke:#181818;stroke-width:1;"/><polygon fill="none" points="300.03,129.0494,299.3527,136.2286,305.7192,139.615,306.3965,132.4358,300.03,129.0494" style="stroke:#181818;stroke-width:1;"/></g><!--SRC=[VLB1JiCm3BttAt86LHhNNJXi8261D8RWWgRAj6vdbYPLx6vCY7ydQRfMTC2bQPwVdv_j28b6jRvvJ6UpAxLozXrpKK-e_K7Mg5lRcWAwtrGjh4Er107rO0lK2U_8DE2WLho5mXx8LAe4pPWakGRcazuIIpBKYNmcIbqQg76kM5ou5CIDXcFs0yojAQdA6f3jNAtyDu1yPC4wWm_akI8Zrm4i4QHr0UcBtVP02BOqmC-qw3IJhucv4pzQAydL1t2OYRNQYxxv8-0rvbimb8EUHg1fjCT3TzEGRmQPCq6M4VJ6iN8zVunCRPtyHbi7wtRSG1udr3Lkh8Ikk-kG_0AQuhhkc5kCoPCfuXuToN6OTUqzGZNElYJKnLIuTtLleLWZjrgYz3xKoveOz6uqiRoURNqJ-_wLF76y2INFdyr5cfxjzr_MiEvputPaZRb_y2RklW40]--></g></svg>