<svg xmlns="http://www.w3.org/2000/svg" xmlns:xlink="http://www.w3.org/1999/xlink" contentStyleType="text/css" data-diagram-type="SEQUENCE" height="586px" preserveAspectRatio="none" style="width:768px;height:586px;background:#FFFFFF;" version="1.1" viewBox="0 0 768 586" width="768px" zoomAndPan="magnify"><title>REQ-001 Project Selection Foundation - Startup and Handoff Sequence</title><defs/><g><text fill="#000000" font-family="sans-serif" font-size="14" font-weight="bold" lengthAdjust="spacing" textLength="472.9443" x="146.8748" y="29.5332">REQ-001 Project Selection Foundation - Startup and Handoff Sequence</text><g><title>User</title><rect fill="#000000" fill-opacity="0.00000" height="383.2188" width="8" x="18.7793" y="121.2188"/><line style="stroke:#181818;stroke-width:0.5;stroke-dasharray:5,5;" x1="22" x2="22" y1="121.2188" y2="504.4375"/></g><g><title>main.py</title><rect fill="#000000" fill-opacity="0.00000" height="383.2188" width="8" x="146.8555" y="121.2188"/><line style="stroke:#181818;stroke-width:0.5;stroke-dasharray:5,5;" x1="150.3452" x2="150.3452" y1="121.2188" y2="504.4375"/></g><g><title>ProgramSelectorWindow</title><rect fill="#000000" fill-opacity="0.00000" height="383.2188" width="8" x="272.7827" y="121.2188"/><line style="stroke:#181818;stroke-width:0.5;stroke-dasharray:5,5;" x1="276.3657" x2="276.3657" y1="121.2188" y2="504.4375"/></g><g><title>project_loader</title><rect fill="#000000" fill-opacity="0.00000" height="383.2188" width="8" x="441.3125" y="121.2188"/><line style="stroke:#181818;stroke-width:0.5;stroke-dasharray:5,5;" x1="444.9507" x2="444.9507" y1="121.2188" y2="504.4375"/></g><g><title>project_configs...yaml</title><rect fill="#000000" fill-opacity="0.00000" height="383.2188" width="8" x="583.0806" y="121.2188"/><line style="stroke:#181818;stroke-width:0.5;stroke-dasharray:5,5;" x1="586.605" x2="586.605" y1="121.2188" y2="504.4375"/></g><g><title>MainWindow</title><rect fill="#000000" fill-opacity="0.00000" height="383.2188" width="8" x="711.625" y="121.2188"/><line style="stroke:#181818;stroke-width:0.5;stroke-dasharray:5,5;" x1="715.5562" x2="715.5562" y1="121.2188" y2="504.4375"/></g><g class="participant participant-head" data-participant="User"><text fill="#000000" font-family="sans-serif" font-size="14" lengthAdjust="spacing" textLength="29.5586" x="5" y="118.1426">User</text><ellipse cx="22.7793" cy="52.1094" fill="#E2E2F0" rx="8" ry="8" style="stroke:#181818;stroke-width:0.5;"/><path d="M22.7793,60.1094 L22.7793,87.1094 M9.7793,68.1094 L35.7793,68.1094 M22.7793,87.1094 L9.7793,102.1094 M22.7793,87.1094 L35.7793,102.1094" fill="none" style="stroke:#181818;stroke-width:0.5;"/></g><g class="participant participant-tail" data-participant="User"><text fill="#000000" font-family="sans-serif" font-size="14" lengthAdjust="spacing" textLength="29.5586" x="5" y="517.9707">User</text><ellipse cx="22.7793" cy="529.5469" fill="#E2E2F0" rx="8" ry="8" style="stroke:#181818;stroke-width:0.5;"/><path d="M22.7793,537.5469 L22.7793,564.5469 M9.7793,545.5469 L35.7793,545.5469 M22.7793,564.5469 L9.7793,579.5469 M22.7793,564.5469 L35.7793,579.5469" fill="none" style="stroke:#181818;stroke-width:0.5;"/></g><g class="participant participant-head" data-participant="MainEntry"><rect fill="#E2E2F0" height="31.6094" rx="2.5" ry="2.5" style="stroke:#181818;stroke-width:0.5;" width="63.0205" x="119.3452" y="88.6094"/><text fill="#000000" font-family="sans-serif" font-size="14" lengthAdjust="spacing" textLength="49.0205" x="126.3452" y="110.1426">main.py</text></g><g class="participant participant-tail" data-participant="MainEntry"><rect fill="#E2E2F0" height="31.6094" rx="2.5" ry="2.5" style="stroke:#181818;stroke-width:0.5;" width="63.0205" x="119.3452" y="503.4375"/><text fill="#000000" font-family="sans-serif" font-size="14" lengthAdjust="spacing" textLength="49.0205" x="126.3452" y="524.9707">main.py</text></g><g class="participant participant-head" data-participant="Selector"><rect fill="#E2E2F0" height="31.6094" rx="2.5" ry="2.5" style="stroke:#181818;stroke-width:0.5;" width="168.834" x="192.3657" y="88.6094"/><text fill="#000000" font-family="sans-serif" font-size="14" lengthAdjust="spacing" textLength="154.834" x="199.3657" y="110.1426">ProgramSelectorWindow</text></g><g class="participant participant-tail" data-participant="Selector"><rect fill="#E2E2F0" height="31.6094" rx="2.5" ry="2.5" style="stroke:#181818;stroke-width:0.5;" width="168.834" x="192.3657" y="503.4375"/><text fill="#000000" font-family="sans-serif" font-size="14" lengthAdjust="spacing" textLength="154.834" x="199.3657" y="524.9707">ProgramSelectorWindow</text></g><g class="participant participant-head" data-participant="Loader"><rect fill="#E2E2F0" height="31.6094" rx="2.5" ry="2.5" style="stroke:#181818;stroke-width:0.5;" width="102.7236" x="393.9507" y="88.6094"/><text fill="#000000" font-family="sans-serif" font-size="14" lengthAdjust="spacing" textLength="88.7236" x="400.9507" y="110.1426">project_loader</text></g><g class="participant participant-tail" data-participant="Loader"><rect fill="#E2E2F0" height="31.6094" rx="2.5" ry="2.5" style="stroke:#181818;stroke-width:0.5;" width="102.7236" x="393.9507" y="503.4375"/><text fill="#000000" font-family="sans-serif" font-size="14" lengthAdjust="spacing" textLength="88.7236" x="400.9507" y="524.9707">project_loader</text></g><g class="participant participant-head" data-participant="Configs"><text fill="#000000" font-family="sans-serif" font-size="14" lengthAdjust="spacing" textLength="136.9512" x="515.605" y="118.1426">project_configs/*.yaml</text><path d="M569.0806,67.6094 C569.0806,57.6094 587.0806,57.6094 587.0806,57.6094 C587.0806,57.6094 605.0806,57.6094 605.0806,67.6094 L605.0806,93.6094 C605.0806,103.6094 587.0806,103.6094 587.0806,103.6094 C587.0806,103.6094 569.0806,103.6094 569.0806,93.6094 L569.0806,67.6094" fill="#E2E2F0" style="stroke:#181818;stroke-width:0.5;"/><path d="M569.0806,67.6094 C569.0806,77.6094 587.0806,77.6094 587.0806,77.6094 C587.0806,77.6094 605.0806,77.6094 605.0806,67.6094" fill="none" style="stroke:#181818;stroke-width:0.5;"/></g><g class="participant participant-tail" data-participant="Configs"><text fill="#000000" font-family="sans-serif" font-size="14" lengthAdjust="spacing" textLength="136.9512" x="515.605" y="517.9707">project_configs/*.yaml</text><path d="M569.0806,531.0469 C569.0806,521.0469 587.0806,521.0469 587.0806,521.0469 C587.0806,521.0469 605.0806,521.0469 605.0806,531.0469 L605.0806,557.0469 C605.0806,567.0469 587.0806,567.0469 587.0806,567.0469 C587.0806,567.0469 569.0806,567.0469 569.0806,557.0469 L569.0806,531.0469" fill="#E2E2F0" style="stroke:#181818;stroke-width:0.5;"/><path d="M569.0806,531.0469 C569.0806,541.0469 587.0806,541.0469 587.0806,541.0469 C587.0806,541.0469 605.0806,541.0469 605.0806,531.0469" fill="none" style="stroke:#181818;stroke-width:0.5;"/></g><g class="participant participant-head" data-participant="RuntimeWindow"><rect fill="#E2E2F0" height="31.6094" rx="2.5" ry="2.5" style="stroke:#181818;stroke-width:0.5;" width="94.1377" x="668.5562" y="88.6094"/><text fill="#000000" font-family="sans-serif" font-size="14" lengthAdjust="spacing" textLength="80.1377" x="675.5562" y="110.1426">MainWindow</text></g><g class="participant participant-tail" data-participant="RuntimeWindow"><rect fill="#E2E2F0" height="31.6094" rx="2.5" ry="2.5" style="stroke:#181818;stroke-width:0.5;" width="94.1377" x="668.5562" y="503.4375"/><text fill="#000000" font-family="sans-serif" font-size="14" lengthAdjust="spacing" textLength="80.1377" x="675.5562" y="524.9707">MainWindow</text></g><g class="message" data-participant-1="User" data-participant-2="MainEntry"><polygon fill="#181818" points="138.8555,149.5703,148.8555,153.5703,138.8555,157.5703,142.8555,153.5703" style="stroke:#181818;stroke-width:1;"/><line style="stroke:#181818;stroke-width:1;" x1="22.7793" x2="144.8555" y1="153.5703" y2="153.5703"/><text fill="#000000" font-family="sans-serif" font-size="13" lengthAdjust="spacing" textLength="104.0762" x="29.7793" y="148.7139">launch application</text></g><g class="message" data-participant-1="MainEntry" data-participant-2="Selector"><polygon fill="#181818" points="264.7827,179.9219,274.7827,183.9219,264.7827,187.9219,268.7827,183.9219" style="stroke:#181818;stroke-width:1;"/><line style="stroke:#181818;stroke-width:1;" x1="150.8555" x2="270.7827" y1="183.9219" y2="183.9219"/><text fill="#000000" font-family="sans-serif" font-size="13" lengthAdjust="spacing" textLength="85.2617" x="157.8555" y="179.0654">create selector</text></g><g class="message" data-participant-1="Selector" data-participant-2="Loader"><polygon fill="#181818" points="433.3125,210.2734,443.3125,214.2734,433.3125,218.2734,437.3125,214.2734" style="stroke:#181818;stroke-width:1;"/><line style="stroke:#181818;stroke-width:1;" x1="276.7827" x2="439.3125" y1="214.2734" y2="214.2734"/><text fill="#000000" font-family="sans-serif" font-size="13" lengthAdjust="spacing" textLength="144.5298" x="283.7827" y="209.417">load_available_projects()</text></g><g class="message" data-participant-1="Loader" data-participant-2="Configs"><polygon fill="#181818" points="575.0806,240.625,585.0806,244.625,575.0806,248.625,579.0806,244.625" style="stroke:#181818;stroke-width:1;"/><line style="stroke:#181818;stroke-width:1;" x1="445.3125" x2="581.0806" y1="244.625" y2="244.625"/><text fill="#000000" font-family="sans-serif" font-size="13" lengthAdjust="spacing" textLength="117.7681" x="452.3125" y="239.7686">discover project files</text></g><g class="message" data-participant-1="Loader" data-participant-2="Configs"><polygon fill="#181818" points="575.0806,270.9766,585.0806,274.9766,575.0806,278.9766,579.0806,274.9766" style="stroke:#181818;stroke-width:1;"/><line style="stroke:#181818;stroke-width:1;" x1="445.3125" x2="581.0806" y1="274.9766" y2="274.9766"/><text fill="#000000" font-family="sans-serif" font-size="13" lengthAdjust="spacing" textLength="71.5317" x="452.3125" y="270.1201">parse YAML</text></g><g class="message" data-participant-1="Loader" data-participant-2="Selector"><polygon fill="#181818" points="287.7827,301.3281,277.7827,305.3281,287.7827,309.3281,283.7827,305.3281" style="stroke:#181818;stroke-width:1;"/><line style="stroke:#181818;stroke-width:1;stroke-dasharray:2,2;" x1="281.7827" x2="444.3125" y1="305.3281" y2="305.3281"/><text fill="#000000" font-family="sans-serif" font-size="13" lengthAdjust="spacing" textLength="106.228" x="293.7827" y="300.4717">ProjectLoadResult</text></g><g class="message" data-participant-1="Selector" data-participant-2="User"><polygon fill="#181818" points="33.7793,331.6797,23.7793,335.6797,33.7793,339.6797,29.7793,335.6797" style="stroke:#181818;stroke-width:1;"/><line style="stroke:#181818;stroke-width:1;" x1="27.7793" x2="275.7827" y1="335.6797" y2="335.6797"/><text fill="#000000" font-family="sans-serif" font-size="13" lengthAdjust="spacing" textLength="184.2661" x="39.7793" y="330.8232">show valid projects in dropdown</text></g><g class="message" data-participant-1="User" data-participant-2="Selector"><polygon fill="#181818" points="264.7827,362.0313,274.7827,366.0313,264.7827,370.0313,268.7827,366.0313" style="stroke:#181818;stroke-width:1;"/><line style="stroke:#181818;stroke-width:1;" x1="22.7793" x2="270.7827" y1="366.0313" y2="366.0313"/><text fill="#000000" font-family="sans-serif" font-size="13" lengthAdjust="spacing" textLength="152.0962" x="29.7793" y="361.1748">select project + click Open</text></g><g class="message" data-participant-1="Selector" data-participant-2="RuntimeWindow"><polygon fill="#181818" points="703.625,408.7344,713.625,412.7344,703.625,416.7344,707.625,412.7344" style="stroke:#181818;stroke-width:1;"/><line style="stroke:#181818;stroke-width:1;" x1="276.7827" x2="709.625" y1="412.7344" y2="412.7344"/><text fill="#000000" font-family="sans-serif" font-size="13" lengthAdjust="spacing" textLength="192.9624" x="283.7827" y="391.5264">attach selected_project_definition</text><text fill="#000000" font-family="sans-serif" font-size="13" lengthAdjust="spacing" textLength="175.6143" x="283.7827" y="407.8779">attach selected_project_config</text></g><g class="message" data-participant-1="Selector" data-participant-2="Selector"><line style="stroke:#181818;stroke-width:1;" x1="276.7827" x2="318.7827" y1="443.0859" y2="443.0859"/><line style="stroke:#181818;stroke-width:1;" x1="318.7827" x2="318.7827" y1="443.0859" y2="456.0859"/><line style="stroke:#181818;stroke-width:1;" x1="277.7827" x2="318.7827" y1="456.0859" y2="456.0859"/><polygon fill="#181818" points="287.7827,452.0859,277.7827,456.0859,287.7827,460.0859,283.7827,456.0859" style="stroke:#181818;stroke-width:1;"/><text fill="#000000" font-family="sans-serif" font-size="13" lengthAdjust="spacing" textLength="33.2363" x="283.7827" y="438.2295">hide()</text></g><g class="message" data-participant-1="RuntimeWindow" data-participant-2="User"><polygon fill="#181818" points="33.7793,482.4375,23.7793,486.4375,33.7793,490.4375,29.7793,486.4375" style="stroke:#181818;stroke-width:1;"/><line style="stroke:#181818;stroke-width:1;" x1="27.7793" x2="714.625" y1="486.4375" y2="486.4375"/><text fill="#000000" font-family="sans-serif" font-size="13" lengthAdjust="spacing" textLength="171.9644" x="39.7793" y="481.5811">show existing runtime window</text></g><!--SRC=[TP91RnCn48Nl_XMZdWeefLnxG49LKG-jW5G88I55Ktis6UgCZUrDoBzdThsRn0WkkzRuyynxpovSFC7oxilY-leTV4xX9za2J-Jrnq7WO-Z5uRXSm5F1LFe8A0xkzHEwJj5VFOabarzO8YRSGjwW2tkMDNJeCnc3jeG4NpCbeqHXon6bmCKMMQxYuG8mmwEkxwIaGukeehNsh892-iOwTJyUc4ij7wk3bG_eA8tWmxWqwWAVCTE9iK4wNkUthwyEkFKZUrjBRSz1sjdWPI-5jrGhnWosOF7-P01km6ClTWCOesSxfcTEsyhEsXMrYR0GvDdDSKkngdpefuiLxf0zFdjQJGRovIip8GfFqfLsd6tOQNNYe6DF-P-e-jH4ldzuV3Xkj_Ac5p5iBYdtlZG2H-ytUk5X3plqxEQH6LZ0fH0r8Zb6TDQt-ZqgV0DMatg1Jv6acT24hUUm5DHawt5oSnGhHnqB3qd_aFynzRwRzcUADkn80sq7_kMHVdCkmyDEbOBzYFq1]--></g></svg>