<svg xmlns="http://www.w3.org/2000/svg" xmlns:xlink="http://www.w3.org/1999/xlink" contentStyleType="text/css" data-diagram-type="DESCRIPTION" height="637px" preserveAspectRatio="none" style="width:708px;height:637px;background:#FFFFFF;" version="1.1" viewBox="0 0 708 637" width="708px" zoomAndPan="magnify"><title>REQ-001 Project Selection Foundation - Architecture</title><defs/><g><g class="title" data-source-line="1"><text fill="#000000" font-family="sans-serif" font-size="14" font-weight="bold" lengthAdjust="spacing" textLength="350.8408" x="171.5796" y="24.5332">REQ-001 Project Selection Foundation - Architecture</text></g><!--cluster Desktop Application--><g class="cluster" data-entity="Desktop Application" data-source-line="7" data-uid="ent0003" id="cluster_Desktop Application"><rect fill="none" height="586" rx="2.5" ry="2.5" style="stroke:#181818;stroke-width:1;" width="391" x="7" y="45.6094"/><text fill="#000000" font-family="sans-serif" font-size="14" font-weight="bold" lengthAdjust="spacing" textLength="135.3447" x="134.8276" y="62.1426">Desktop Application</text></g><!--cluster project_configs/--><g class="cluster" data-entity="project_configs." data-source-line="15" data-uid="ent0009" id="cluster_project_configs."><path d="M424.5,536.6094 L533.6309,536.6094 A3.75,3.75 0 0 1 536.1309,539.1094 L543.1309,560.2188 L698.5,560.2188 A2.5,2.5 0 0 1 701,562.7188 L701,624.1094 A2.5,2.5 0 0 1 698.5,626.6094 L424.5,626.6094 A2.5,2.5 0 0 1 422,624.1094 L422,539.1094 A2.5,2.5 0 0 1 424.5,536.6094" fill="none" style="stroke:#000000;stroke-width:1.5;"/><line style="stroke:#000000;stroke-width:1.5;" x1="422" x2="543.1309" y1="560.2188" y2="560.2188"/><text fill="#000000" font-family="sans-serif" font-size="14" font-weight="bold" lengthAdjust="spacing" textLength="108.1309" x="426" y="553.1426">project_configs/</text></g><!--entity MainEntry--><g class="entity" data-entity="MainEntry" data-source-line="8" data-uid="ent0004" id="entity_MainEntry"><rect fill="#F1F1F1" height="47.6094" rx="2.5" ry="2.5" style="stroke:#181818;stroke-width:0.5;" width="89.0205" x="199.5" y="81.6094"/><rect fill="#F1F1F1" height="10" style="stroke:#181818;stroke-width:0.5;" width="15" x="268.5205" y="86.6094"/><rect fill="#F1F1F1" height="2" style="stroke:#181818;stroke-width:0.5;" width="4" x="266.5205" y="88.6094"/><rect fill="#F1F1F1" height="2" style="stroke:#181818;stroke-width:0.5;" width="4" x="266.5205" y="92.6094"/><text fill="#000000" font-family="sans-serif" font-size="14" lengthAdjust="spacing" textLength="49.0205" x="214.5" y="116.1426">main.py</text></g><!--entity Selector--><g class="entity" data-entity="Selector" data-source-line="9" data-uid="ent0005" id="entity_Selector"><rect fill="#F1F1F1" height="47.6094" rx="2.5" ry="2.5" style="stroke:#181818;stroke-width:0.5;" width="194.834" x="146.5" y="222.6094"/><rect fill="#F1F1F1" height="10" style="stroke:#181818;stroke-width:0.5;" width="15" x="321.334" y="227.6094"/><rect fill="#F1F1F1" height="2" style="stroke:#181818;stroke-width:0.5;" width="4" x="319.334" y="229.6094"/><rect fill="#F1F1F1" height="2" style="stroke:#181818;stroke-width:0.5;" width="4" x="319.334" y="233.6094"/><text fill="#000000" font-family="sans-serif" font-size="14" lengthAdjust="spacing" textLength="154.834" x="161.5" y="257.1426">ProgramSelectorWindow</text></g><!--entity Loader--><g class="entity" data-entity="Loader" data-source-line="10" data-uid="ent0006" id="entity_Loader"><rect fill="#F1F1F1" height="47.6094" rx="2.5" ry="2.5" style="stroke:#181818;stroke-width:0.5;" width="128.7236" x="95.5" y="386.6094"/><rect fill="#F1F1F1" height="10" style="stroke:#181818;stroke-width:0.5;" width="15" x="204.2236" y="391.6094"/><rect fill="#F1F1F1" height="2" style="stroke:#181818;stroke-width:0.5;" width="4" x="202.2236" y="393.6094"/><rect fill="#F1F1F1" height="2" style="stroke:#181818;stroke-width:0.5;" width="4" x="202.2236" y="397.6094"/><text fill="#000000" font-family="sans-serif" font-size="14" lengthAdjust="spacing" textLength="88.7236" x="110.5" y="421.1426">project_loader</text></g><!--entity Models--><g class="entity" data-entity="Models" data-source-line="11" data-uid="ent0007" id="entity_Models"><rect fill="#F1F1F1" height="47.6094" rx="2.5" ry="2.5" style="stroke:#181818;stroke-width:0.5;" width="268.0059" x="26" y="567.6094"/><rect fill="#F1F1F1" height="10" style="stroke:#181818;stroke-width:0.5;" width="15" x="274.0059" y="572.6094"/><rect fill="#F1F1F1" height="2" style="stroke:#181818;stroke-width:0.5;" width="4" x="272.0059" y="574.6094"/><rect fill="#F1F1F1" height="2" style="stroke:#181818;stroke-width:0.5;" width="4" x="272.0059" y="578.6094"/><text fill="#000000" font-family="sans-serif" font-size="14" lengthAdjust="spacing" textLength="228.0059" x="41" y="602.1426">ProjectDefinition / ProjectLoadResult</text></g><!--entity RuntimeWindow--><g class="entity" data-entity="RuntimeWindow" data-source-line="12" data-uid="ent0008" id="entity_RuntimeWindow"><rect fill="#F1F1F1" height="47.6094" rx="2.5" ry="2.5" style="stroke:#181818;stroke-width:0.5;" width="120.1377" x="260" y="386.6094"/><rect fill="#F1F1F1" height="10" style="stroke:#181818;stroke-width:0.5;" width="15" x="360.1377" y="391.6094"/><rect fill="#F1F1F1" height="2" style="stroke:#181818;stroke-width:0.5;" width="4" x="358.1377" y="393.6094"/><rect fill="#F1F1F1" height="2" style="stroke:#181818;stroke-width:0.5;" width="4" x="358.1377" y="397.6094"/><text fill="#000000" font-family="sans-serif" font-size="14" lengthAdjust="spacing" textLength="80.1377" x="275" y="421.1426">MainWindow</text></g><!--entity AccessYaml--><g class="entity" data-entity="AccessYaml" data-source-line="16" data-uid="ent0010" id="entity_AccessYaml"><path d="M438.5,575.1094 L438.5,607.7188 A2.5,2.5 0 0 0 441,610.2188 L554.8066,610.2188 A2.5,2.5 0 0 0 557.3066,607.7188 L557.3066,582.6094 L547.3066,572.6094 L441,572.6094 A2.5,2.5 0 0 0 438.5,575.1094" fill="#F1F1F1" style="stroke:#181818;stroke-width:0.5;"/><path d="M547.3066,572.6094 L547.3066,580.1094 A2.5,2.5 0 0 0 549.8066,582.6094 L557.3066,582.6094" fill="#F1F1F1" style="stroke:#181818;stroke-width:0.5;"/><text fill="#000000" font-family="sans-serif" font-size="14" lengthAdjust="spacing" textLength="98.8066" x="448.5" y="597.1426">ACCuESS.yaml</text></g><!--entity Ml20Yaml--><g class="entity" data-entity="Ml20Yaml" data-source-line="17" data-uid="ent0011" id="entity_Ml20Yaml"><path d="M593,575.1094 L593,607.7188 A2.5,2.5 0 0 0 595.5,610.2188 L682.8584,610.2188 A2.5,2.5 0 0 0 685.3584,607.7188 L685.3584,582.6094 L675.3584,572.6094 L595.5,572.6094 A2.5,2.5 0 0 0 593,575.1094" fill="#F1F1F1" style="stroke:#181818;stroke-width:0.5;"/><path d="M675.3584,572.6094 L675.3584,580.1094 A2.5,2.5 0 0 0 677.8584,582.6094 L685.3584,582.6094" fill="#F1F1F1" style="stroke:#181818;stroke-width:0.5;"/><text fill="#000000" font-family="sans-serif" font-size="14" lengthAdjust="spacing" textLength="72.3584" x="603" y="597.1426">ML2.0.yaml</text></g><!--entity User--><g class="entity" data-entity="User" data-source-line="5" data-uid="ent0002" id="entity_User"><ellipse cx="428.7793" cy="75.1094" fill="#F1F1F1" rx="8" ry="8" style="stroke:#181818;stroke-width:0.5;"/><path d="M428.7793,83.1094 L428.7793,110.1094 M415.7793,91.1094 L441.7793,91.1094 M428.7793,110.1094 L415.7793,125.1094 M428.7793,110.1094 L441.7793,125.1094" fill="none" style="stroke:#181818;stroke-width:0.5;"/><text fill="#000000" font-family="sans-serif" font-size="14" lengthAdjust="spacing" textLength="29.5586" x="414" y="141.1426">User</text></g><g class="entity" data-entity="GMN19" data-source-line="29" data-uid="ent0020" id="entity_GMN19"><path d="M415.5,348.6094 L415.5,473.0703 L656.8843,473.0703 L656.8843,358.6094 L646.8843,348.6094 L415.5,348.6094" fill="#FEFFDD" style="stroke:#181818;stroke-width:0.5;"/><path d="M646.8843,348.6094 L646.8843,358.6094 L656.8843,358.6094 L646.8843,348.6094" fill="#FEFFDD" style="stroke:#181818;stroke-width:1;"/><text fill="#000000" font-family="sans-serif" font-size="13" lengthAdjust="spacing" textLength="220.3843" x="421.5" y="367.1045">Phase 1 consumes minimal metadata:</text><text fill="#000000" font-family="sans-serif" font-size="13" lengthAdjust="spacing" textLength="46.96" x="421.5" y="383.4561">- project</text><text fill="#000000" font-family="sans-serif" font-size="13" lengthAdjust="spacing" textLength="80.1836" x="421.5" y="399.8076">- system.axes</text><text fill="#000000" font-family="sans-serif" font-size="13" lengthAdjust="spacing" textLength="54.9136" x="421.5" y="416.1592">- features</text><text fill="#000000" font-family="sans-serif" font-size="13" lengthAdjust="spacing" textLength="18.0591" x="421.5" y="432.5107">- ui</text><text fill="#000000" font-family="sans-serif" font-size="13" lengthAdjust="spacing" textLength="3.6118" x="421.5" y="448.8623">&#160;</text><text fill="#000000" font-family="sans-serif" font-size="13" lengthAdjust="spacing" textLength="216.7661" x="421.5" y="465.2139">Extra sections remain extension-safe.</text></g><!--link User to Selector--><g class="link" data-entity-1="User" data-entity-2="Selector" data-source-line="20" data-uid="lnk12" id="link_User_Selector"><path d="M413.75,127.0994 C408.97,132.9994 403.51,139.2794 398,144.6094 C365.14,176.3994 326.1701,201.2489 293.5501,219.5889" fill="none" id="User-to-Selector" style="stroke:#181818;stroke-width:1;"/><polygon fill="#181818" points="288.32,222.5294,298.1254,221.6053,292.6784,220.079,294.2047,214.6319,288.32,222.5294" style="stroke:#181818;stroke-width:1;"/><text fill="#000000" font-family="sans-serif" font-size="13" lengthAdjust="spacing" textLength="84.5508" x="360" y="189.1045">choose project</text></g><!--link MainEntry to Selector--><g class="link" data-entity-1="MainEntry" data-entity-2="Selector" data-source-line="21" data-uid="lnk13" id="link_MainEntry_Selector"><path d="M244,129.8794 C244,155.5294 244,190.5794 244,216.2694" fill="none" id="MainEntry-to-Selector" style="stroke:#181818;stroke-width:1;"/><polygon fill="#181818" points="244,222.2694,248,213.2694,244,217.2694,240,213.2694,244,222.2694" style="stroke:#181818;stroke-width:1;"/><text fill="#000000" font-family="sans-serif" font-size="13" lengthAdjust="spacing" textLength="81.2944" x="245" y="189.1045">create + show</text></g><!--link Selector to Loader--><g class="link" data-entity-1="Selector" data-entity-2="Loader" data-source-line="22" data-uid="lnk14" id="link_Selector_Loader"><path d="M150.43,270.7294 C136.83,278.0994 124.55,287.8094 116,300.6094 C97.86,327.7594 115.7799,358.9062 134.6199,381.9262" fill="none" id="Selector-to-Loader" style="stroke:#181818;stroke-width:1;"/><polygon fill="#181818" points="138.42,386.5694,135.8153,377.0712,135.2533,382.7,129.6244,382.138,138.42,386.5694" style="stroke:#181818;stroke-width:1;"/><text fill="#000000" font-family="sans-serif" font-size="13" lengthAdjust="spacing" textLength="144.5298" x="117" y="315.1045">load_available_projects()</text></g><!--link Loader to AccessYaml--><g class="link" data-entity-1="Loader" data-entity-2="AccessYaml" data-source-line="23" data-uid="lnk15" id="link_Loader_AccessYaml"><path d="M187.09,434.6194 C202.7,447.0594 223.12,461.9994 243,472.6094 C307.62,507.0994 332.07,496.6894 398,528.6094 C424.29,541.3394 447.4341,555.8367 467.1441,569.1167" fill="none" id="Loader-to-AccessYaml" style="stroke:#181818;stroke-width:1;"/><polygon fill="#181818" points="472.12,572.4694,466.8912,564.1231,467.9734,569.6755,462.421,570.7577,472.12,572.4694" style="stroke:#181818;stroke-width:1;"/><text fill="#000000" font-family="sans-serif" font-size="13" lengthAdjust="spacing" textLength="65.0317" x="380" y="517.1045">read YAML</text></g><!--link Loader to Ml20Yaml--><g class="link" data-entity-1="Loader" data-entity-2="Ml20Yaml" data-source-line="24" data-uid="lnk16" id="link_Loader_Ml20Yaml"><path d="M184.53,434.7094 C200.08,447.9894 221.31,463.7594 243,472.6094 C381.54,529.1594 443.01,458.1094 575,528.6094 C595.2,539.3994 609.5892,553.8198 621.3792,567.9698" fill="none" id="Loader-to-Ml20Yaml" style="stroke:#181818;stroke-width:1;"/><polygon fill="#181818" points="625.22,572.5794,622.5319,563.1045,622.0193,568.738,616.3858,568.2255,625.22,572.5794" style="stroke:#181818;stroke-width:1;"/><text fill="#000000" font-family="sans-serif" font-size="13" lengthAdjust="spacing" textLength="65.0317" x="552" y="517.1045">read YAML</text></g><!--link Loader to Models--><g class="link" data-entity-1="Loader" data-entity-2="Models" data-source-line="25" data-uid="lnk17" id="link_Loader_Models"><path d="M160,434.6394 C160,468.9194 160,526.9894 160,561.3794" fill="none" id="Loader-to-Models" style="stroke:#181818;stroke-width:1;"/><polygon fill="#181818" points="160,567.3794,164,558.3794,160,562.3794,156,558.3794,160,567.3794" style="stroke:#181818;stroke-width:1;"/><text fill="#000000" font-family="sans-serif" font-size="13" lengthAdjust="spacing" textLength="120.6943" x="161" y="517.1045">build typed metadata</text></g><!--link Selector to RuntimeWindow--><g class="link" data-entity-1="Selector" data-entity-2="RuntimeWindow" data-source-line="26" data-uid="lnk18" id="link_Selector_RuntimeWindow"><path d="M254.89,270.8194 C269.34,301.6194 292.141,350.2377 306.581,381.0077" fill="none" id="Selector-to-RuntimeWindow" style="stroke:#181818;stroke-width:1;"/><polygon fill="#181818" points="309.13,386.4394,308.9276,376.5926,307.0058,381.913,301.6854,379.9913,309.13,386.4394" style="stroke:#181818;stroke-width:1;"/><text fill="#000000" font-family="sans-serif" font-size="13" lengthAdjust="spacing" textLength="136.5762" x="276" y="315.1045">selected project context</text></g><!--link Loader to GMN19--><g class="link" data-entity-1="Loader" data-entity-2="GMN19" data-source-line="29" data-uid="lnk21" id="link_Loader_GMN19"><path d="M175.41,386.4294 C192.7,361.7994 223.27,325.0894 260.5,309.6094 C309.75,289.1394 329.36,294.4594 380.5,309.6094 C408.12,317.7894 435.44,332.5994 459.29,348.3994" fill="none" id="Loader-GMN19" style="stroke:#181818;stroke-width:1;stroke-dasharray:7,7;"/></g><!--SRC=[TLDDQzmm4BthLmm-jHGxcnnpA9XaUzg5T9TIGYdBn1xRwigIqSZjcjB_tf6_ig7qv97UqxmtJtBGmH0Sjf_JpUOMdhpxGKM08ndvQ6VXa-jjYMEPGkwBHWT1Ua-ApzfswB45Rh1qlxIjeKB3rqY7nHbhEeP1HBmSH5iRKWgBu3nyOV9ApHn87edFmNMGTvtHnQYPm6y5yAr5RRDk-0x8i9TwQuCV8Y1-Qz6Px3h_LLinCjAMhSZgfgbEnc59VeHtOpctYE0ZLThgSSwR9OP8EX3t9apAhYJ3yKpqSALrw6tGBKqxwezIbJFI7P95k72sqZNVJEDKMi98yeU7VdiyPWEs9ebTyg8WvcTPhfpzxYxRl3BsvcupuY8HiuCq_RWE2lTGDCunmQogrgJ-uNd2GF11Baxyha1aJRa89sPrmf-e3RuOEiqz-TrxDLCY-zMod92c9Jpd-zqrOx7yNtpCLD2NNfiImj1H2Iq5b3U7RwszILbEy0WAVVO6adAWIr3AEfdEwxe9uAhbgfyQb6nk8ulxbXXQkUyMpQfshz8rkXHuu41jXXTYMLKIcBpvMFPQgUqbU1G3uo_2Cbbye23QP5bsKiQACaMsX6ZbBm00]--></g></svg>