<svg xmlns="http://www.w3.org/2000/svg" xmlns:xlink="http://www.w3.org/1999/xlink" contentStyleType="text/css" data-diagram-type="ACTIVITY" height="1044px" preserveAspectRatio="none" style="width:567px;height:1044px;background:#FFFFFF;" version="1.1" viewBox="0 0 567 1044" width="567px" zoomAndPan="magnify"><defs/><g><ellipse cx="265.9604" cy="20" fill="#222222" rx="10" ry="10" style="stroke:#222222;stroke-width:1;"/><rect fill="#F1F1F1" height="35.0938" rx="12.5" ry="12.5" style="stroke:#181818;stroke-width:0.5;" width="152.0586" x="189.9312" y="50"/><text fill="#000000" font-family="sans-serif" font-size="12" lengthAdjust="spacing" textLength="132.0586" x="199.9312" y="72.457">Select ACCuESS project</text><rect fill="#F1F1F1" height="35.0938" rx="12.5" ry="12.5" style="stroke:#181818;stroke-width:0.5;" width="158.0879" x="186.9165" y="105.0938"/><text fill="#000000" font-family="sans-serif" font-size="12" lengthAdjust="spacing" textLength="138.0879" x="196.9165" y="127.5508">Open Project Config page</text><rect fill="#F1F1F1" height="35.0938" rx="12.5" ry="12.5" style="stroke:#181818;stroke-width:0.5;" width="200.0879" x="165.9165" y="160.1875"/><text fill="#000000" font-family="sans-serif" font-size="12" lengthAdjust="spacing" textLength="180.0879" x="175.9165" y="182.6445">Load YAML from backend service</text><polygon fill="#F1F1F1" points="217.6609,215.2813,314.26,215.2813,326.26,227.2813,314.26,239.2813,217.6609,239.2813,205.6609,227.2813,217.6609,215.2813" style="stroke:#181818;stroke-width:0.5;"/><text fill="#000000" font-family="sans-serif" font-size="11" lengthAdjust="spacing" textLength="96.5991" x="217.6609" y="231.7822">YAML syntax valid?</text><text fill="#000000" font-family="sans-serif" font-size="11" lengthAdjust="spacing" textLength="17.1177" x="188.5432" y="224.8643">yes</text><text fill="#000000" font-family="sans-serif" font-size="11" lengthAdjust="spacing" textLength="12.2354" x="326.26" y="224.8643">no</text><rect fill="#F1F1F1" height="35.0938" rx="12.5" ry="12.5" style="stroke:#181818;stroke-width:0.5;" width="200.7793" x="51.689" y="249.2813"/><text fill="#000000" font-family="sans-serif" font-size="12" lengthAdjust="spacing" textLength="180.7793" x="61.689" y="271.7383">Render sections and nested fields</text><rect fill="#F1F1F1" height="35.0938" rx="12.5" ry="12.5" style="stroke:#181818;stroke-width:0.5;" width="214.748" x="272.4683" y="249.2813"/><text fill="#000000" font-family="sans-serif" font-size="12" lengthAdjust="spacing" textLength="194.748" x="282.4683" y="271.7383">Repair syntax or show blocking error</text><polygon fill="#F1F1F1" points="265.9604,290.375,277.9604,302.375,265.9604,314.375,253.9604,302.375,265.9604,290.375" style="stroke:#181818;stroke-width:0.5;"/><rect fill="#F1F1F1" height="35.0938" rx="12.5" ry="12.5" style="stroke:#181818;stroke-width:0.5;" width="161.4102" x="185.2554" y="334.375"/><text fill="#000000" font-family="sans-serif" font-size="12" lengthAdjust="spacing" textLength="141.4102" x="195.2554" y="356.832">Read live hardware values</text><rect fill="#F1F1F1" height="35.0938" rx="12.5" ry="12.5" style="stroke:#181818;stroke-width:0.5;" width="220.748" x="155.5864" y="389.4688"/><text fill="#000000" font-family="sans-serif" font-size="12" lengthAdjust="spacing" textLength="200.748" x="165.5864" y="411.9258">Compare live values with YAML fields</text><polygon fill="#F1F1F1" points="216.7424,444.5625,315.1785,444.5625,327.1785,456.5625,315.1785,468.5625,216.7424,468.5625,204.7424,456.5625,216.7424,444.5625" style="stroke:#181818;stroke-width:0.5;"/><text fill="#000000" font-family="sans-serif" font-size="11" lengthAdjust="spacing" textLength="98.436" x="216.7424" y="461.0635">Mismatch detected?</text><text fill="#000000" font-family="sans-serif" font-size="11" lengthAdjust="spacing" textLength="17.1177" x="187.6248" y="454.1455">yes</text><text fill="#000000" font-family="sans-serif" font-size="11" lengthAdjust="spacing" textLength="12.2354" x="327.1785" y="454.1455">no</text><rect fill="#F1F1F1" height="35.0938" rx="12.5" ry="12.5" style="stroke:#181818;stroke-width:0.5;" width="188.7559" x="72.708" y="478.5625"/><text fill="#000000" font-family="sans-serif" font-size="12" lengthAdjust="spacing" textLength="168.7559" x="82.708" y="501.0195">Show read-only Actual indicator</text><rect fill="#F1F1F1" height="35.0938" rx="12.5" ry="12.5" style="stroke:#181818;stroke-width:0.5;" width="166.7422" x="281.4639" y="478.5625"/><text fill="#000000" font-family="sans-serif" font-size="12" lengthAdjust="spacing" textLength="146.7422" x="291.4639" y="501.0195">Show no extra live indicator</text><polygon fill="#F1F1F1" points="265.9604,519.6563,277.9604,531.6563,265.9604,543.6563,253.9604,531.6563,265.9604,519.6563" style="stroke:#181818;stroke-width:0.5;"/><rect fill="#F1F1F1" height="35.0938" rx="12.5" ry="12.5" style="stroke:#181818;stroke-width:0.5;" width="112.0391" x="209.9409" y="563.6563"/><text fill="#000000" font-family="sans-serif" font-size="12" lengthAdjust="spacing" textLength="92.0391" x="219.9409" y="586.1133">User edits values</text><rect fill="#F1F1F1" height="35.0938" rx="12.5" ry="12.5" style="stroke:#181818;stroke-width:0.5;" width="138.7344" x="196.5933" y="667.668"/><text fill="#000000" font-family="sans-serif" font-size="12" lengthAdjust="spacing" textLength="118.7344" x="206.5933" y="690.125">Check version change</text><polygon fill="#F1F1F1" points="222.844,722.7617,309.0769,722.7617,321.0769,734.7617,309.0769,746.7617,222.844,746.7617,210.844,734.7617,222.844,722.7617" style="stroke:#181818;stroke-width:0.5;"/><text fill="#000000" font-family="sans-serif" font-size="11" lengthAdjust="spacing" textLength="86.2329" x="222.844" y="739.2627">Version updated?</text><text fill="#000000" font-family="sans-serif" font-size="11" lengthAdjust="spacing" textLength="17.1177" x="193.7263" y="732.3447">yes</text><text fill="#000000" font-family="sans-serif" font-size="11" lengthAdjust="spacing" textLength="12.2354" x="321.0769" y="732.3447">no</text><rect fill="#F1F1F1" height="35.0938" rx="12.5" ry="12.5" style="stroke:#181818;stroke-width:0.5;" width="241.4609" x="11" y="756.7617"/><text fill="#000000" font-family="sans-serif" font-size="12" lengthAdjust="spacing" textLength="221.4609" x="21" y="779.2188">Save as &lt;project_name&gt;_&lt;version&gt;.yaml</text><rect fill="#F1F1F1" height="35.0938" rx="12.5" ry="12.5" style="stroke:#181818;stroke-width:0.5;" width="255.459" x="272.4609" y="756.7617"/><text fill="#000000" font-family="sans-serif" font-size="12" lengthAdjust="spacing" textLength="235.459" x="282.4609" y="779.2188">Request explicit version confirmation/update</text><rect fill="#F1F1F1" height="35.0938" rx="12.5" ry="12.5" style="stroke:#181818;stroke-width:0.5;" width="138.7285" x="330.8262" y="826.8555"/><text fill="#000000" font-family="sans-serif" font-size="12" lengthAdjust="spacing" textLength="118.7285" x="340.8262" y="849.3125">Save versioned YAML</text><polygon fill="#F1F1F1" points="265.9604,867.9492,277.9604,879.9492,265.9604,891.9492,253.9604,879.9492,265.9604,867.9492" style="stroke:#181818;stroke-width:0.5;"/><rect fill="#F1F1F1" height="35.0938" rx="12.5" ry="12.5" style="stroke:#181818;stroke-width:0.5;" width="155.4219" x="188.2495" y="911.9492"/><text fill="#000000" font-family="sans-serif" font-size="12" lengthAdjust="spacing" textLength="135.4219" x="198.2495" y="934.4063">Update active config path</text><polygon fill="#F1F1F1" points="224.3748,618.75,307.5461,618.75,319.5461,630.75,307.5461,642.75,224.3748,642.75,212.3748,630.75,224.3748,618.75" style="stroke:#181818;stroke-width:0.5;"/><text fill="#000000" font-family="sans-serif" font-size="11" lengthAdjust="spacing" textLength="17.1177" x="269.9604" y="654.1689">yes</text><text fill="#000000" font-family="sans-serif" font-size="11" lengthAdjust="spacing" textLength="83.1714" x="224.3748" y="635.251">Save requested?</text><polygon fill="#F1F1F1" points="265.9604,967.043,277.9604,979.043,265.9604,991.043,253.9604,979.043,265.9604,967.043" style="stroke:#181818;stroke-width:0.5;"/><ellipse cx="265.9604" cy="1022.043" fill="none" rx="11" ry="11" style="stroke:#222222;stroke-width:1;"/><ellipse cx="265.9604" cy="1022.043" fill="#222222" rx="6" ry="6" style="stroke:#222222;stroke-width:1;"/><line style="stroke:#181818;stroke-width:1;" x1="265.9604" x2="265.9604" y1="30" y2="50"/><polygon fill="#181818" points="261.9604,40,265.9604,50,269.9604,40,265.9604,44" style="stroke:#181818;stroke-width:1;"/><line style="stroke:#181818;stroke-width:1;" x1="265.9604" x2="265.9604" y1="85.0938" y2="105.0938"/><polygon fill="#181818" points="261.9604,95.0938,265.9604,105.0938,269.9604,95.0938,265.9604,99.0938" style="stroke:#181818;stroke-width:1;"/><line style="stroke:#181818;stroke-width:1;" x1="265.9604" x2="265.9604" y1="140.1875" y2="160.1875"/><polygon fill="#181818" points="261.9604,150.1875,265.9604,160.1875,269.9604,150.1875,265.9604,154.1875" style="stroke:#181818;stroke-width:1;"/><line style="stroke:#181818;stroke-width:1;" x1="205.6609" x2="152.0786" y1="227.2813" y2="227.2813"/><line style="stroke:#181818;stroke-width:1;" x1="152.0786" x2="152.0786" y1="227.2813" y2="249.2813"/><polygon fill="#181818" points="148.0786,239.2813,152.0786,249.2813,156.0786,239.2813,152.0786,243.2813" style="stroke:#181818;stroke-width:1;"/><line style="stroke:#181818;stroke-width:1;" x1="326.26" x2="379.8423" y1="227.2813" y2="227.2813"/><line style="stroke:#181818;stroke-width:1;" x1="379.8423" x2="379.8423" y1="227.2813" y2="249.2813"/><polygon fill="#181818" points="375.8423,239.2813,379.8423,249.2813,383.8423,239.2813,379.8423,243.2813" style="stroke:#181818;stroke-width:1;"/><line style="stroke:#181818;stroke-width:1;" x1="152.0786" x2="152.0786" y1="284.375" y2="302.375"/><line style="stroke:#181818;stroke-width:1;" x1="152.0786" x2="253.9604" y1="302.375" y2="302.375"/><polygon fill="#181818" points="243.9604,298.375,253.9604,302.375,243.9604,306.375,247.9604,302.375" style="stroke:#181818;stroke-width:1;"/><line style="stroke:#181818;stroke-width:1;" x1="379.8423" x2="379.8423" y1="284.375" y2="302.375"/><line style="stroke:#181818;stroke-width:1;" x1="379.8423" x2="277.9604" y1="302.375" y2="302.375"/><polygon fill="#181818" points="287.9604,298.375,277.9604,302.375,287.9604,306.375,283.9604,302.375" style="stroke:#181818;stroke-width:1;"/><line style="stroke:#181818;stroke-width:1;" x1="265.9604" x2="265.9604" y1="195.2813" y2="215.2813"/><polygon fill="#181818" points="261.9604,205.2813,265.9604,215.2813,269.9604,205.2813,265.9604,209.2813" style="stroke:#181818;stroke-width:1;"/><line style="stroke:#181818;stroke-width:1;" x1="265.9604" x2="265.9604" y1="314.375" y2="334.375"/><polygon fill="#181818" points="261.9604,324.375,265.9604,334.375,269.9604,324.375,265.9604,328.375" style="stroke:#181818;stroke-width:1;"/><line style="stroke:#181818;stroke-width:1;" x1="265.9604" x2="265.9604" y1="369.4688" y2="389.4688"/><polygon fill="#181818" points="261.9604,379.4688,265.9604,389.4688,269.9604,379.4688,265.9604,383.4688" style="stroke:#181818;stroke-width:1;"/><line style="stroke:#181818;stroke-width:1;" x1="204.7424" x2="167.0859" y1="456.5625" y2="456.5625"/><line style="stroke:#181818;stroke-width:1;" x1="167.0859" x2="167.0859" y1="456.5625" y2="478.5625"/><polygon fill="#181818" points="163.0859,468.5625,167.0859,478.5625,171.0859,468.5625,167.0859,472.5625" style="stroke:#181818;stroke-width:1;"/><line style="stroke:#181818;stroke-width:1;" x1="327.1785" x2="364.835" y1="456.5625" y2="456.5625"/><line style="stroke:#181818;stroke-width:1;" x1="364.835" x2="364.835" y1="456.5625" y2="478.5625"/><polygon fill="#181818" points="360.835,468.5625,364.835,478.5625,368.835,468.5625,364.835,472.5625" style="stroke:#181818;stroke-width:1;"/><line style="stroke:#181818;stroke-width:1;" x1="167.0859" x2="167.0859" y1="513.6563" y2="531.6563"/><line style="stroke:#181818;stroke-width:1;" x1="167.0859" x2="253.9604" y1="531.6563" y2="531.6563"/><polygon fill="#181818" points="243.9604,527.6563,253.9604,531.6563,243.9604,535.6563,247.9604,531.6563" style="stroke:#181818;stroke-width:1;"/><line style="stroke:#181818;stroke-width:1;" x1="364.835" x2="364.835" y1="513.6563" y2="531.6563"/><line style="stroke:#181818;stroke-width:1;" x1="364.835" x2="277.9604" y1="531.6563" y2="531.6563"/><polygon fill="#181818" points="287.9604,527.6563,277.9604,531.6563,287.9604,535.6563,283.9604,531.6563" style="stroke:#181818;stroke-width:1;"/><line style="stroke:#181818;stroke-width:1;" x1="265.9604" x2="265.9604" y1="424.5625" y2="444.5625"/><polygon fill="#181818" points="261.9604,434.5625,265.9604,444.5625,269.9604,434.5625,265.9604,438.5625" style="stroke:#181818;stroke-width:1;"/><line style="stroke:#181818;stroke-width:1;" x1="265.9604" x2="265.9604" y1="543.6563" y2="563.6563"/><polygon fill="#181818" points="261.9604,553.6563,265.9604,563.6563,269.9604,553.6563,265.9604,557.6563" style="stroke:#181818;stroke-width:1;"/><line style="stroke:#181818;stroke-width:1;" x1="400.1904" x2="400.1904" y1="791.8555" y2="826.8555"/><polygon fill="#181818" points="396.1904,816.8555,400.1904,826.8555,404.1904,816.8555,400.1904,820.8555" style="stroke:#181818;stroke-width:1;"/><line style="stroke:#181818;stroke-width:1;" x1="210.844" x2="131.7305" y1="734.7617" y2="734.7617"/><line style="stroke:#181818;stroke-width:1;" x1="131.7305" x2="131.7305" y1="734.7617" y2="756.7617"/><polygon fill="#181818" points="127.7305,746.7617,131.7305,756.7617,135.7305,746.7617,131.7305,750.7617" style="stroke:#181818;stroke-width:1;"/><line style="stroke:#181818;stroke-width:1;" x1="321.0769" x2="400.1904" y1="734.7617" y2="734.7617"/><line style="stroke:#181818;stroke-width:1;" x1="400.1904" x2="400.1904" y1="734.7617" y2="756.7617"/><polygon fill="#181818" points="396.1904,746.7617,400.1904,756.7617,404.1904,746.7617,400.1904,750.7617" style="stroke:#181818;stroke-width:1;"/><line style="stroke:#181818;stroke-width:1;" x1="131.7305" x2="131.7305" y1="791.8555" y2="879.9492"/><line style="stroke:#181818;stroke-width:1;" x1="131.7305" x2="253.9604" y1="879.9492" y2="879.9492"/><polygon fill="#181818" points="243.9604,875.9492,253.9604,879.9492,243.9604,883.9492,247.9604,879.9492" style="stroke:#181818;stroke-width:1;"/><line style="stroke:#181818;stroke-width:1;" x1="400.1904" x2="400.1904" y1="861.9492" y2="879.9492"/><line style="stroke:#181818;stroke-width:1;" x1="400.1904" x2="277.9604" y1="879.9492" y2="879.9492"/><polygon fill="#181818" points="287.9604,875.9492,277.9604,879.9492,287.9604,883.9492,283.9604,879.9492" style="stroke:#181818;stroke-width:1;"/><line style="stroke:#181818;stroke-width:1;" x1="265.9604" x2="265.9604" y1="702.7617" y2="722.7617"/><polygon fill="#181818" points="261.9604,712.7617,265.9604,722.7617,269.9604,712.7617,265.9604,716.7617" style="stroke:#181818;stroke-width:1;"/><line style="stroke:#181818;stroke-width:1;" x1="265.9604" x2="265.9604" y1="891.9492" y2="911.9492"/><polygon fill="#181818" points="261.9604,901.9492,265.9604,911.9492,269.9604,901.9492,265.9604,905.9492" style="stroke:#181818;stroke-width:1;"/><line style="stroke:#181818;stroke-width:1;" x1="265.9604" x2="265.9604" y1="642.75" y2="667.668"/><polygon fill="#181818" points="261.9604,657.668,265.9604,667.668,269.9604,657.668,265.9604,661.668" style="stroke:#181818;stroke-width:1;"/><line style="stroke:#181818;stroke-width:1;" x1="319.5461" x2="541.9199" y1="630.75" y2="630.75"/><polygon fill="#181818" points="537.9199,797.3555,541.9199,807.3555,545.9199,797.3555,541.9199,801.3555" style="stroke:#181818;stroke-width:1;"/><line style="stroke:#181818;stroke-width:1;" x1="541.9199" x2="541.9199" y1="630.75" y2="979.043"/><line style="stroke:#181818;stroke-width:1;" x1="541.9199" x2="277.9604" y1="979.043" y2="979.043"/><polygon fill="#181818" points="287.9604,975.043,277.9604,979.043,287.9604,983.043,283.9604,979.043" style="stroke:#181818;stroke-width:1;"/><line style="stroke:#181818;stroke-width:1;" x1="265.9604" x2="265.9604" y1="947.043" y2="967.043"/><polygon fill="#181818" points="261.9604,957.043,265.9604,967.043,269.9604,957.043,265.9604,961.043" style="stroke:#181818;stroke-width:1;"/><line style="stroke:#181818;stroke-width:1;" x1="265.9604" x2="265.9604" y1="598.75" y2="618.75"/><polygon fill="#181818" points="261.9604,608.75,265.9604,618.75,269.9604,608.75,265.9604,612.75" style="stroke:#181818;stroke-width:1;"/><line style="stroke:#181818;stroke-width:1;" x1="265.9604" x2="265.9604" y1="991.043" y2="1011.043"/><polygon fill="#181818" points="261.9604,1001.043,265.9604,1011.043,269.9604,1001.043,265.9604,1005.043" style="stroke:#181818;stroke-width:1;"/><!--SRC=[RLB1JiCm3BttAtpS3i1zcuQcYXi8H3KaJiWaxXgM9YLnE_htE6a7a-0Mny_FxzcEZ86BLKMM5CEkBFkxge8k-0-9ryNgiIC7JrC8fNUrEK271vBKlKSDhxk7UwY3R-4TrP6SXaXXC4e0feP5JiVHCNx1WDResoLm8vIBaUAo05WzImq5gL9il8k0Gk4eCcce3LaTrmNPIB1mViPtQCAPqykhyITujruTZJi0XU23b3XjwaB08j6QWQ31e4yOAAdeIKXNfM-xz97Jqo-S33UpfRbtCl5WOeki6j348fF-cgYIXY3Dhhop8-mKzsZ1Y0Y5dFLSMiXevu6-EE3K_n8wIT_B786quVWZEMcfKD21FliyeZz2oeRK4GOAKOO9ga6NLWMGIb_ctxxJ-4zj4fR8CS9ctl-RmvQsRvkPRtizOciJtQMTl9EiHmnrrYZ3lmBImGGPdWGtKz_rHQiPHjCPPU9iNlBx30QKgn2WEXyUD-S1HVRTDm00]--></g></svg>