<svg xmlns="http://www.w3.org/2000/svg" xmlns:xlink="http://www.w3.org/1999/xlink" contentStyleType="text/css" data-diagram-type="DESCRIPTION" height="513px" preserveAspectRatio="none" style="width:370px;height:513px;background:#FFFFFF;" version="1.1" viewBox="0 0 370 513" width="370px" zoomAndPan="magnify"><defs/><g><!--cluster ACCuESS Config Workspace--><g class="cluster" data-entity="ACCuESS Config Workspace" data-source-line="4" data-uid="ent0003" id="cluster_ACCuESS Config Workspace"><rect fill="none" height="500" rx="2.5" ry="2.5" style="stroke:#181818;stroke-width:1;" width="255" x="109" y="7"/><text fill="#000000" font-family="sans-serif" font-size="14" font-weight="bold" lengthAdjust="spacing" textLength="193.6895" x="139.6553" y="23.5332">ACCuESS Config Workspace</text></g><!--entity UC1--><g class="entity" data-entity="UC1" data-source-line="5" data-uid="ent0004" id="entity_UC1"><ellipse cx="236.3854" cy="402.8771" fill="#F1F1F1" rx="79.8854" ry="18.3771" style="stroke:#181818;stroke-width:0.5;"/><text fill="#000000" font-family="sans-serif" font-size="14" lengthAdjust="spacing" textLength="126.0684" x="173.3513" y="408.1818">Open Project Config</text></g><!--entity UC2--><g class="entity" data-entity="UC2" data-source-line="6" data-uid="ent0005" id="entity_UC2"><ellipse cx="236.737" cy="327.9474" fill="#F1F1F1" rx="92.737" ry="20.9474" style="stroke:#181818;stroke-width:0.5;"/><text fill="#000000" font-family="sans-serif" font-size="14" lengthAdjust="spacing" textLength="156.3926" x="158.5407" y="333.2521">View Full YAML Sections</text></g><!--entity UC3--><g class="entity" data-entity="UC3" data-source-line="7" data-uid="ent0006" id="entity_UC3"><ellipse cx="236.5607" cy="152.8121" fill="#F1F1F1" rx="74.5607" ry="17.3121" style="stroke:#181818;stroke-width:0.5;"/><text fill="#000000" font-family="sans-serif" font-size="14" lengthAdjust="spacing" textLength="112.834" x="180.1438" y="158.1168">Edit YAML Values</text></g><!--entity UC4--><g class="entity" data-entity="UC4" data-source-line="8" data-uid="ent0007" id="entity_UC4"><ellipse cx="236.5546" cy="63.1109" fill="#F1F1F1" rx="86.0546" ry="19.6109" style="stroke:#181818;stroke-width:0.5;"/><text fill="#000000" font-family="sans-serif" font-size="14" lengthAdjust="spacing" textLength="140.8545" x="166.1273" y="68.4156">Save Versioned YAML</text></g><!--entity UC5--><g class="entity" data-entity="UC5" data-source-line="9" data-uid="ent0008" id="entity_UC5"><ellipse cx="236.7486" cy="474.2497" fill="#F1F1F1" rx="74.2486" ry="17.2497" style="stroke:#181818;stroke-width:0.5;"/><text fill="#000000" font-family="sans-serif" font-size="14" lengthAdjust="spacing" textLength="112.041" x="180.7281" y="479.5544">Reveal YAML File</text></g><!--entity UC6--><g class="entity" data-entity="UC6" data-source-line="10" data-uid="ent0009" id="entity_UC6"><ellipse cx="236.542" cy="230.2084" fill="#F1F1F1" rx="111.542" ry="24.7084" style="stroke:#181818;stroke-width:0.5;"/><text fill="#000000" font-family="sans-serif" font-size="14" lengthAdjust="spacing" textLength="198.4268" x="137.3286" y="235.5131">Compare Live Hardware Values</text></g><!--entity Engineer--><g class="entity" data-entity="Engineer" data-source-line="3" data-uid="ent0002" id="entity_Engineer"><ellipse cx="34.0205" cy="263.5" fill="#F1F1F1" rx="8" ry="8" style="stroke:#181818;stroke-width:0.5;"/><path d="M34.0205,271.5 L34.0205,298.5 M21.0205,279.5 L47.0205,279.5 M34.0205,298.5 L21.0205,313.5 M34.0205,298.5 L47.0205,313.5" fill="none" style="stroke:#181818;stroke-width:0.5;"/><text fill="#000000" font-family="sans-serif" font-size="14" lengthAdjust="spacing" textLength="56.041" x="6" y="329.5332">Engineer</text></g><!--link Engineer to UC1--><g class="link" data-entity-1="Engineer" data-entity-2="UC1" data-source-line="13" data-uid="lnk10" id="link_Engineer_UC1"><path d="M62.22,331.4 C73.03,343.98 86.39,357.07 101,366 C121.77,378.69 141.1288,385.7067 164.0688,391.2667" fill="none" id="Engineer-to-UC1" style="stroke:#181818;stroke-width:1;"/><polygon fill="#181818" points="169.9,392.68,162.0954,386.6726,165.0407,391.5022,160.211,394.4475,169.9,392.68" style="stroke:#181818;stroke-width:1;"/></g><!--link Engineer to UC2--><g class="link" data-entity-1="Engineer" data-entity-2="UC2" data-source-line="14" data-uid="lnk11" id="link_Engineer_UC2"><path d="M62.04,298.59 C87.59,302.92 121.1645,308.6068 156.0145,314.5168" fill="none" id="Engineer-to-UC2" style="stroke:#181818;stroke-width:1;"/><polygon fill="#181818" points="161.93,315.52,153.7255,310.0715,157.0004,314.684,152.3879,317.9589,161.93,315.52" style="stroke:#181818;stroke-width:1;"/></g><!--link Engineer to UC3--><g class="link" data-entity-1="Engineer" data-entity-2="UC3" data-source-line="15" data-uid="lnk12" id="link_Engineer_UC3"><path d="M50.48,254.9 C61.38,232.19 78.12,204.83 101,188 C120.44,173.7 139.3477,166.5081 162.3277,161.4981" fill="none" id="Engineer-to-UC3" style="stroke:#181818;stroke-width:1;"/><polygon fill="#181818" points="168.19,160.22,158.5445,158.2289,163.3048,161.2851,160.2486,166.0453,168.19,160.22" style="stroke:#181818;stroke-width:1;"/></g><!--link Engineer to UC4--><g class="link" data-entity-1="Engineer" data-entity-2="UC4" data-source-line="16" data-uid="lnk13" id="link_Engineer_UC4"><path d="M40.4,254.85 C47.73,215.59 64.4,155.69 101,118 C120.6,97.82 142.9352,86.6389 168.3452,78.3589" fill="none" id="Engineer-to-UC4" style="stroke:#181818;stroke-width:1;"/><polygon fill="#181818" points="174.05,76.5,164.2536,75.4852,169.296,78.0491,166.7321,83.0916,174.05,76.5" style="stroke:#181818;stroke-width:1;"/></g><!--link Engineer to UC5--><g class="link" data-entity-1="Engineer" data-entity-2="UC5" data-source-line="17" data-uid="lnk14" id="link_Engineer_UC5"><path d="M42.98,333.28 C51.7,366.2 68.93,412.03 101,439 C119.38,454.45 137.9215,461.9307 160.8915,466.8207" fill="none" id="Engineer-to-UC5" style="stroke:#181818;stroke-width:1;"/><polygon fill="#181818" points="166.76,468.07,158.7901,462.2837,161.8696,467.0289,157.1244,470.1083,166.76,468.07" style="stroke:#181818;stroke-width:1;"/></g><!--link Engineer to UC6--><g class="link" data-entity-1="Engineer" data-entity-2="UC6" data-source-line="18" data-uid="lnk15" id="link_Engineer_UC6"><path d="M62.04,285.37 C90.15,276.4 129.4342,263.8547 166.5542,252.0047" fill="none" id="Engineer-to-UC6" style="stroke:#181818;stroke-width:1;"/><polygon fill="#181818" points="172.27,250.18,162.4798,249.1065,167.5068,251.7006,164.9127,256.7276,172.27,250.18" style="stroke:#181818;stroke-width:1;"/></g><!--link UC4 to UC3--><g class="link" data-entity-1="UC4" data-entity-2="UC3" data-source-line="20" data-uid="lnk16" id="link_UC4_UC3"><path d="M236.5,82.62 C236.5,98.29 236.5,114.06 236.5,129.22" fill="none" id="UC4-to-UC3" style="stroke:#181818;stroke-width:1;stroke-dasharray:7,7;"/><polygon fill="#181818" points="236.5,135.22,240.5,126.22,236.5,130.22,232.5,126.22,236.5,135.22" style="stroke:#181818;stroke-width:1;"/><text fill="#000000" font-family="sans-serif" font-size="13" lengthAdjust="spacing" textLength="47.6963" x="201" y="114.4951">includes</text></g><!--link UC6 to UC2--><g class="link" data-entity-1="UC6" data-entity-2="UC2" data-source-line="21" data-uid="lnk17" id="link_UC6_UC2"><path d="M236.5,254.68 C236.5,270.72 236.5,285.42 236.5,300.74" fill="none" id="UC6-to-UC2" style="stroke:#181818;stroke-width:1;stroke-dasharray:7,7;"/><polygon fill="#181818" points="236.5,306.74,240.5,297.74,236.5,301.74,232.5,297.74,236.5,306.74" style="stroke:#181818;stroke-width:1;"/><text fill="#000000" font-family="sans-serif" font-size="13" lengthAdjust="spacing" textLength="45.5317" x="202" y="286.2451">extends</text></g><!--SRC=[NT1FIyCm6CVnUrx5Zzuds6qzU116wV0mKInMF8RcMHUDIKdIJH3VkrcRGkmnNpvvyaVHqSCRMDcTF8Iqr7ffD6EyzSOYgtGdDP7Dm1tc1RighZj5o7PbELHrZTBee-pmPkodwtbB6NuOC3XgkGligIUDPsi-mivenv6lvMtA6aaNx0UbyBvxFA2URkCYpLDQ2UadrN0rq6pMgQdvcT2GTM48YL57jadP2vs9noFtKb4qszIKvgldbd2GOUG3j-9oNVqxkc2_ZCr_XDNgVdpT8kJBi5w6pJ9ibw5WB33SZDjn1wbRDGXoeHPJpKEbRqzQk3y0]--></g></svg>