<svg xmlns="http://www.w3.org/2000/svg" xmlns:xlink="http://www.w3.org/1999/xlink" contentStyleType="text/css" data-diagram-type="SEQUENCE" height="731px" preserveAspectRatio="none" style="width:990px;height:731px;background:#FFFFFF;" version="1.1" viewBox="0 0 990 731" width="990px" zoomAndPan="magnify"><defs/><g><g><title>Engineer</title><rect fill="#000000" fill-opacity="0.00000" height="566.3281" width="8" x="32.0205" y="82.6094"/><line style="stroke:#181818;stroke-width:0.5;stroke-dasharray:5,5;" x1="36" x2="36" y1="82.6094" y2="648.9375"/></g><g><title>Project Config Page</title><rect fill="#000000" fill-opacity="0.00000" height="566.3281" width="8" x="173.084" y="82.6094"/><line style="stroke:#181818;stroke-width:0.5;stroke-dasharray:5,5;" x1="176.8257" x2="176.8257" y1="82.6094" y2="648.9375"/></g><g><title>WorkspaceRuntimeBridge</title><rect fill="#000000" fill-opacity="0.00000" height="566.3281" width="8" x="379.8711" y="82.6094"/><line style="stroke:#181818;stroke-width:0.5;stroke-dasharray:5,5;" x1="383.561" x2="383.561" y1="82.6094" y2="648.9375"/></g><g><title>Config Service</title><rect fill="#000000" fill-opacity="0.00000" height="566.3281" width="8" x="585.249" y="82.6094"/><line style="stroke:#181818;stroke-width:0.5;stroke-dasharray:5,5;" x1="588.7285" x2="588.7285" y1="82.6094" y2="648.9375"/></g><g><title>Disk YAML</title><rect fill="#000000" fill-opacity="0.00000" height="566.3281" width="8" x="829.6396" y="82.6094"/><line style="stroke:#181818;stroke-width:0.5;stroke-dasharray:5,5;" x1="833.0225" x2="833.0225" y1="82.6094" y2="648.9375"/></g><g><title>Runtime Data</title><rect fill="#000000" fill-opacity="0.00000" height="566.3281" width="8" x="931.0532" y="82.6094"/><line style="stroke:#181818;stroke-width:0.5;stroke-dasharray:5,5;" x1="934.2568" x2="934.2568" y1="82.6094" y2="648.9375"/></g><g class="participant participant-head" data-participant="Engineer"><text fill="#000000" font-family="sans-serif" font-size="14" lengthAdjust="spacing" textLength="56.041" x="5" y="79.5332">Engineer</text><ellipse cx="36.0205" cy="13.5" fill="#E2E2F0" rx="8" ry="8" style="stroke:#181818;stroke-width:0.5;"/><path d="M36.0205,21.5 L36.0205,48.5 M23.0205,29.5 L49.0205,29.5 M36.0205,48.5 L23.0205,63.5 M36.0205,48.5 L49.0205,63.5" fill="none" style="stroke:#181818;stroke-width:0.5;"/></g><g class="participant participant-tail" data-participant="Engineer"><text fill="#000000" font-family="sans-serif" font-size="14" lengthAdjust="spacing" textLength="56.041" x="5" y="662.4707">Engineer</text><ellipse cx="36.0205" cy="674.0469" fill="#E2E2F0" rx="8" ry="8" style="stroke:#181818;stroke-width:0.5;"/><path d="M36.0205,682.0469 L36.0205,709.0469 M23.0205,690.0469 L49.0205,690.0469 M36.0205,709.0469 L23.0205,724.0469 M36.0205,709.0469 L49.0205,724.0469" fill="none" style="stroke:#181818;stroke-width:0.5;"/></g><g class="participant participant-head" data-participant="Page"><rect fill="#E2E2F0" height="31.6094" rx="2.5" ry="2.5" style="stroke:#181818;stroke-width:0.5;" width="138.5166" x="107.8257" y="50"/><text fill="#000000" font-family="sans-serif" font-size="14" lengthAdjust="spacing" textLength="124.5166" x="114.8257" y="71.5332">Project Config Page</text></g><g class="participant participant-tail" data-participant="Page"><rect fill="#E2E2F0" height="31.6094" rx="2.5" ry="2.5" style="stroke:#181818;stroke-width:0.5;" width="138.5166" x="107.8257" y="647.9375"/><text fill="#000000" font-family="sans-serif" font-size="14" lengthAdjust="spacing" textLength="124.5166" x="114.8257" y="669.4707">Project Config Page</text></g><g class="participant participant-head" data-participant="Bridge"><rect fill="#E2E2F0" height="31.6094" rx="2.5" ry="2.5" style="stroke:#181818;stroke-width:0.5;" width="176.6201" x="295.561" y="50"/><text fill="#000000" font-family="sans-serif" font-size="14" lengthAdjust="spacing" textLength="162.6201" x="302.561" y="71.5332">WorkspaceRuntimeBridge</text></g><g class="participant participant-tail" data-participant="Bridge"><rect fill="#E2E2F0" height="31.6094" rx="2.5" ry="2.5" style="stroke:#181818;stroke-width:0.5;" width="176.6201" x="295.561" y="647.9375"/><text fill="#000000" font-family="sans-serif" font-size="14" lengthAdjust="spacing" textLength="162.6201" x="302.561" y="669.4707">WorkspaceRuntimeBridge</text></g><g class="participant participant-head" data-participant="Config"><rect fill="#E2E2F0" height="31.6094" rx="2.5" ry="2.5" style="stroke:#181818;stroke-width:0.5;" width="105.041" x="536.7285" y="50"/><text fill="#000000" font-family="sans-serif" font-size="14" lengthAdjust="spacing" textLength="91.041" x="543.7285" y="71.5332">Config Service</text></g><g class="participant participant-tail" data-participant="Config"><rect fill="#E2E2F0" height="31.6094" rx="2.5" ry="2.5" style="stroke:#181818;stroke-width:0.5;" width="105.041" x="536.7285" y="647.9375"/><text fill="#000000" font-family="sans-serif" font-size="14" lengthAdjust="spacing" textLength="91.041" x="543.7285" y="669.4707">Config Service</text></g><g class="participant participant-head" data-participant="Disk"><rect fill="#E2E2F0" height="31.6094" rx="2.5" ry="2.5" style="stroke:#181818;stroke-width:0.5;" width="83.2344" x="792.0225" y="50"/><text fill="#000000" font-family="sans-serif" font-size="14" lengthAdjust="spacing" textLength="69.2344" x="799.0225" y="71.5332">Disk YAML</text></g><g class="participant participant-tail" data-participant="Disk"><rect fill="#E2E2F0" height="31.6094" rx="2.5" ry="2.5" style="stroke:#181818;stroke-width:0.5;" width="83.2344" x="792.0225" y="647.9375"/><text fill="#000000" font-family="sans-serif" font-size="14" lengthAdjust="spacing" textLength="69.2344" x="799.0225" y="669.4707">Disk YAML</text></g><g class="participant participant-head" data-participant="Runtime"><rect fill="#E2E2F0" height="31.6094" rx="2.5" ry="2.5" style="stroke:#181818;stroke-width:0.5;" width="99.5928" x="885.2568" y="50"/><text fill="#000000" font-family="sans-serif" font-size="14" lengthAdjust="spacing" textLength="85.5928" x="892.2568" y="71.5332">Runtime Data</text></g><g class="participant participant-tail" data-participant="Runtime"><rect fill="#E2E2F0" height="31.6094" rx="2.5" ry="2.5" style="stroke:#181818;stroke-width:0.5;" width="99.5928" x="885.2568" y="647.9375"/><text fill="#000000" font-family="sans-serif" font-size="14" lengthAdjust="spacing" textLength="85.5928" x="892.2568" y="669.4707">Runtime Data</text></g><g class="message" data-participant-1="Engineer" data-participant-2="Page"><polygon fill="#181818" points="165.084,110.9609,175.084,114.9609,165.084,118.9609,169.084,114.9609" style="stroke:#181818;stroke-width:1;"/><line style="stroke:#181818;stroke-width:1;" x1="36.0205" x2="171.084" y1="114.9609" y2="114.9609"/><text fill="#000000" font-family="sans-serif" font-size="13" lengthAdjust="spacing" textLength="117.0635" x="43.0205" y="110.1045">Open Project Config</text></g><g class="message" data-participant-1="Page" data-participant-2="Bridge"><polygon fill="#181818" points="371.8711,141.3125,381.8711,145.3125,371.8711,149.3125,375.8711,145.3125" style="stroke:#181818;stroke-width:1;"/><line style="stroke:#181818;stroke-width:1;" x1="177.084" x2="377.8711" y1="145.3125" y2="145.3125"/><text fill="#000000" font-family="sans-serif" font-size="13" lengthAdjust="spacing" textLength="120.6816" x="184.084" y="140.4561">request config model</text></g><g class="message" data-participant-1="Bridge" data-participant-2="Config"><polygon fill="#181818" points="577.249,171.6641,587.249,175.6641,577.249,179.6641,581.249,175.6641" style="stroke:#181818;stroke-width:1;"/><line style="stroke:#181818;stroke-width:1;" x1="383.8711" x2="583.249" y1="175.6641" y2="175.6641"/><text fill="#000000" font-family="sans-serif" font-size="13" lengthAdjust="spacing" textLength="107.6626" x="390.8711" y="170.8076">load current YAML</text></g><g class="message" data-participant-1="Config" data-participant-2="Disk"><polygon fill="#181818" points="821.6396,202.0156,831.6396,206.0156,821.6396,210.0156,825.6396,206.0156" style="stroke:#181818;stroke-width:1;"/><line style="stroke:#181818;stroke-width:1;" x1="589.249" x2="827.6396" y1="206.0156" y2="206.0156"/><text fill="#000000" font-family="sans-serif" font-size="13" lengthAdjust="spacing" textLength="46.249" x="596.249" y="201.1592">read file</text></g><g class="message" data-participant-1="Disk" data-participant-2="Config"><polygon fill="#181818" points="600.249,232.3672,590.249,236.3672,600.249,240.3672,596.249,236.3672" style="stroke:#181818;stroke-width:1;"/><line style="stroke:#181818;stroke-width:1;stroke-dasharray:2,2;" x1="594.249" x2="832.6396" y1="236.3672" y2="236.3672"/><text fill="#000000" font-family="sans-serif" font-size="13" lengthAdjust="spacing" textLength="59.96" x="606.249" y="231.5107">raw YAML</text></g><g class="message" data-participant-1="Config" data-participant-2="Bridge"><polygon fill="#181818" points="394.8711,262.7188,384.8711,266.7188,394.8711,270.7188,390.8711,266.7188" style="stroke:#181818;stroke-width:1;"/><line style="stroke:#181818;stroke-width:1;stroke-dasharray:2,2;" x1="388.8711" x2="588.249" y1="266.7188" y2="266.7188"/><text fill="#000000" font-family="sans-serif" font-size="13" lengthAdjust="spacing" textLength="122.8589" x="400.8711" y="261.8623">editable config model</text></g><g class="message" data-participant-1="Bridge" data-participant-2="Page"><polygon fill="#181818" points="188.084,293.0703,178.084,297.0703,188.084,301.0703,184.084,297.0703" style="stroke:#181818;stroke-width:1;"/><line style="stroke:#181818;stroke-width:1;stroke-dasharray:2,2;" x1="182.084" x2="382.8711" y1="297.0703" y2="297.0703"/><text fill="#000000" font-family="sans-serif" font-size="13" lengthAdjust="spacing" textLength="70.1035" x="194.084" y="292.2139">section data</text></g><g class="message" data-participant-1="Page" data-participant-2="Bridge"><polygon fill="#181818" points="371.8711,323.4219,381.8711,327.4219,371.8711,331.4219,375.8711,327.4219" style="stroke:#181818;stroke-width:1;"/><line style="stroke:#181818;stroke-width:1;" x1="177.084" x2="377.8711" y1="327.4219" y2="327.4219"/><text fill="#000000" font-family="sans-serif" font-size="13" lengthAdjust="spacing" textLength="165.4771" x="184.084" y="322.5654">request live hardware values</text></g><g class="message" data-participant-1="Bridge" data-participant-2="Runtime"><polygon fill="#181818" points="923.0532,353.7734,933.0532,357.7734,923.0532,361.7734,927.0532,357.7734" style="stroke:#181818;stroke-width:1;"/><line style="stroke:#181818;stroke-width:1;" x1="383.8711" x2="929.0532" y1="357.7734" y2="357.7734"/><text fill="#000000" font-family="sans-serif" font-size="13" lengthAdjust="spacing" textLength="90.3271" x="390.8711" y="352.917">read live values</text></g><g class="message" data-participant-1="Runtime" data-participant-2="Bridge"><polygon fill="#181818" points="394.8711,384.125,384.8711,388.125,394.8711,392.125,390.8711,388.125" style="stroke:#181818;stroke-width:1;"/><line style="stroke:#181818;stroke-width:1;stroke-dasharray:2,2;" x1="388.8711" x2="934.0532" y1="388.125" y2="388.125"/><text fill="#000000" font-family="sans-serif" font-size="13" lengthAdjust="spacing" textLength="60.6963" x="400.8711" y="383.2686">live values</text></g><g class="message" data-participant-1="Bridge" data-participant-2="Page"><polygon fill="#181818" points="188.084,414.4766,178.084,418.4766,188.084,422.4766,184.084,418.4766" style="stroke:#181818;stroke-width:1;"/><line style="stroke:#181818;stroke-width:1;stroke-dasharray:2,2;" x1="182.084" x2="382.8711" y1="418.4766" y2="418.4766"/><text fill="#000000" font-family="sans-serif" font-size="13" lengthAdjust="spacing" textLength="182.7871" x="194.084" y="413.6201">mismatch-only Actual indicators</text></g><g class="message" data-participant-1="Engineer" data-participant-2="Page"><polygon fill="#181818" points="165.084,444.8281,175.084,448.8281,165.084,452.8281,169.084,448.8281" style="stroke:#181818;stroke-width:1;"/><line style="stroke:#181818;stroke-width:1;" x1="36.0205" x2="171.084" y1="448.8281" y2="448.8281"/><text fill="#000000" font-family="sans-serif" font-size="13" lengthAdjust="spacing" textLength="82.3926" x="43.0205" y="443.9717">Save changes</text></g><g class="message" data-participant-1="Page" data-participant-2="Bridge"><polygon fill="#181818" points="371.8711,475.1797,381.8711,479.1797,371.8711,483.1797,375.8711,479.1797" style="stroke:#181818;stroke-width:1;"/><line style="stroke:#181818;stroke-width:1;" x1="177.084" x2="377.8711" y1="479.1797" y2="479.1797"/><text fill="#000000" font-family="sans-serif" font-size="13" lengthAdjust="spacing" textLength="115.6226" x="184.084" y="474.3232">submit edited config</text></g><g class="message" data-participant-1="Bridge" data-participant-2="Config"><polygon fill="#181818" points="577.249,505.5313,587.249,509.5313,577.249,513.5313,581.249,509.5313" style="stroke:#181818;stroke-width:1;"/><line style="stroke:#181818;stroke-width:1;" x1="383.8711" x2="583.249" y1="509.5313" y2="509.5313"/><text fill="#000000" font-family="sans-serif" font-size="13" lengthAdjust="spacing" textLength="181.3779" x="390.8711" y="504.6748">validate + version check + save</text></g><g class="message" data-participant-1="Config" data-participant-2="Disk"><polygon fill="#181818" points="821.6396,535.8828,831.6396,539.8828,821.6396,543.8828,825.6396,539.8828" style="stroke:#181818;stroke-width:1;"/><line style="stroke:#181818;stroke-width:1;" x1="589.249" x2="827.6396" y1="539.8828" y2="539.8828"/><text fill="#000000" font-family="sans-serif" font-size="13" lengthAdjust="spacing" textLength="220.3906" x="596.249" y="535.0264">write &lt;project_name&gt;_&lt;version&gt;.yaml</text></g><g class="message" data-participant-1="Disk" data-participant-2="Config"><polygon fill="#181818" points="600.249,566.2344,590.249,570.2344,600.249,574.2344,596.249,570.2344" style="stroke:#181818;stroke-width:1;"/><line style="stroke:#181818;stroke-width:1;stroke-dasharray:2,2;" x1="594.249" x2="832.6396" y1="570.2344" y2="570.2344"/><text fill="#000000" font-family="sans-serif" font-size="13" lengthAdjust="spacing" textLength="63.6035" x="606.249" y="565.3779">saved path</text></g><g class="message" data-participant-1="Config" data-participant-2="Bridge"><polygon fill="#181818" points="394.8711,596.5859,384.8711,600.5859,394.8711,604.5859,390.8711,600.5859" style="stroke:#181818;stroke-width:1;"/><line style="stroke:#181818;stroke-width:1;stroke-dasharray:2,2;" x1="388.8711" x2="588.249" y1="600.5859" y2="600.5859"/><text fill="#000000" font-family="sans-serif" font-size="13" lengthAdjust="spacing" textLength="62.8608" x="400.8711" y="595.7295">save result</text></g><g class="message" data-participant-1="Bridge" data-participant-2="Page"><polygon fill="#181818" points="188.084,626.9375,178.084,630.9375,188.084,634.9375,184.084,630.9375" style="stroke:#181818;stroke-width:1;"/><line style="stroke:#181818;stroke-width:1;stroke-dasharray:2,2;" x1="182.084" x2="382.8711" y1="630.9375" y2="630.9375"/><text fill="#000000" font-family="sans-serif" font-size="13" lengthAdjust="spacing" textLength="144.8789" x="194.084" y="626.0811">success + active file path</text></g><!--SRC=[TPB1Ri8m38RlUGgBwyGU024aDdRRD3GEqqx898Pwf6cNf4My_TmqQAteRedznVb_swXZvU75dTWHULMZZwovHXTXjlNLD-a8pvKxyWcsUA8PO4Y7CVbP-NEeKTD7uoANzEJPPBW_Zl5SS4U-PTrZVMYCRJYSuMlzzfg8xZREvyzWWn4JaWDAtVp0V9NKmWBUQt8mTgHIIf1Ueq2UVXeA4NGliAmCMPMpmcNT2x0L6j2DzoGwEeKgfmHAghjIWXpPaag1-V2vnylurL036Ovui3GjuizG42DSEJ3YNlrlnN9BKA0t5_G4BLg93YpTUfW59pf3jzH8tH2urrHoA37gObuvUuMrZWrQO6TOewnPc1pC3gMYBj2TfEITZT0SIewfAMHoIwOc8f9OEa7m02tvq3L65wJFSW_omVryBbugmhBkDsBliAJLVfdVhXwlMDg9oNMr3DGOYydPTMbfP6Xid9fOepM5899GHYTajnwfs2y0]--></g></svg>