<svg xmlns="http://www.w3.org/2000/svg" xmlns:xlink="http://www.w3.org/1999/xlink" contentStyleType="text/css" data-diagram-type="SEQUENCE" height="991px" preserveAspectRatio="none" style="width:1439px;height:991px;background:#FFFFFF;" version="1.1" viewBox="0 0 1439 991" width="1439px" zoomAndPan="magnify"><defs/><g><rect fill="none" height="216.2969" style="stroke:#000000;stroke-width:1.5;" width="1056.2793" x="67.041" y="676.2891"/><g><title>Engineer</title><rect fill="#000000" fill-opacity="0.00000" height="826.9766" width="8" x="32.0205" y="82.6094"/><line style="stroke:#181818;stroke-width:0.5;stroke-dasharray:5,5;" x1="36" x2="36" y1="82.6094" y2="909.5859"/></g><g><title>Project Config Page</title><rect fill="#000000" fill-opacity="0.00000" height="826.9766" width="8" x="142.2993" y="82.6094"/><line style="stroke:#181818;stroke-width:0.5;stroke-dasharray:5,5;" x1="146.041" x2="146.041" y1="82.6094" y2="909.5859"/></g><g><title>WorkspaceRuntimeBridge</title><rect fill="#000000" fill-opacity="0.00000" height="826.9766" width="8" x="459.688" y="82.6094"/><line style="stroke:#181818;stroke-width:0.5;stroke-dasharray:5,5;" x1="463.3779" x2="463.3779" y1="82.6094" y2="909.5859"/></g><g><title>ConfigEditorService</title><rect fill="#000000" fill-opacity="0.00000" height="826.9766" width="8" x="626.8599" y="82.6094"/><line style="stroke:#181818;stroke-width:0.5;stroke-dasharray:5,5;" x1="629.998" x2="629.998" y1="82.6094" y2="909.5859"/></g><g><title>ConfigSaveService</title><rect fill="#000000" fill-opacity="0.00000" height="826.9766" width="8" x="772.2524" y="82.6094"/><line style="stroke:#181818;stroke-width:0.5;stroke-dasharray:5,5;" x1="775.7217" x2="775.7217" y1="82.6094" y2="909.5859"/></g><g><title>RawProjectConfigReader</title><rect fill="#000000" fill-opacity="0.00000" height="826.9766" width="8" x="934.7656" y="82.6094"/><line style="stroke:#181818;stroke-width:0.5;stroke-dasharray:5,5;" x1="937.7832" x2="937.7832" y1="82.6094" y2="909.5859"/></g><g><title>YAML File</title><rect fill="#000000" fill-opacity="0.00000" height="826.9766" width="8" x="1070.0342" y="82.6094"/><line style="stroke:#181818;stroke-width:0.5;stroke-dasharray:5,5;" x1="1073.748" x2="1073.748" y1="82.6094" y2="909.5859"/></g><g><title>LiveHardwareOverlayProvider</title><rect fill="#000000" fill-opacity="0.00000" height="826.9766" width="8" x="1219.689" y="82.6094"/><line style="stroke:#181818;stroke-width:0.5;stroke-dasharray:5,5;" x1="1223.3203" x2="1223.3203" y1="82.6094" y2="909.5859"/></g><g><title>Runtime Data</title><rect fill="#000000" fill-opacity="0.00000" height="826.9766" width="8" x="1379.854" y="82.6094"/><line style="stroke:#181818;stroke-width:0.5;stroke-dasharray:5,5;" x1="1383.0576" x2="1383.0576" y1="82.6094" y2="909.5859"/></g><g class="participant participant-head" data-participant="Engineer"><text fill="#000000" font-family="sans-serif" font-size="14" lengthAdjust="spacing" textLength="56.041" x="5" y="79.5332">Engineer</text><ellipse cx="36.0205" cy="13.5" fill="#E2E2F0" rx="8" ry="8" style="stroke:#181818;stroke-width:0.5;"/><path d="M36.0205,21.5 L36.0205,48.5 M23.0205,29.5 L49.0205,29.5 M36.0205,48.5 L23.0205,63.5 M36.0205,48.5 L49.0205,63.5" fill="none" style="stroke:#181818;stroke-width:0.5;"/></g><g class="participant participant-tail" data-participant="Engineer"><text fill="#000000" font-family="sans-serif" font-size="14" lengthAdjust="spacing" textLength="56.041" x="5" y="923.1191">Engineer</text><ellipse cx="36.0205" cy="934.6953" fill="#E2E2F0" rx="8" ry="8" style="stroke:#181818;stroke-width:0.5;"/><path d="M36.0205,942.6953 L36.0205,969.6953 M23.0205,950.6953 L49.0205,950.6953 M36.0205,969.6953 L23.0205,984.6953 M36.0205,969.6953 L49.0205,984.6953" fill="none" style="stroke:#181818;stroke-width:0.5;"/></g><g class="participant participant-head" data-participant="Page"><rect fill="#E2E2F0" height="31.6094" rx="2.5" ry="2.5" style="stroke:#181818;stroke-width:0.5;" width="138.5166" x="77.041" y="50"/><text fill="#000000" font-family="sans-serif" font-size="14" lengthAdjust="spacing" textLength="124.5166" x="84.041" y="71.5332">Project Config Page</text></g><g class="participant participant-tail" data-participant="Page"><rect fill="#E2E2F0" height="31.6094" rx="2.5" ry="2.5" style="stroke:#181818;stroke-width:0.5;" width="138.5166" x="77.041" y="908.5859"/><text fill="#000000" font-family="sans-serif" font-size="14" lengthAdjust="spacing" textLength="124.5166" x="84.041" y="930.1191">Project Config Page</text></g><g class="participant participant-head" data-participant="Bridge"><rect fill="#E2E2F0" height="31.6094" rx="2.5" ry="2.5" style="stroke:#181818;stroke-width:0.5;" width="176.6201" x="375.3779" y="50"/><text fill="#000000" font-family="sans-serif" font-size="14" lengthAdjust="spacing" textLength="162.6201" x="382.3779" y="71.5332">WorkspaceRuntimeBridge</text></g><g class="participant participant-tail" data-participant="Bridge"><rect fill="#E2E2F0" height="31.6094" rx="2.5" ry="2.5" style="stroke:#181818;stroke-width:0.5;" width="176.6201" x="375.3779" y="908.5859"/><text fill="#000000" font-family="sans-serif" font-size="14" lengthAdjust="spacing" textLength="162.6201" x="382.3779" y="930.1191">WorkspaceRuntimeBridge</text></g><g class="participant participant-head" data-participant="Editor"><rect fill="#E2E2F0" height="31.6094" rx="2.5" ry="2.5" style="stroke:#181818;stroke-width:0.5;" width="137.7236" x="561.998" y="50"/><text fill="#000000" font-family="sans-serif" font-size="14" lengthAdjust="spacing" textLength="123.7236" x="568.998" y="71.5332">ConfigEditorService</text></g><g class="participant participant-tail" data-participant="Editor"><rect fill="#E2E2F0" height="31.6094" rx="2.5" ry="2.5" style="stroke:#181818;stroke-width:0.5;" width="137.7236" x="561.998" y="908.5859"/><text fill="#000000" font-family="sans-serif" font-size="14" lengthAdjust="spacing" textLength="123.7236" x="568.998" y="930.1191">ConfigEditorService</text></g><g class="participant participant-head" data-participant="Saver"><rect fill="#E2E2F0" height="31.6094" rx="2.5" ry="2.5" style="stroke:#181818;stroke-width:0.5;" width="133.0615" x="709.7217" y="50"/><text fill="#000000" font-family="sans-serif" font-size="14" lengthAdjust="spacing" textLength="119.0615" x="716.7217" y="71.5332">ConfigSaveService</text></g><g class="participant participant-tail" data-participant="Saver"><rect fill="#E2E2F0" height="31.6094" rx="2.5" ry="2.5" style="stroke:#181818;stroke-width:0.5;" width="133.0615" x="709.7217" y="908.5859"/><text fill="#000000" font-family="sans-serif" font-size="14" lengthAdjust="spacing" textLength="119.0615" x="716.7217" y="930.1191">ConfigSaveService</text></g><g class="participant participant-head" data-participant="Reader"><rect fill="#E2E2F0" height="31.6094" rx="2.5" ry="2.5" style="stroke:#181818;stroke-width:0.5;" width="171.9648" x="852.7832" y="50"/><text fill="#000000" font-family="sans-serif" font-size="14" lengthAdjust="spacing" textLength="157.9648" x="859.7832" y="71.5332">RawProjectConfigReader</text></g><g class="participant participant-tail" data-participant="Reader"><rect fill="#E2E2F0" height="31.6094" rx="2.5" ry="2.5" style="stroke:#181818;stroke-width:0.5;" width="171.9648" x="852.7832" y="908.5859"/><text fill="#000000" font-family="sans-serif" font-size="14" lengthAdjust="spacing" textLength="157.9648" x="859.7832" y="930.1191">RawProjectConfigReader</text></g><g class="participant participant-head" data-participant="Disk"><rect fill="#E2E2F0" height="31.6094" rx="2.5" ry="2.5" style="stroke:#181818;stroke-width:0.5;" width="78.5723" x="1034.748" y="50"/><text fill="#000000" font-family="sans-serif" font-size="14" lengthAdjust="spacing" textLength="64.5723" x="1041.748" y="71.5332">YAML File</text></g><g class="participant participant-tail" data-participant="Disk"><rect fill="#E2E2F0" height="31.6094" rx="2.5" ry="2.5" style="stroke:#181818;stroke-width:0.5;" width="78.5723" x="1034.748" y="908.5859"/><text fill="#000000" font-family="sans-serif" font-size="14" lengthAdjust="spacing" textLength="64.5723" x="1041.748" y="930.1191">YAML File</text></g><g class="participant participant-head" data-participant="Overlay"><rect fill="#E2E2F0" height="31.6094" rx="2.5" ry="2.5" style="stroke:#181818;stroke-width:0.5;" width="200.7373" x="1123.3203" y="50"/><text fill="#000000" font-family="sans-serif" font-size="14" lengthAdjust="spacing" textLength="186.7373" x="1130.3203" y="71.5332">LiveHardwareOverlayProvider</text></g><g class="participant participant-tail" data-participant="Overlay"><rect fill="#E2E2F0" height="31.6094" rx="2.5" ry="2.5" style="stroke:#181818;stroke-width:0.5;" width="200.7373" x="1123.3203" y="908.5859"/><text fill="#000000" font-family="sans-serif" font-size="14" lengthAdjust="spacing" textLength="186.7373" x="1130.3203" y="930.1191">LiveHardwareOverlayProvider</text></g><g class="participant participant-head" data-participant="Runtime"><rect fill="#E2E2F0" height="31.6094" rx="2.5" ry="2.5" style="stroke:#181818;stroke-width:0.5;" width="99.5928" x="1334.0576" y="50"/><text fill="#000000" font-family="sans-serif" font-size="14" lengthAdjust="spacing" textLength="85.5928" x="1341.0576" y="71.5332">Runtime Data</text></g><g class="participant participant-tail" data-participant="Runtime"><rect fill="#E2E2F0" height="31.6094" rx="2.5" ry="2.5" style="stroke:#181818;stroke-width:0.5;" width="99.5928" x="1334.0576" y="908.5859"/><text fill="#000000" font-family="sans-serif" font-size="14" lengthAdjust="spacing" textLength="85.5928" x="1341.0576" y="930.1191">Runtime Data</text></g><g class="message" data-participant-1="Engineer" data-participant-2="Page"><polygon fill="#181818" points="134.2993,110.9609,144.2993,114.9609,134.2993,118.9609,138.2993,114.9609" style="stroke:#181818;stroke-width:1;"/><line style="stroke:#181818;stroke-width:1;" x1="36.0205" x2="140.2993" y1="114.9609" y2="114.9609"/><text fill="#000000" font-family="sans-serif" font-size="13" lengthAdjust="spacing" textLength="64.3335" x="43.0205" y="110.1045">Open page</text></g><g class="message" data-participant-1="Page" data-participant-2="Bridge"><polygon fill="#181818" points="451.688,141.3125,461.688,145.3125,451.688,149.3125,455.688,145.3125" style="stroke:#181818;stroke-width:1;"/><line style="stroke:#181818;stroke-width:1;" x1="146.2993" x2="457.688" y1="145.3125" y2="145.3125"/><text fill="#000000" font-family="sans-serif" font-size="13" lengthAdjust="spacing" textLength="151.0361" x="153.2993" y="140.4561">get_config_editor_model()</text></g><g class="message" data-participant-1="Bridge" data-participant-2="Reader"><polygon fill="#181818" points="926.7656,171.6641,936.7656,175.6641,926.7656,179.6641,930.7656,175.6641" style="stroke:#181818;stroke-width:1;"/><line style="stroke:#181818;stroke-width:1;" x1="463.688" x2="932.7656" y1="175.6641" y2="175.6641"/><text fill="#000000" font-family="sans-serif" font-size="13" lengthAdjust="spacing" textLength="33.2363" x="470.688" y="170.8076">load()</text></g><g class="message" data-participant-1="Reader" data-participant-2="Disk"><polygon fill="#181818" points="1062.0342,202.0156,1072.0342,206.0156,1062.0342,210.0156,1066.0342,206.0156" style="stroke:#181818;stroke-width:1;"/><line style="stroke:#181818;stroke-width:1;" x1="938.7656" x2="1068.0342" y1="206.0156" y2="206.0156"/><text fill="#000000" font-family="sans-serif" font-size="13" lengthAdjust="spacing" textLength="65.0317" x="945.7656" y="201.1592">read YAML</text></g><g class="message" data-participant-1="Disk" data-participant-2="Reader"><polygon fill="#181818" points="949.7656,232.3672,939.7656,236.3672,949.7656,240.3672,945.7656,236.3672" style="stroke:#181818;stroke-width:1;"/><line style="stroke:#181818;stroke-width:1;stroke-dasharray:2,2;" x1="943.7656" x2="1073.0342" y1="236.3672" y2="236.3672"/><text fill="#000000" font-family="sans-serif" font-size="13" lengthAdjust="spacing" textLength="49.8608" x="955.7656" y="231.5107">raw data</text></g><g class="message" data-participant-1="Reader" data-participant-2="Bridge"><polygon fill="#181818" points="474.688,262.7188,464.688,266.7188,474.688,270.7188,470.688,266.7188" style="stroke:#181818;stroke-width:1;"/><line style="stroke:#181818;stroke-width:1;stroke-dasharray:2,2;" x1="468.688" x2="937.7656" y1="266.7188" y2="266.7188"/><text fill="#000000" font-family="sans-serif" font-size="13" lengthAdjust="spacing" textLength="49.8608" x="480.688" y="261.8623">raw data</text></g><g class="message" data-participant-1="Bridge" data-participant-2="Editor"><polygon fill="#181818" points="618.8599,293.0703,628.8599,297.0703,618.8599,301.0703,622.8599,297.0703" style="stroke:#181818;stroke-width:1;"/><line style="stroke:#181818;stroke-width:1;" x1="463.688" x2="624.8599" y1="297.0703" y2="297.0703"/><text fill="#000000" font-family="sans-serif" font-size="13" lengthAdjust="spacing" textLength="102.6162" x="470.688" y="292.2139">build editor model</text></g><g class="message" data-participant-1="Editor" data-participant-2="Bridge"><polygon fill="#181818" points="474.688,323.4219,464.688,327.4219,474.688,331.4219,470.688,327.4219" style="stroke:#181818;stroke-width:1;"/><line style="stroke:#181818;stroke-width:1;stroke-dasharray:2,2;" x1="468.688" x2="629.8599" y1="327.4219" y2="327.4219"/><text fill="#000000" font-family="sans-serif" font-size="13" lengthAdjust="spacing" textLength="106.9453" x="480.688" y="322.5654">ConfigEditorModel</text></g><g class="message" data-participant-1="Bridge" data-participant-2="Page"><polygon fill="#181818" points="157.2993,353.7734,147.2993,357.7734,157.2993,361.7734,153.2993,357.7734" style="stroke:#181818;stroke-width:1;"/><line style="stroke:#181818;stroke-width:1;stroke-dasharray:2,2;" x1="151.2993" x2="462.688" y1="357.7734" y2="357.7734"/><text fill="#000000" font-family="sans-serif" font-size="13" lengthAdjust="spacing" textLength="96.8398" x="163.2993" y="352.917">editable sections</text></g><g class="message" data-participant-1="Page" data-participant-2="Bridge"><polygon fill="#181818" points="451.688,384.125,461.688,388.125,451.688,392.125,455.688,388.125" style="stroke:#181818;stroke-width:1;"/><line style="stroke:#181818;stroke-width:1;" x1="146.2993" x2="457.688" y1="388.125" y2="388.125"/><text fill="#000000" font-family="sans-serif" font-size="13" lengthAdjust="spacing" textLength="170.5298" x="153.2993" y="383.2686">get_live_hardware_overlays()</text></g><g class="message" data-participant-1="Bridge" data-participant-2="Overlay"><polygon fill="#181818" points="1211.689,414.4766,1221.689,418.4766,1211.689,422.4766,1215.689,418.4766" style="stroke:#181818;stroke-width:1;"/><line style="stroke:#181818;stroke-width:1;" x1="463.688" x2="1217.689" y1="418.4766" y2="418.4766"/><text fill="#000000" font-family="sans-serif" font-size="13" lengthAdjust="spacing" textLength="117.0508" x="470.688" y="413.6201">collect_live_values()</text></g><g class="message" data-participant-1="Overlay" data-participant-2="Runtime"><polygon fill="#181818" points="1371.854,444.8281,1381.854,448.8281,1371.854,452.8281,1375.854,448.8281" style="stroke:#181818;stroke-width:1;"/><line style="stroke:#181818;stroke-width:1;" x1="1223.689" x2="1377.854" y1="448.8281" y2="448.8281"/><text fill="#000000" font-family="sans-serif" font-size="13" lengthAdjust="spacing" textLength="104.7744" x="1230.689" y="443.9717">read runtime state</text></g><g class="message" data-participant-1="Runtime" data-participant-2="Overlay"><polygon fill="#181818" points="1234.689,475.1797,1224.689,479.1797,1234.689,483.1797,1230.689,479.1797" style="stroke:#181818;stroke-width:1;"/><line style="stroke:#181818;stroke-width:1;stroke-dasharray:2,2;" x1="1228.689" x2="1382.854" y1="479.1797" y2="479.1797"/><text fill="#000000" font-family="sans-serif" font-size="13" lengthAdjust="spacing" textLength="60.6963" x="1240.689" y="474.3232">live values</text></g><g class="message" data-participant-1="Overlay" data-participant-2="Bridge"><polygon fill="#181818" points="474.688,505.5313,464.688,509.5313,474.688,513.5313,470.688,509.5313" style="stroke:#181818;stroke-width:1;"/><line style="stroke:#181818;stroke-width:1;stroke-dasharray:2,2;" x1="468.688" x2="1222.689" y1="509.5313" y2="509.5313"/><text fill="#000000" font-family="sans-serif" font-size="13" lengthAdjust="spacing" textLength="135.8145" x="480.688" y="504.6748">mismatch-only overlays</text></g><g class="message" data-participant-1="Bridge" data-participant-2="Page"><polygon fill="#181818" points="157.2993,535.8828,147.2993,539.8828,157.2993,543.8828,153.2993,539.8828" style="stroke:#181818;stroke-width:1;"/><line style="stroke:#181818;stroke-width:1;stroke-dasharray:2,2;" x1="151.2993" x2="462.688" y1="539.8828" y2="539.8828"/><text fill="#000000" font-family="sans-serif" font-size="13" lengthAdjust="spacing" textLength="214.5825" x="163.2993" y="535.0264">Actual indicators for mismatches only</text></g><g class="message" data-participant-1="Engineer" data-participant-2="Page"><polygon fill="#181818" points="134.2993,566.2344,144.2993,570.2344,134.2993,574.2344,138.2993,570.2344" style="stroke:#181818;stroke-width:1;"/><line style="stroke:#181818;stroke-width:1;" x1="36.0205" x2="140.2993" y1="570.2344" y2="570.2344"/><text fill="#000000" font-family="sans-serif" font-size="13" lengthAdjust="spacing" textLength="82.3926" x="43.0205" y="565.3779">Save changes</text></g><g class="message" data-participant-1="Page" data-participant-2="Bridge"><polygon fill="#181818" points="451.688,596.5859,461.688,600.5859,451.688,604.5859,455.688,600.5859" style="stroke:#181818;stroke-width:1;"/><line style="stroke:#181818;stroke-width:1;" x1="146.2993" x2="457.688" y1="600.5859" y2="600.5859"/><text fill="#000000" font-family="sans-serif" font-size="13" lengthAdjust="spacing" textLength="293.3887" x="153.2993" y="595.7295">save_config_changes(payload, version, confirmed)</text></g><g class="message" data-participant-1="Bridge" data-participant-2="Editor"><polygon fill="#181818" points="618.8599,626.9375,628.8599,630.9375,618.8599,634.9375,622.8599,630.9375" style="stroke:#181818;stroke-width:1;"/><line style="stroke:#181818;stroke-width:1;" x1="463.688" x2="624.8599" y1="630.9375" y2="630.9375"/><text fill="#000000" font-family="sans-serif" font-size="13" lengthAdjust="spacing" textLength="131.5298" x="470.688" y="626.0811">apply_edit_payload(...)</text></g><g class="message" data-participant-1="Bridge" data-participant-2="Saver"><polygon fill="#181818" points="764.2524,657.2891,774.2524,661.2891,764.2524,665.2891,768.2524,661.2891" style="stroke:#181818;stroke-width:1;"/><line style="stroke:#181818;stroke-width:1;" x1="463.688" x2="770.2524" y1="661.2891" y2="661.2891"/><text fill="#000000" font-family="sans-serif" font-size="13" lengthAdjust="spacing" textLength="98.9917" x="470.688" y="656.4326">prepare_save(...)</text></g><path d="M67.041,676.2891 L127.2119,676.2891 L127.2119,684.6406 L117.2119,694.6406 L67.041,694.6406 L67.041,676.2891" fill="#EEEEEE" style="stroke:#000000;stroke-width:1.5;"/><rect fill="none" height="216.2969" style="stroke:#000000;stroke-width:1.5;" width="1056.2793" x="67.041" y="676.2891"/><text fill="#000000" font-family="sans-serif" font-size="13" font-weight="bold" lengthAdjust="spacing" textLength="15.1709" x="82.041" y="690.7842">alt</text><text fill="#000000" font-family="sans-serif" font-size="11" font-weight="bold" lengthAdjust="spacing" textLength="108.1792" x="142.2119" y="689.708">[version unchanged]</text><g class="message" data-participant-1="Saver" data-participant-2="Bridge"><polygon fill="#181818" points="474.688,712.9922,464.688,716.9922,474.688,720.9922,470.688,716.9922" style="stroke:#181818;stroke-width:1;"/><line style="stroke:#181818;stroke-width:1;stroke-dasharray:2,2;" x1="468.688" x2="775.2524" y1="716.9922" y2="716.9922"/><text fill="#000000" font-family="sans-serif" font-size="13" lengthAdjust="spacing" textLength="185.6943" x="480.688" y="712.1357">SavePlan(requires confirmation)</text></g><g class="message" data-participant-1="Bridge" data-participant-2="Page"><polygon fill="#181818" points="157.2993,743.3438,147.2993,747.3438,157.2993,751.3438,153.2993,747.3438" style="stroke:#181818;stroke-width:1;"/><line style="stroke:#181818;stroke-width:1;stroke-dasharray:2,2;" x1="151.2993" x2="462.688" y1="747.3438" y2="747.3438"/><text fill="#000000" font-family="sans-serif" font-size="13" lengthAdjust="spacing" textLength="122.1162" x="163.2993" y="742.4873">confirmation required</text></g><line style="stroke:#000000;stroke-width:1;stroke-dasharray:2,2;" x1="67.041" x2="1123.3203" y1="756.3438" y2="756.3438"/><text fill="#000000" font-family="sans-serif" font-size="11" font-weight="bold" lengthAdjust="spacing" textLength="78.8638" x="72.041" y="767.7627">[version ready]</text><g class="message" data-participant-1="Saver" data-participant-2="Disk"><polygon fill="#181818" points="1062.0342,789.5313,1072.0342,793.5313,1062.0342,797.5313,1066.0342,793.5313" style="stroke:#181818;stroke-width:1;"/><line style="stroke:#181818;stroke-width:1;" x1="776.2524" x2="1068.0342" y1="793.5313" y2="793.5313"/><text fill="#000000" font-family="sans-serif" font-size="13" lengthAdjust="spacing" textLength="220.3906" x="783.2524" y="788.6748">write &lt;project_name&gt;_&lt;version&gt;.yaml</text></g><g class="message" data-participant-1="Disk" data-participant-2="Saver"><polygon fill="#181818" points="787.2524,819.8828,777.2524,823.8828,787.2524,827.8828,783.2524,823.8828" style="stroke:#181818;stroke-width:1;"/><line style="stroke:#181818;stroke-width:1;stroke-dasharray:2,2;" x1="781.2524" x2="1073.0342" y1="823.8828" y2="823.8828"/><text fill="#000000" font-family="sans-serif" font-size="13" lengthAdjust="spacing" textLength="34.6899" x="793.2524" y="819.0264">saved</text></g><g class="message" data-participant-1="Saver" data-participant-2="Bridge"><polygon fill="#181818" points="474.688,850.2344,464.688,854.2344,474.688,858.2344,470.688,854.2344" style="stroke:#181818;stroke-width:1;"/><line style="stroke:#181818;stroke-width:1;stroke-dasharray:2,2;" x1="468.688" x2="775.2524" y1="854.2344" y2="854.2344"/><text fill="#000000" font-family="sans-serif" font-size="13" lengthAdjust="spacing" textLength="66.479" x="480.688" y="849.3779">SaveResult</text></g><g class="message" data-participant-1="Bridge" data-participant-2="Page"><polygon fill="#181818" points="157.2993,880.5859,147.2993,884.5859,157.2993,888.5859,153.2993,884.5859" style="stroke:#181818;stroke-width:1;"/><line style="stroke:#181818;stroke-width:1;stroke-dasharray:2,2;" x1="151.2993" x2="462.688" y1="884.5859" y2="884.5859"/><text fill="#000000" font-family="sans-serif" font-size="13" lengthAdjust="spacing" textLength="235.1997" x="163.2993" y="879.7295">saved path + refresh (YAML values only)</text></g><!--SRC=[VLHDRzim3BtxLn0z9LYJ7p0K0Rgrmmuj6gI7OIU3bPX4gonhafp0_txKXnExDNQpoCV7nqV9A4BhuD4Sb25obKKNb50MJO2RhMl_a0ZmlJLxTO0j7kW6qAUFAV9NwzwzHK6xpWJLq3UdP07dpoay4pvAnRrVoPsKoDWScSE-ued6o7Z-0DpXkGZE9Jj2IIwXy-SK_ll- -Gb-A9tv7fH_d-QVr8b-efDdTFJ2pJJsJ7zI0sU9VT2GnuS739Wxvq1L3Gx3QfFyWw_mOic0ZLwc02UoLvmwKAX5cgAcv4dTj9BqObaL28FpK0pMBKhEb3DduZ0STno0E6QL0gjnZSCpI1PvgHftloIlpV9cEFVMAIqXYu8agYgv2SLumyy9DN1Tvuya-AO9FEzCjSPNyqPetaHzBAkes-oxdtXHbi45ejMQwNBH2NL74JdaemLbHSKVLuu-OA1gIAucd94BCjULQQooKRx188whrkWU1eKp8z-BqA46PQGIoDPus4SRIpbvY0IpboLUU117D0SMySacpzdXmXJGmc8VRyOji1pFzjv20hY6v79kisYjxjDrgqlfOhrUZw7fqJ7IEh9n5R5hng0EGnleJ5OWAoWL4wzYQAlHB1pzxPJZcOiiZ7TWoKMVRHiZeDJ9YhIdIzUupFxQyV88pau5WZkR_mormOOszLsfsgnxR3HNNHx8C68SxJy3xCXtEingJPNyhCCHlh2gFKzuX4Nws-Ghb7QyhCZ8Vm00]--></g></svg>