<svg xmlns="http://www.w3.org/2000/svg" xmlns:xlink="http://www.w3.org/1999/xlink" contentStyleType="text/css" data-diagram-type="DESCRIPTION" height="462px" preserveAspectRatio="none" style="width:931px;height:462px;background:#FFFFFF;" version="1.1" viewBox="0 0 931 462" width="931px" zoomAndPan="magnify"><defs/><g><!--entity Selector--><g class="entity" data-entity="Selector" data-source-line="3" data-uid="ent0002" id="entity_Selector"><rect fill="#F1F1F1" height="37.6094" rx="2.5" ry="2.5" style="stroke:#181818;stroke-width:0.5;" width="174.834" x="46" y="7"/><text fill="#000000" font-family="sans-serif" font-size="14" lengthAdjust="spacing" textLength="154.834" x="56" y="31.5332">ProgramSelectorWindow</text></g><!--entity Loader--><g class="entity" data-entity="Loader" data-source-line="4" data-uid="ent0003" id="entity_Loader"><rect fill="#F1F1F1" height="37.6094" rx="2.5" ry="2.5" style="stroke:#181818;stroke-width:0.5;" width="108.7236" x="7" y="301"/><text fill="#000000" font-family="sans-serif" font-size="14" lengthAdjust="spacing" textLength="88.7236" x="17" y="325.5332">project_loader</text></g><!--entity Schema--><g class="entity" data-entity="Schema" data-source-line="5" data-uid="ent0004" id="entity_Schema"><rect fill="#F1F1F1" height="37.6094" rx="2.5" ry="2.5" style="stroke:#181818;stroke-width:0.5;" width="160.8613" x="62" y="403.5"/><text fill="#000000" font-family="sans-serif" font-size="14" lengthAdjust="spacing" textLength="140.8613" x="72" y="428.0332">ConfigSchemaAdapter</text></g><!--entity Shell--><g class="entity" data-entity="Shell" data-source-line="6" data-uid="ent0005" id="entity_Shell"><rect fill="#F1F1F1" height="37.6094" rx="2.5" ry="2.5" style="stroke:#181818;stroke-width:0.5;" width="183.3857" x="115" y="105"/><text fill="#000000" font-family="sans-serif" font-size="14" lengthAdjust="spacing" textLength="163.3857" x="125" y="129.5332">ProjectWorkspaceWindow</text></g><!--entity Bridge--><g class="entity" data-entity="Bridge" data-source-line="7" data-uid="ent0006" id="entity_Bridge"><rect fill="#F1F1F1" height="37.6094" rx="2.5" ry="2.5" style="stroke:#181818;stroke-width:0.5;" width="182.6201" x="311" y="203"/><text fill="#000000" font-family="sans-serif" font-size="14" lengthAdjust="spacing" textLength="162.6201" x="321" y="227.5332">WorkspaceRuntimeBridge</text></g><!--entity Editor--><g class="entity" data-entity="Editor" data-source-line="8" data-uid="ent0007" id="entity_Editor"><rect fill="#F1F1F1" height="37.6094" rx="2.5" ry="2.5" style="stroke:#181818;stroke-width:0.5;" width="143.7236" x="151.5" y="301"/><text fill="#000000" font-family="sans-serif" font-size="14" lengthAdjust="spacing" textLength="123.7236" x="161.5" y="325.5332">ConfigEditorService</text></g><!--entity Saver--><g class="entity" data-entity="Saver" data-source-line="9" data-uid="ent0008" id="entity_Saver"><rect fill="#F1F1F1" height="37.6094" rx="2.5" ry="2.5" style="stroke:#181818;stroke-width:0.5;" width="139.0615" x="331" y="301"/><text fill="#000000" font-family="sans-serif" font-size="14" lengthAdjust="spacing" textLength="119.0615" x="341" y="325.5332">ConfigSaveService</text></g><!--entity Reader--><g class="entity" data-entity="Reader" data-source-line="10" data-uid="ent0009" id="entity_Reader"><rect fill="#F1F1F1" height="37.6094" rx="2.5" ry="2.5" style="stroke:#181818;stroke-width:0.5;" width="177.9648" x="505.5" y="301"/><text fill="#000000" font-family="sans-serif" font-size="14" lengthAdjust="spacing" textLength="157.9648" x="515.5" y="325.5332">RawProjectConfigReader</text></g><!--entity Overlay--><g class="entity" data-entity="Overlay" data-source-line="11" data-uid="ent0010" id="entity_Overlay"><rect fill="#F1F1F1" height="37.6094" rx="2.5" ry="2.5" style="stroke:#181818;stroke-width:0.5;" width="206.7373" x="719" y="301"/><text fill="#000000" font-family="sans-serif" font-size="14" lengthAdjust="spacing" textLength="186.7373" x="729" y="325.5332">LiveHardwareOverlayProvider</text></g><!--entity Page--><g class="entity" data-entity="Page" data-source-line="12" data-uid="ent0011" id="entity_Page"><rect fill="#F1F1F1" height="37.6094" rx="2.5" ry="2.5" style="stroke:#181818;stroke-width:0.5;" width="144.5166" x="333" y="105"/><text fill="#000000" font-family="sans-serif" font-size="14" lengthAdjust="spacing" textLength="124.5166" x="343" y="129.5332">Project Config Page</text></g><!--entity Disk--><g class="entity" data-entity="Disk" data-source-line="13" data-uid="ent0012" id="entity_Disk"><path d="M354.5,409 C354.5,399 400.2861,399 400.2861,399 C400.2861,399 446.0723,399 446.0723,409 L446.0723,435.6094 C446.0723,445.6094 400.2861,445.6094 400.2861,445.6094 C400.2861,445.6094 354.5,445.6094 354.5,435.6094 L354.5,409" fill="#F1F1F1" style="stroke:#181818;stroke-width:0.5;"/><path d="M354.5,409 C354.5,419 400.2861,419 400.2861,419 C400.2861,419 446.0723,419 446.0723,409" fill="none" style="stroke:#181818;stroke-width:0.5;"/><text fill="#000000" font-family="sans-serif" font-size="14" lengthAdjust="spacing" textLength="71.5723" x="364.5" y="437.5332">YAML Files</text></g><!--entity Runtime--><g class="entity" data-entity="Runtime" data-source-line="14" data-uid="ent0013" id="entity_Runtime"><rect fill="#F1F1F1" height="37.6094" rx="2.5" ry="2.5" style="stroke:#181818;stroke-width:0.5;" width="135.165" x="755" y="403.5"/><text fill="#000000" font-family="sans-serif" font-size="14" lengthAdjust="spacing" textLength="115.165" x="765" y="428.0332">Runtime Live Data</text></g><!--link Selector to Loader--><g class="link" data-entity-1="Selector" data-entity-2="Loader" data-source-line="16" data-uid="lnk14" id="link_Selector_Loader"><path d="M123.49,45.05 C115.33,60.52 104.1,83.62 97.5,105 C75.71,175.55 66.7033,257.5429 63.4333,294.8929" fill="none" id="Selector-to-Loader" style="stroke:#181818;stroke-width:1;"/><polygon fill="#181818" points="62.91,300.87,67.6797,292.2532,63.3461,295.8891,59.7102,291.5554,62.91,300.87" style="stroke:#181818;stroke-width:1;"/></g><!--link Loader to Schema--><g class="link" data-entity-1="Loader" data-entity-2="Schema" data-source-line="17" data-uid="lnk15" id="link_Loader_Schema"><path d="M76.36,339.43 C90.97,357.57 109.3948,380.4184 123.9748,398.5084" fill="none" id="Loader-to-Schema" style="stroke:#181818;stroke-width:1;"/><polygon fill="#181818" points="127.74,403.18,125.2067,393.6625,124.6024,399.287,118.9779,398.6827,127.74,403.18" style="stroke:#181818;stroke-width:1;"/></g><!--link Loader to Disk--><g class="link" data-entity-1="Loader" data-entity-2="Disk" data-source-line="18" data-uid="lnk16" id="link_Loader_Disk"><path d="M116.34,337.26 C182.49,356.87 286.7476,387.7742 348.6976,406.1442" fill="none" id="Loader-to-Disk" style="stroke:#181818;stroke-width:1;"/><polygon fill="#181818" points="354.45,407.85,346.9585,401.4564,349.6563,406.4285,344.6842,409.1263,354.45,407.85" style="stroke:#181818;stroke-width:1;"/></g><!--link Selector to Shell--><g class="link" data-entity-1="Selector" data-entity-2="Shell" data-source-line="19" data-uid="lnk17" id="link_Selector_Shell"><path d="M147.23,45.06 C160.2,62.11 175.9189,82.7835 188.9489,99.9235" fill="none" id="Selector-to-Shell" style="stroke:#181818;stroke-width:1;"/><polygon fill="#181818" points="192.58,104.7,190.3176,95.1145,189.5541,100.7196,183.949,99.956,192.58,104.7" style="stroke:#181818;stroke-width:1;"/></g><!--link Shell to Bridge--><g class="link" data-entity-1="Shell" data-entity-2="Bridge" data-source-line="20" data-uid="lnk18" id="link_Shell_Bridge"><path d="M243.37,143.06 C278.3,160.17 325.0911,183.0918 360.0811,200.2218" fill="none" id="Shell-to-Bridge" style="stroke:#181818;stroke-width:1;"/><polygon fill="#181818" points="365.47,202.86,359.1455,195.3101,360.9793,200.6615,355.6279,202.4952,365.47,202.86" style="stroke:#181818;stroke-width:1;"/></g><!--link Bridge to Reader--><g class="link" data-entity-1="Bridge" data-entity-2="Reader" data-source-line="21" data-uid="lnk19" id="link_Bridge_Reader"><path d="M438.61,241.06 C472.83,258.17 518.5831,281.0473 552.8531,298.1773" fill="none" id="Bridge-to-Reader" style="stroke:#181818;stroke-width:1;"/><polygon fill="#181818" points="558.22,300.86,551.9581,293.2581,553.7476,298.6245,548.3812,300.4139,558.22,300.86" style="stroke:#181818;stroke-width:1;"/></g><!--link Reader to Disk--><g class="link" data-entity-1="Reader" data-entity-2="Disk" data-source-line="22" data-uid="lnk20" id="link_Reader_Disk"><path d="M559.37,339.2 C527.05,355.94 484.3271,378.0692 449.5371,396.0992" fill="none" id="Reader-to-Disk" style="stroke:#181818;stroke-width:1;"/><polygon fill="#181818" points="444.21,398.86,454.0412,398.2702,448.6493,396.5593,450.3601,391.1674,444.21,398.86" style="stroke:#181818;stroke-width:1;"/></g><!--link Bridge to Editor--><g class="link" data-entity-1="Bridge" data-entity-2="Editor" data-source-line="23" data-uid="lnk21" id="link_Bridge_Editor"><path d="M368.83,241.06 C336.93,258.17 294.5579,280.8949 262.6079,298.0249" fill="none" id="Bridge-to-Editor" style="stroke:#181818;stroke-width:1;"/><polygon fill="#181818" points="257.32,300.86,267.142,300.1326,261.7266,298.4974,263.3618,293.082,257.32,300.86" style="stroke:#181818;stroke-width:1;"/></g><!--link Bridge to Saver--><g class="link" data-entity-1="Bridge" data-entity-2="Saver" data-source-line="24" data-uid="lnk22" id="link_Bridge_Saver"><path d="M402.12,241.06 C401.77,258.11 401.366,277.5613 401.006,294.7013" fill="none" id="Bridge-to-Saver" style="stroke:#181818;stroke-width:1;"/><polygon fill="#181818" points="400.88,300.7,405.0681,291.786,400.985,295.7011,397.0699,291.618,400.88,300.7" style="stroke:#181818;stroke-width:1;"/></g><!--link Editor to Schema--><g class="link" data-entity-1="Editor" data-entity-2="Schema" data-source-line="25" data-uid="lnk23" id="link_Editor_Schema"><path d="M208.64,339.43 C194.03,357.57 175.6052,380.4184 161.0252,398.5084" fill="none" id="Editor-to-Schema" style="stroke:#181818;stroke-width:1;"/><polygon fill="#181818" points="157.26,403.18,166.0221,398.6827,160.3976,399.287,159.7933,393.6625,157.26,403.18" style="stroke:#181818;stroke-width:1;"/></g><!--link Page to Bridge--><g class="link" data-entity-1="Page" data-entity-2="Bridge" data-source-line="26" data-uid="lnk24" id="link_Page_Bridge"><path d="M404.94,143.06 C404.4,160.11 403.7989,179.563 403.2589,196.703" fill="none" id="Page-to-Bridge" style="stroke:#181818;stroke-width:1;"/><polygon fill="#181818" points="403.07,202.7,407.3514,193.8304,403.2274,197.7025,399.3554,193.5785,403.07,202.7" style="stroke:#181818;stroke-width:1;"/></g><!--link Bridge to Overlay--><g class="link" data-entity-1="Bridge" data-entity-2="Overlay" data-source-line="27" data-uid="lnk25" id="link_Bridge_Overlay"><path d="M481.5,241.06 C556.47,258.19 662.6807,282.4735 737.6507,299.6035" fill="none" id="Bridge-to-Overlay" style="stroke:#181818;stroke-width:1;"/><polygon fill="#181818" points="743.5,300.94,735.6171,295.0357,738.6256,299.8262,733.8351,302.8347,743.5,300.94" style="stroke:#181818;stroke-width:1;"/></g><!--link Overlay to Runtime--><g class="link" data-entity-1="Overlay" data-entity-2="Runtime" data-source-line="28" data-uid="lnk26" id="link_Overlay_Runtime"><path d="M822.5,339.43 C822.5,357.57 822.5,379.09 822.5,397.18" fill="none" id="Overlay-to-Runtime" style="stroke:#181818;stroke-width:1;"/><polygon fill="#181818" points="822.5,403.18,826.5,394.18,822.5,398.18,818.5,394.18,822.5,403.18" style="stroke:#181818;stroke-width:1;"/></g><!--link Saver to Disk--><g class="link" data-entity-1="Saver" data-entity-2="Disk" data-source-line="29" data-uid="lnk27" id="link_Saver_Disk"><path d="M400.5,339.43 C400.5,356.21 400.5,375.01 400.5,392.96" fill="none" id="Saver-to-Disk" style="stroke:#181818;stroke-width:1;"/><polygon fill="#181818" points="400.5,398.96,404.5,389.96,400.5,393.96,396.5,389.96,400.5,398.96" style="stroke:#181818;stroke-width:1;"/></g><!--SRC=[TL71JiCm3BttAwpUzmj8OmDnA69g3nCdP1hJXQP9bOPM-tlIE2qfZ4lil3pRByz3AtMF5ZkeJTSRJTfLxge8BDKETQCeozONo4_MD9vSaVBFnfwb5cRA0GTOe9JTM_FfmJTbK90Dj2AaAUbWz8Tiglf27Uu5zYuo6VarV6vtDhOTUgmfdNuXfLBkIYg_j9CTtLif6WfSJlzAU13Iww_8Zh9c9YCtnE98AM- -RsWbJb4i5vIq6i1fIYxaI4zenOIMNdmZXLTVFCgb8c8td03k3YUCNvkJJA33Tnm8yjVzSm6FKj4GNezoQ3SgsHgO1S3HLx50HhDisIZiTdVBtZW49EudGKB_JHMl9PpX7gtd491e1uUVBWaZBY51s6x6Kodpx_yPitWO8u-E7mtjrj7V]--></g></svg>