<svg xmlns="http://www.w3.org/2000/svg" xmlns:xlink="http://www.w3.org/1999/xlink" contentStyleType="text/css" data-diagram-type="CLASS" height="720px" preserveAspectRatio="none" style="width:645px;height:720px;background:#FFFFFF;" version="1.1" viewBox="0 0 645 720" width="645px" zoomAndPan="magnify"><defs/><g><!--class ProjectDefinition--><g class="entity" data-entity="ProjectDefinition" data-source-line="1" data-uid="ent0002" id="entity_ProjectDefinition"><rect fill="#F1F1F1" height="153.6563" rx="2.5" ry="2.5" style="stroke:#181818;stroke-width:0.5;" width="169.1855" x="7" y="363"/><ellipse cx="37.8616" cy="379" fill="#ADD1B2" rx="11" ry="11" style="stroke:#181818;stroke-width:1;"/><path d="M40.6272,374.875 Q40.7835,374.6563 40.971,374.5469 Q41.1585,374.4375 41.3772,374.4375 Q41.7522,374.4375 41.9866,374.7031 Q42.221,374.9531 42.221,375.5625 L42.221,377.0156 Q42.221,377.625 41.9866,377.8906 Q41.7522,378.1563 41.3772,378.1563 Q41.0335,378.1563 40.8304,377.9531 Q40.6272,377.7656 40.5179,377.25 Q40.471,376.8906 40.2835,376.7031 Q39.9554,376.3281 39.346,376.1094 Q38.7366,375.8906 38.1116,375.8906 Q37.346,375.8906 36.7054,376.2188 Q36.0804,376.5469 35.5804,377.2969 Q35.096,378.0469 35.096,379.0781 L35.096,380.1719 Q35.096,381.4063 35.9866,382.2344 Q36.8772,383.0469 38.471,383.0469 Q39.4085,383.0469 40.0647,382.7969 Q40.4554,382.6406 40.8772,382.2031 Q41.1429,381.9375 41.2835,381.8594 Q41.4397,381.7813 41.6429,381.7813 Q41.971,381.7813 42.221,382.0469 Q42.4866,382.2969 42.4866,382.6406 Q42.4866,382.9844 42.1429,383.3906 Q41.6429,383.9688 40.846,384.2969 Q39.7679,384.75 38.471,384.75 Q36.9554,384.75 35.7522,384.125 Q34.7679,383.625 34.0804,382.5625 Q33.3929,381.4844 33.3929,380.2031 L33.3929,379.0469 Q33.3929,377.7188 34.0022,376.5781 Q34.6272,375.4219 35.721,374.8125 Q36.8147,374.1875 38.0491,374.1875 Q38.7835,374.1875 39.4241,374.3594 Q40.0804,374.5156 40.6272,374.875 Z " fill="#000000"/><text fill="#000000" font-family="sans-serif" font-size="14" lengthAdjust="spacing" textLength="101.9375" x="55.3864" y="384.7285">ProjectDefinition</text><line style="stroke:#181818;stroke-width:0.5;" x1="8" x2="175.1855" y1="395" y2="395"/><text fill="#000000" font-family="sans-serif" font-size="14" lengthAdjust="spacing" textLength="58.3516" x="13" y="413.5332">name: str</text><text fill="#000000" font-family="sans-serif" font-size="14" lengthAdjust="spacing" textLength="109.7168" x="13" y="431.1426">display_name: str</text><text fill="#000000" font-family="sans-serif" font-size="14" lengthAdjust="spacing" textLength="108.9717" x="13" y="448.752">config_path: Path</text><text fill="#000000" font-family="sans-serif" font-size="14" lengthAdjust="spacing" textLength="149.1465" x="13" y="466.3613">system_axes: int | None</text><text fill="#000000" font-family="sans-serif" font-size="14" lengthAdjust="spacing" textLength="157.1855" x="13" y="483.9707">features: ProjectFeatures</text><text fill="#000000" font-family="sans-serif" font-size="14" lengthAdjust="spacing" textLength="115.9375" x="13" y="501.5801">ui: ProjectUiConfig</text><line style="stroke:#181818;stroke-width:0.5;" x1="8" x2="175.1855" y1="508.6563" y2="508.6563"/></g><!--class ConfigDocument--><g class="entity" data-entity="ConfigDocument" data-source-line="10" data-uid="ent0003" id="entity_ConfigDocument"><rect fill="#F1F1F1" height="118.4375" rx="2.5" ry="2.5" style="stroke:#181818;stroke-width:0.5;" width="136.2754" x="23.5" y="185"/><ellipse cx="38.5" cy="201" fill="#ADD1B2" rx="11" ry="11" style="stroke:#181818;stroke-width:1;"/><path d="M41.2656,196.875 Q41.4219,196.6563 41.6094,196.5469 Q41.7969,196.4375 42.0156,196.4375 Q42.3906,196.4375 42.625,196.7031 Q42.8594,196.9531 42.8594,197.5625 L42.8594,199.0156 Q42.8594,199.625 42.625,199.8906 Q42.3906,200.1563 42.0156,200.1563 Q41.6719,200.1563 41.4688,199.9531 Q41.2656,199.7656 41.1563,199.25 Q41.1094,198.8906 40.9219,198.7031 Q40.5938,198.3281 39.9844,198.1094 Q39.375,197.8906 38.75,197.8906 Q37.9844,197.8906 37.3438,198.2188 Q36.7188,198.5469 36.2188,199.2969 Q35.7344,200.0469 35.7344,201.0781 L35.7344,202.1719 Q35.7344,203.4063 36.625,204.2344 Q37.5156,205.0469 39.1094,205.0469 Q40.0469,205.0469 40.7031,204.7969 Q41.0938,204.6406 41.5156,204.2031 Q41.7813,203.9375 41.9219,203.8594 Q42.0781,203.7813 42.2813,203.7813 Q42.6094,203.7813 42.8594,204.0469 Q43.125,204.2969 43.125,204.6406 Q43.125,204.9844 42.7813,205.3906 Q42.2813,205.9688 41.4844,206.2969 Q40.4063,206.75 39.1094,206.75 Q37.5938,206.75 36.3906,206.125 Q35.4063,205.625 34.7188,204.5625 Q34.0313,203.4844 34.0313,202.2031 L34.0313,201.0469 Q34.0313,199.7188 34.6406,198.5781 Q35.2656,197.4219 36.3594,196.8125 Q37.4531,196.1875 38.6875,196.1875 Q39.4219,196.1875 40.0625,196.3594 Q40.7188,196.5156 41.2656,196.875 Z " fill="#000000"/><text fill="#000000" font-family="sans-serif" font-size="14" lengthAdjust="spacing" textLength="104.2754" x="52.5" y="206.7285">ConfigDocument</text><line style="stroke:#181818;stroke-width:0.5;" x1="24.5" x2="158.7754" y1="217" y2="217"/><text fill="#000000" font-family="sans-serif" font-size="14" lengthAdjust="spacing" textLength="87.1582" x="29.5" y="235.5332">raw_data: dict</text><text fill="#000000" font-family="sans-serif" font-size="14" lengthAdjust="spacing" textLength="113.6338" x="29.5" y="253.1426">source_path: Path</text><text fill="#000000" font-family="sans-serif" font-size="14" lengthAdjust="spacing" textLength="108.1582" x="29.5" y="270.752">project_name: str</text><text fill="#000000" font-family="sans-serif" font-size="14" lengthAdjust="spacing" textLength="113.3467" x="29.5" y="288.3613">version: str | None</text><line style="stroke:#181818;stroke-width:0.5;" x1="24.5" x2="158.7754" y1="295.4375" y2="295.4375"/></g><!--class ConfigEditorModel--><g class="entity" data-entity="ConfigEditorModel" data-source-line="17" data-uid="ent0004" id="entity_ConfigEditorModel"><rect fill="#F1F1F1" height="118.4375" rx="2.5" ry="2.5" style="stroke:#181818;stroke-width:0.5;" width="221.3232" x="202" y="7"/><ellipse cx="250.8257" cy="23" fill="#ADD1B2" rx="11" ry="11" style="stroke:#181818;stroke-width:1;"/><path d="M253.5913,18.875 Q253.7476,18.6563 253.9351,18.5469 Q254.1226,18.4375 254.3413,18.4375 Q254.7163,18.4375 254.9507,18.7031 Q255.1851,18.9531 255.1851,19.5625 L255.1851,21.0156 Q255.1851,21.625 254.9507,21.8906 Q254.7163,22.1563 254.3413,22.1563 Q253.9976,22.1563 253.7944,21.9531 Q253.5913,21.7656 253.4819,21.25 Q253.4351,20.8906 253.2476,20.7031 Q252.9194,20.3281 252.3101,20.1094 Q251.7007,19.8906 251.0757,19.8906 Q250.3101,19.8906 249.6694,20.2188 Q249.0444,20.5469 248.5444,21.2969 Q248.0601,22.0469 248.0601,23.0781 L248.0601,24.1719 Q248.0601,25.4063 248.9507,26.2344 Q249.8413,27.0469 251.4351,27.0469 Q252.3726,27.0469 253.0288,26.7969 Q253.4194,26.6406 253.8413,26.2031 Q254.1069,25.9375 254.2476,25.8594 Q254.4038,25.7813 254.6069,25.7813 Q254.9351,25.7813 255.1851,26.0469 Q255.4507,26.2969 255.4507,26.6406 Q255.4507,26.9844 255.1069,27.3906 Q254.6069,27.9688 253.8101,28.2969 Q252.7319,28.75 251.4351,28.75 Q249.9194,28.75 248.7163,28.125 Q247.7319,27.625 247.0444,26.5625 Q246.3569,25.4844 246.3569,24.2031 L246.3569,23.0469 Q246.3569,21.7188 246.9663,20.5781 Q247.5913,19.4219 248.6851,18.8125 Q249.7788,18.1875 251.0132,18.1875 Q251.7476,18.1875 252.3882,18.3594 Q253.0444,18.5156 253.5913,18.875 Z " fill="#000000"/><text fill="#000000" font-family="sans-serif" font-size="14" lengthAdjust="spacing" textLength="115.1719" x="271.3257" y="28.7285">ConfigEditorModel</text><line style="stroke:#181818;stroke-width:0.5;" x1="203" x2="422.3232" y1="39" y2="39"/><text fill="#000000" font-family="sans-serif" font-size="14" lengthAdjust="spacing" textLength="209.3232" x="208" y="57.5332">sections: list[ConfigSectionModel]</text><text fill="#000000" font-family="sans-serif" font-size="14" lengthAdjust="spacing" textLength="113.6338" x="208" y="75.1426">source_path: Path</text><text fill="#000000" font-family="sans-serif" font-size="14" lengthAdjust="spacing" textLength="108.1582" x="208" y="92.752">project_name: str</text><text fill="#000000" font-family="sans-serif" font-size="14" lengthAdjust="spacing" textLength="113.3467" x="208" y="110.3613">version: str | None</text><line style="stroke:#181818;stroke-width:0.5;" x1="203" x2="422.3232" y1="117.4375" y2="117.4375"/></g><!--class ConfigSectionModel--><g class="entity" data-entity="ConfigSectionModel" data-source-line="24" data-uid="ent0005" id="entity_ConfigSectionModel"><rect fill="#F1F1F1" height="100.8281" rx="2.5" ry="2.5" style="stroke:#181818;stroke-width:0.5;" width="186.2959" x="219.5" y="193.5"/><ellipse cx="247.55" cy="209.5" fill="#ADD1B2" rx="11" ry="11" style="stroke:#181818;stroke-width:1;"/><path d="M250.3156,205.375 Q250.4719,205.1563 250.6594,205.0469 Q250.8469,204.9375 251.0656,204.9375 Q251.4406,204.9375 251.675,205.2031 Q251.9094,205.4531 251.9094,206.0625 L251.9094,207.5156 Q251.9094,208.125 251.675,208.3906 Q251.4406,208.6563 251.0656,208.6563 Q250.7219,208.6563 250.5188,208.4531 Q250.3156,208.2656 250.2063,207.75 Q250.1594,207.3906 249.9719,207.2031 Q249.6438,206.8281 249.0344,206.6094 Q248.425,206.3906 247.8,206.3906 Q247.0344,206.3906 246.3938,206.7188 Q245.7688,207.0469 245.2688,207.7969 Q244.7844,208.5469 244.7844,209.5781 L244.7844,210.6719 Q244.7844,211.9063 245.675,212.7344 Q246.5656,213.5469 248.1594,213.5469 Q249.0969,213.5469 249.7531,213.2969 Q250.1438,213.1406 250.5656,212.7031 Q250.8313,212.4375 250.9719,212.3594 Q251.1281,212.2813 251.3313,212.2813 Q251.6594,212.2813 251.9094,212.5469 Q252.175,212.7969 252.175,213.1406 Q252.175,213.4844 251.8313,213.8906 Q251.3313,214.4688 250.5344,214.7969 Q249.4563,215.25 248.1594,215.25 Q246.6438,215.25 245.4406,214.625 Q244.4563,214.125 243.7688,213.0625 Q243.0813,211.9844 243.0813,210.7031 L243.0813,209.5469 Q243.0813,208.2188 243.6906,207.0781 Q244.3156,205.9219 245.4094,205.3125 Q246.5031,204.6875 247.7375,204.6875 Q248.4719,204.6875 249.1125,204.8594 Q249.7688,205.0156 250.3156,205.375 Z " fill="#000000"/><text fill="#000000" font-family="sans-serif" font-size="14" lengthAdjust="spacing" textLength="125.2959" x="264.45" y="215.2285">ConfigSectionModel</text><line style="stroke:#181818;stroke-width:0.5;" x1="220.5" x2="404.7959" y1="225.5" y2="225.5"/><text fill="#000000" font-family="sans-serif" font-size="14" lengthAdjust="spacing" textLength="97.2617" x="225.5" y="244.0332">section_key: str</text><text fill="#000000" font-family="sans-serif" font-size="14" lengthAdjust="spacing" textLength="45.1172" x="225.5" y="261.6426">title: str</text><text fill="#000000" font-family="sans-serif" font-size="14" lengthAdjust="spacing" textLength="174.2959" x="225.5" y="279.252">fields: list[ConfigFieldModel]</text><line style="stroke:#181818;stroke-width:0.5;" x1="220.5" x2="404.7959" y1="286.3281" y2="286.3281"/></g><!--class ConfigFieldModel--><g class="entity" data-entity="ConfigFieldModel" data-source-line="30" data-uid="ent0006" id="entity_ConfigFieldModel"><rect fill="#F1F1F1" height="153.6563" rx="2.5" ry="2.5" style="stroke:#181818;stroke-width:0.5;" width="202.6406" x="211" y="363"/><ellipse cx="253.7633" cy="379" fill="#ADD1B2" rx="11" ry="11" style="stroke:#181818;stroke-width:1;"/><path d="M256.529,374.875 Q256.6852,374.6563 256.8727,374.5469 Q257.0602,374.4375 257.279,374.4375 Q257.654,374.4375 257.8883,374.7031 Q258.1227,374.9531 258.1227,375.5625 L258.1227,377.0156 Q258.1227,377.625 257.8883,377.8906 Q257.654,378.1563 257.279,378.1563 Q256.9352,378.1563 256.7321,377.9531 Q256.529,377.7656 256.4196,377.25 Q256.3727,376.8906 256.1852,376.7031 Q255.8571,376.3281 255.2477,376.1094 Q254.6383,375.8906 254.0133,375.8906 Q253.2477,375.8906 252.6071,376.2188 Q251.9821,376.5469 251.4821,377.2969 Q250.9977,378.0469 250.9977,379.0781 L250.9977,380.1719 Q250.9977,381.4063 251.8883,382.2344 Q252.779,383.0469 254.3727,383.0469 Q255.3102,383.0469 255.9665,382.7969 Q256.3571,382.6406 256.779,382.2031 Q257.0446,381.9375 257.1852,381.8594 Q257.3415,381.7813 257.5446,381.7813 Q257.8727,381.7813 258.1227,382.0469 Q258.3883,382.2969 258.3883,382.6406 Q258.3883,382.9844 258.0446,383.3906 Q257.5446,383.9688 256.7477,384.2969 Q255.6696,384.75 254.3727,384.75 Q252.8571,384.75 251.654,384.125 Q250.6696,383.625 249.9821,382.5625 Q249.2946,381.4844 249.2946,380.2031 L249.2946,379.0469 Q249.2946,377.7188 249.904,376.5781 Q250.529,375.4219 251.6227,374.8125 Q252.7165,374.1875 253.9508,374.1875 Q254.6852,374.1875 255.3258,374.3594 Q255.9821,374.5156 256.529,374.875 Z " fill="#000000"/><text fill="#000000" font-family="sans-serif" font-size="14" lengthAdjust="spacing" textLength="108.9443" x="273.933" y="384.7285">ConfigFieldModel</text><line style="stroke:#181818;stroke-width:0.5;" x1="212" x2="412.6406" y1="395" y2="395"/><text fill="#000000" font-family="sans-serif" font-size="14" lengthAdjust="spacing" textLength="50.5791" x="217" y="413.5332">path: str</text><text fill="#000000" font-family="sans-serif" font-size="14" lengthAdjust="spacing" textLength="52.9102" x="217" y="431.1426">label: str</text><text fill="#000000" font-family="sans-serif" font-size="14" lengthAdjust="spacing" textLength="78.6064" x="217" y="448.752">value: object</text><text fill="#000000" font-family="sans-serif" font-size="14" lengthAdjust="spacing" textLength="91.0479" x="217" y="466.3613">value_type: str</text><text fill="#000000" font-family="sans-serif" font-size="14" lengthAdjust="spacing" textLength="83.2891" x="217" y="483.9707">editable: bool</text><text fill="#000000" font-family="sans-serif" font-size="14" lengthAdjust="spacing" textLength="190.6406" x="217" y="501.5801">children: list[ConfigFieldModel]</text><line style="stroke:#181818;stroke-width:0.5;" x1="212" x2="412.6406" y1="508.6563" y2="508.6563"/></g><!--class LiveHardwareFieldValue--><g class="entity" data-entity="LiveHardwareFieldValue" data-source-line="39" data-uid="ent0007" id="entity_LiveHardwareFieldValue"><rect fill="#F1F1F1" height="136.0469" rx="2.5" ry="2.5" style="stroke:#181818;stroke-width:0.5;" width="184.5234" x="220" y="577"/><ellipse cx="235" cy="593" fill="#ADD1B2" rx="11" ry="11" style="stroke:#181818;stroke-width:1;"/><path d="M237.7656,588.875 Q237.9219,588.6563 238.1094,588.5469 Q238.2969,588.4375 238.5156,588.4375 Q238.8906,588.4375 239.125,588.7031 Q239.3594,588.9531 239.3594,589.5625 L239.3594,591.0156 Q239.3594,591.625 239.125,591.8906 Q238.8906,592.1563 238.5156,592.1563 Q238.1719,592.1563 237.9688,591.9531 Q237.7656,591.7656 237.6563,591.25 Q237.6094,590.8906 237.4219,590.7031 Q237.0938,590.3281 236.4844,590.1094 Q235.875,589.8906 235.25,589.8906 Q234.4844,589.8906 233.8438,590.2188 Q233.2188,590.5469 232.7188,591.2969 Q232.2344,592.0469 232.2344,593.0781 L232.2344,594.1719 Q232.2344,595.4063 233.125,596.2344 Q234.0156,597.0469 235.6094,597.0469 Q236.5469,597.0469 237.2031,596.7969 Q237.5938,596.6406 238.0156,596.2031 Q238.2813,595.9375 238.4219,595.8594 Q238.5781,595.7813 238.7813,595.7813 Q239.1094,595.7813 239.3594,596.0469 Q239.625,596.2969 239.625,596.6406 Q239.625,596.9844 239.2813,597.3906 Q238.7813,597.9688 237.9844,598.2969 Q236.9063,598.75 235.6094,598.75 Q234.0938,598.75 232.8906,598.125 Q231.9063,597.625 231.2188,596.5625 Q230.5313,595.4844 230.5313,594.2031 L230.5313,593.0469 Q230.5313,591.7188 231.1406,590.5781 Q231.7656,589.4219 232.8594,588.8125 Q233.9531,588.1875 235.1875,588.1875 Q235.9219,588.1875 236.5625,588.3594 Q237.2188,588.5156 237.7656,588.875 Z " fill="#000000"/><text fill="#000000" font-family="sans-serif" font-size="14" lengthAdjust="spacing" textLength="152.5234" x="249" y="598.7285">LiveHardwareFieldValue</text><line style="stroke:#181818;stroke-width:0.5;" x1="221" x2="403.5234" y1="609" y2="609"/><text fill="#000000" font-family="sans-serif" font-size="14" lengthAdjust="spacing" textLength="50.5791" x="226" y="627.5332">path: str</text><text fill="#000000" font-family="sans-serif" font-size="14" lengthAdjust="spacing" textLength="52.9102" x="226" y="645.1426">label: str</text><text fill="#000000" font-family="sans-serif" font-size="14" lengthAdjust="spacing" textLength="78.6064" x="226" y="662.752">value: object</text><text fill="#000000" font-family="sans-serif" font-size="14" lengthAdjust="spacing" textLength="91.0342" x="226" y="680.3613">status_text: str</text><text fill="#000000" font-family="sans-serif" font-size="14" lengthAdjust="spacing" textLength="110.5166" x="226" y="697.9707">highlight_tone: str</text><line style="stroke:#181818;stroke-width:0.5;" x1="221" x2="403.5234" y1="705.0469" y2="705.0469"/></g><!--class SavePlan--><g class="entity" data-entity="SavePlan" data-source-line="47" data-uid="ent0008" id="entity_SavePlan"><rect fill="#F1F1F1" height="118.4375" rx="2.5" ry="2.5" style="stroke:#181818;stroke-width:0.5;" width="180.8682" x="458" y="7"/><ellipse cx="514.2188" cy="23" fill="#ADD1B2" rx="11" ry="11" style="stroke:#181818;stroke-width:1;"/><path d="M516.9844,18.875 Q517.1406,18.6563 517.3281,18.5469 Q517.5156,18.4375 517.7344,18.4375 Q518.1094,18.4375 518.3438,18.7031 Q518.5781,18.9531 518.5781,19.5625 L518.5781,21.0156 Q518.5781,21.625 518.3438,21.8906 Q518.1094,22.1563 517.7344,22.1563 Q517.3906,22.1563 517.1875,21.9531 Q516.9844,21.7656 516.875,21.25 Q516.8281,20.8906 516.6406,20.7031 Q516.3125,20.3281 515.7031,20.1094 Q515.0938,19.8906 514.4688,19.8906 Q513.7031,19.8906 513.0625,20.2188 Q512.4375,20.5469 511.9375,21.2969 Q511.4531,22.0469 511.4531,23.0781 L511.4531,24.1719 Q511.4531,25.4063 512.3438,26.2344 Q513.2344,27.0469 514.8281,27.0469 Q515.7656,27.0469 516.4219,26.7969 Q516.8125,26.6406 517.2344,26.2031 Q517.5,25.9375 517.6406,25.8594 Q517.7969,25.7813 518,25.7813 Q518.3281,25.7813 518.5781,26.0469 Q518.8438,26.2969 518.8438,26.6406 Q518.8438,26.9844 518.5,27.3906 Q518,27.9688 517.2031,28.2969 Q516.125,28.75 514.8281,28.75 Q513.3125,28.75 512.1094,28.125 Q511.125,27.625 510.4375,26.5625 Q509.75,25.4844 509.75,24.2031 L509.75,23.0469 Q509.75,21.7188 510.3594,20.5781 Q510.9844,19.4219 512.0781,18.8125 Q513.1719,18.1875 514.4063,18.1875 Q515.1406,18.1875 515.7813,18.3594 Q516.4375,18.5156 516.9844,18.875 Z " fill="#000000"/><text fill="#000000" font-family="sans-serif" font-size="14" lengthAdjust="spacing" textLength="59.9307" x="534.7188" y="28.7285">SavePlan</text><line style="stroke:#181818;stroke-width:0.5;" x1="459" x2="637.8682" y1="39" y2="39"/><text fill="#000000" font-family="sans-serif" font-size="14" lengthAdjust="spacing" textLength="112.0479" x="464" y="57.5332">target_version: str</text><text fill="#000000" font-family="sans-serif" font-size="14" lengthAdjust="spacing" textLength="107.4131" x="464" y="75.1426">target_path: Path</text><text fill="#000000" font-family="sans-serif" font-size="14" lengthAdjust="spacing" textLength="168.8682" x="464" y="92.752">requires_confirmation: bool</text><text fill="#000000" font-family="sans-serif" font-size="14" lengthAdjust="spacing" textLength="102.71" x="464" y="110.3613">warning_text: str</text><line style="stroke:#181818;stroke-width:0.5;" x1="459" x2="637.8682" y1="117.4375" y2="117.4375"/></g><!--class SaveResult--><g class="entity" data-entity="SaveResult" data-source-line="54" data-uid="ent0009" id="entity_SaveResult"><rect fill="#F1F1F1" height="100.8281" rx="2.5" ry="2.5" style="stroke:#181818;stroke-width:0.5;" width="125.6064" x="28.5" y="15.5"/><ellipse cx="53.4062" cy="31.5" fill="#ADD1B2" rx="11" ry="11" style="stroke:#181818;stroke-width:1;"/><path d="M56.1718,27.375 Q56.328,27.1563 56.5155,27.0469 Q56.703,26.9375 56.9218,26.9375 Q57.2968,26.9375 57.5312,27.2031 Q57.7655,27.4531 57.7655,28.0625 L57.7655,29.5156 Q57.7655,30.125 57.5312,30.3906 Q57.2968,30.6563 56.9218,30.6563 Q56.578,30.6563 56.3749,30.4531 Q56.1718,30.2656 56.0624,29.75 Q56.0155,29.3906 55.828,29.2031 Q55.4999,28.8281 54.8905,28.6094 Q54.2812,28.3906 53.6562,28.3906 Q52.8905,28.3906 52.2499,28.7188 Q51.6249,29.0469 51.1249,29.7969 Q50.6405,30.5469 50.6405,31.5781 L50.6405,32.6719 Q50.6405,33.9063 51.5312,34.7344 Q52.4218,35.5469 54.0155,35.5469 Q54.953,35.5469 55.6093,35.2969 Q55.9999,35.1406 56.4218,34.7031 Q56.6874,34.4375 56.828,34.3594 Q56.9843,34.2813 57.1874,34.2813 Q57.5155,34.2813 57.7655,34.5469 Q58.0312,34.7969 58.0312,35.1406 Q58.0312,35.4844 57.6874,35.8906 Q57.1874,36.4688 56.3905,36.7969 Q55.3124,37.25 54.0155,37.25 Q52.4999,37.25 51.2968,36.625 Q50.3124,36.125 49.6249,35.0625 Q48.9374,33.9844 48.9374,32.7031 L48.9374,31.5469 Q48.9374,30.2188 49.5468,29.0781 Q50.1718,27.9219 51.2655,27.3125 Q52.3593,26.6875 53.5937,26.6875 Q54.328,26.6875 54.9687,26.8594 Q55.6249,27.0156 56.1718,27.375 Z " fill="#000000"/><text fill="#000000" font-family="sans-serif" font-size="14" lengthAdjust="spacing" textLength="71.5928" x="69.6075" y="37.2285">SaveResult</text><line style="stroke:#181818;stroke-width:0.5;" x1="29.5" x2="153.1064" y1="47.5" y2="47.5"/><text fill="#000000" font-family="sans-serif" font-size="14" lengthAdjust="spacing" textLength="108.9717" x="34.5" y="66.0332">saved_path: Path</text><text fill="#000000" font-family="sans-serif" font-size="14" lengthAdjust="spacing" textLength="113.6064" x="34.5" y="83.6426">saved_version: str</text><text fill="#000000" font-family="sans-serif" font-size="14" lengthAdjust="spacing" textLength="80.1377" x="34.5" y="101.252">message: str</text><line style="stroke:#181818;stroke-width:0.5;" x1="29.5" x2="153.1064" y1="108.3281" y2="108.3281"/></g><!--reverse link ConfigEditorModel to ConfigSectionModel--><g class="link" data-entity-1="ConfigEditorModel" data-entity-2="ConfigSectionModel" data-source-line="60" data-uid="lnk10" id="link_ConfigEditorModel_ConfigSectionModel"><path codeLine="60" d="M312.5,137.12 C312.5,159.24 312.5,172.23 312.5,193.49" fill="none" id="ConfigEditorModel-backto-ConfigSectionModel" style="stroke:#181818;stroke-width:1;"/><polygon fill="none" points="312.5,125.12,308.5,131.12,312.5,137.12,316.5,131.12,312.5,125.12" style="stroke:#181818;stroke-width:1;"/><text fill="#000000" font-family="sans-serif" font-size="13" lengthAdjust="spacing" textLength="7.23" x="305.0678" y="146.7901">1</text><text fill="#000000" font-family="sans-serif" font-size="13" lengthAdjust="spacing" textLength="5.0591" x="307.1318" y="182.794">*</text></g><!--reverse link ConfigSectionModel to ConfigFieldModel--><g class="link" data-entity-1="ConfigSectionModel" data-entity-2="ConfigFieldModel" data-source-line="61" data-uid="lnk11" id="link_ConfigSectionModel_ConfigFieldModel"><path codeLine="61" d="M312.5,306.71 C312.5,327.36 312.5,339.81 312.5,362.65" fill="none" id="ConfigSectionModel-backto-ConfigFieldModel" style="stroke:#181818;stroke-width:1;"/><polygon fill="none" points="312.5,294.71,308.5,300.71,312.5,306.71,316.5,300.71,312.5,294.71" style="stroke:#181818;stroke-width:1;"/><text fill="#000000" font-family="sans-serif" font-size="13" lengthAdjust="spacing" textLength="7.23" x="305.0473" y="315.7609">1</text><text fill="#000000" font-family="sans-serif" font-size="13" lengthAdjust="spacing" textLength="5.0591" x="307.2817" y="352.0433">*</text></g><!--link ConfigFieldModel to LiveHardwareFieldValue--><g class="link" data-entity-1="ConfigFieldModel" data-entity-2="LiveHardwareFieldValue" data-source-line="62" data-uid="lnk12" id="link_ConfigFieldModel_LiveHardwareFieldValue"><path codeLine="62" d="M312.5,517.17 C312.5,536.74 312.5,551.66 312.5,570.75" fill="none" id="ConfigFieldModel-to-LiveHardwareFieldValue" style="stroke:#181818;stroke-width:1;"/><polygon fill="#181818" points="312.5,576.75,316.5,567.75,312.5,571.75,308.5,567.75,312.5,576.75" style="stroke:#181818;stroke-width:1;"/><text fill="#000000" font-family="sans-serif" font-size="13" lengthAdjust="spacing" textLength="21.6836" x="290.6113" y="538.2815">0..1</text></g><!--link ConfigDocument to ProjectDefinition--><g class="link" data-entity-1="ConfigDocument" data-entity-2="ProjectDefinition" data-source-line="63" data-uid="lnk13" id="link_ConfigDocument_ProjectDefinition"><path codeLine="63" d="M91.5,303.21 C91.5,321.96 91.5,337.02 91.5,356.87" fill="none" id="ConfigDocument-to-ProjectDefinition" style="stroke:#181818;stroke-width:1;"/><polygon fill="#181818" points="91.5,362.87,95.5,353.87,91.5,357.87,87.5,353.87,91.5,362.87" style="stroke:#181818;stroke-width:1;"/></g><!--link SaveResult to ConfigDocument--><g class="link" data-entity-1="SaveResult" data-entity-2="ConfigDocument" data-source-line="64" data-uid="lnk14" id="link_SaveResult_ConfigDocument"><path codeLine="64" d="M91.5,116.96 C91.5,138.1 91.5,156.87 91.5,178.82" fill="none" id="SaveResult-to-ConfigDocument" style="stroke:#181818;stroke-width:1;"/><polygon fill="#181818" points="91.5,184.82,95.5,175.82,91.5,179.82,87.5,175.82,91.5,184.82" style="stroke:#181818;stroke-width:1;"/></g><!--SRC=[hLInRjim4Dtr5OJ60WxQrKENf467f31gj4iG46VfB5zBaIvvScAa_VSSILkMv0H1W0uInCUxzzw9JweCXA0Mtlt2YgzmJPQOd5LFXL8MMfohm5wUQmfR0tizn2fdrzJeBV1chXPo5opi0sEhuH73N95bzLTzSnPbPut0dO_mGUtw0CXUHptwWouJRV6lAAfaBg-lNDMrA8JHcOS7NGF3N7nL76LTvoiSMzbcmf7b7VeWuwNbqTf4w4jDxFojgz4ahI0SqYA-3GM-oqNB3AQg-_-hFwGU6j2_SN-aOMBJSwu9JJssTnsXWxa9_MahaMV7cSZ02atl54md4cuLPpYkDU-tlIxAYu9LzB5opiGyRCZK7ktRLcveXr_1rm_WCHNyZEplCnHOuXCquoCVIpRKR8nSh5bUR4PxpINiS64WHvl1DyXwU1mdT7IA7lzq92dLAUs-1KuDXv5b04ks6RWOwNt7q9aSsI3BUlAj96ZYeSKGe3cPFmzb-QbKRZPJvOVoXSWKBwJelEDqAiLPBCgF5nVIC9jzVkMSYiaN6IlF_Y35OFvOCEvv1W00]--></g></svg>