<svg xmlns="http://www.w3.org/2000/svg" xmlns:xlink="http://www.w3.org/1999/xlink" contentStyleType="text/css" data-diagram-type="DESCRIPTION" height="769px" preserveAspectRatio="none" style="width:439px;height:769px;background:#FFFFFF;" version="1.1" viewBox="0 0 439 769" width="439px" zoomAndPan="magnify"><title>REQ-002 Workspace Shell And Role Pages - Use Cases</title><defs/><g><g class="title" data-source-line="1"><text fill="#000000" font-family="sans-serif" font-size="14" font-weight="bold" lengthAdjust="spacing" textLength="368.0264" x="28.4868" y="24.5332">REQ-002 Workspace Shell And Role Pages - Use Cases</text></g><!--cluster Phase 2 Workspace--><g class="cluster" data-entity="Phase 2 Workspace" data-source-line="8" data-uid="ent0004" id="cluster_Phase 2 Workspace"><rect fill="none" height="718" rx="2.5" ry="2.5" style="stroke:#181818;stroke-width:1;" width="212" x="221" y="45.6094"/><text fill="#000000" font-family="sans-serif" font-size="14" font-weight="bold" lengthAdjust="spacing" textLength="131.5098" x="261.2451" y="62.1426">Phase 2 Workspace</text></g><!--entity UC1--><g class="entity" data-entity="UC1" data-source-line="9" data-uid="ent0005" id="entity_UC1"><ellipse cx="326.778" cy="546.4194" fill="#F1F1F1" rx="79.278" ry="26.81" style="stroke:#181818;stroke-width:0.5;"/><text fill="#000000" font-family="sans-serif" font-size="14" lengthAdjust="spacing" textLength="90.2822" x="281.6369" y="541.3358">Open selected</text><text fill="#000000" font-family="sans-serif" font-size="14" lengthAdjust="spacing" textLength="112.8271" x="270.3644" y="558.9452">project workspace</text></g><!--entity UC2--><g class="entity" data-entity="UC2" data-source-line="10" data-uid="ent0006" id="entity_UC2"><ellipse cx="326.8457" cy="721.5007" fill="#F1F1F1" rx="77.8457" ry="25.8914" style="stroke:#181818;stroke-width:0.5;"/><text fill="#000000" font-family="sans-serif" font-size="14" lengthAdjust="spacing" textLength="115.1514" x="269.27" y="720.984">Navigate first-level</text><text fill="#000000" font-family="sans-serif" font-size="14" lengthAdjust="spacing" textLength="65.3789" x="294.1562" y="738.5933">role pages</text></g><!--entity UC3--><g class="entity" data-entity="UC3" data-source-line="11" data-uid="ent0007" id="entity_UC3"><ellipse cx="327.1366" cy="107.7914" fill="#F1F1F1" rx="72.1366" ry="26.182" style="stroke:#181818;stroke-width:0.5;"/><text fill="#000000" font-family="sans-serif" font-size="14" lengthAdjust="spacing" textLength="105.0342" x="274.6195" y="106.8238">Review overview</text><text fill="#000000" font-family="sans-serif" font-size="14" lengthAdjust="spacing" textLength="68.4551" x="292.9091" y="124.4331">summaries</text></g><!--entity UC4--><g class="entity" data-entity="UC4" data-source-line="12" data-uid="ent0008" id="entity_UC4"><ellipse cx="326.7781" cy="194.8419" fill="#F1F1F1" rx="69.2781" ry="25.7325" style="stroke:#181818;stroke-width:0.5;"/><text fill="#000000" font-family="sans-serif" font-size="14" lengthAdjust="spacing" textLength="102.6826" x="275.4367" y="194.575">Access firmware</text><text fill="#000000" font-family="sans-serif" font-size="14" lengthAdjust="spacing" textLength="52.917" x="300.3196" y="212.1844">modules</text></g><!--entity UC5--><g class="entity" data-entity="UC5" data-source-line="13" data-uid="ent0009" id="entity_UC5"><ellipse cx="327.1802" cy="280.6467" fill="#F1F1F1" rx="79.6802" ry="25.5373" style="stroke:#181818;stroke-width:0.5;"/><text fill="#000000" font-family="sans-serif" font-size="14" lengthAdjust="spacing" textLength="119.8271" x="267.2667" y="280.6905">Access mechanical</text><text fill="#000000" font-family="sans-serif" font-size="14" lengthAdjust="spacing" textLength="52.917" x="300.7217" y="298.2999">modules</text></g><!--entity UC6--><g class="entity" data-entity="UC6" data-source-line="14" data-uid="ent0010" id="entity_UC6"><ellipse cx="327.2197" cy="369.4357" fill="#F1F1F1" rx="90.2197" ry="27.8263" style="stroke:#181818;stroke-width:0.5;"/><text fill="#000000" font-family="sans-serif" font-size="14" lengthAdjust="spacing" textLength="123.7305" x="265.3544" y="366.0449">Access application /</text><text fill="#000000" font-family="sans-serif" font-size="14" lengthAdjust="spacing" textLength="122.1855" x="266.1269" y="383.6543">production modules</text></g><!--entity UC7--><g class="entity" data-entity="UC7" data-source-line="15" data-uid="ent0011" id="entity_UC7"><ellipse cx="326.9766" cy="458.5914" fill="#F1F1F1" rx="66.9766" ry="25.982" style="stroke:#181818;stroke-width:0.5;"/><text fill="#000000" font-family="sans-serif" font-size="14" lengthAdjust="spacing" textLength="98.041" x="277.9561" y="457.9332">Review settings</text><text fill="#000000" font-family="sans-serif" font-size="14" lengthAdjust="spacing" textLength="58.3721" x="297.7906" y="475.5425">metadata</text></g><!--entity UC8--><g class="entity" data-entity="UC8" data-source-line="16" data-uid="ent0012" id="entity_UC8"><ellipse cx="326.9475" cy="634.6557" fill="#F1F1F1" rx="83.4475" ry="26.0463" style="stroke:#181818;stroke-width:0.5;"/><text fill="#000000" font-family="sans-serif" font-size="14" lengthAdjust="spacing" textLength="122.9375" x="265.4787" y="633.8975">Monitor live session</text><text fill="#000000" font-family="sans-serif" font-size="14" lengthAdjust="spacing" textLength="75.5029" x="289.196" y="651.5069">and console</text></g><!--entity User--><g class="entity" data-entity="User" data-source-line="5" data-uid="ent0002" id="entity_User"><ellipse cx="65.7861" cy="358.1094" fill="#F1F1F1" rx="8" ry="8" style="stroke:#181818;stroke-width:0.5;"/><path d="M65.7861,366.1094 L65.7861,393.1094 M52.7861,374.1094 L78.7861,374.1094 M65.7861,393.1094 L52.7861,408.1094 M65.7861,393.1094 L78.7861,408.1094" fill="none" style="stroke:#181818;stroke-width:0.5;"/><text fill="#000000" font-family="sans-serif" font-size="14" lengthAdjust="spacing" textLength="85.5723" x="23" y="424.1426">Platform User</text></g><!--entity Developer--><g class="entity" data-entity="Developer" data-source-line="6" data-uid="ent0003" id="entity_Developer"><ellipse cx="65.9136" cy="652.1094" fill="#F1F1F1" rx="8" ry="8" style="stroke:#181818;stroke-width:0.5;"/><path d="M65.9136,660.1094 L65.9136,687.1094 M52.9136,668.1094 L78.9136,668.1094 M65.9136,687.1094 L52.9136,702.1094 M65.9136,687.1094 L78.9136,702.1094" fill="none" style="stroke:#181818;stroke-width:0.5;"/><text fill="#000000" font-family="sans-serif" font-size="14" lengthAdjust="spacing" textLength="119.8271" x="6" y="718.1426">Platform Developer</text></g><!--link User to UC1--><g class="link" data-entity-1="User" data-entity-2="UC1" data-source-line="19" data-uid="lnk13" id="link_User_UC1"><path d="M109.15,426.3594 C137.16,450.1294 175.56,480.2294 213,501.6094 C230.7,511.7094 245.5101,518.4451 264.0701,525.5851" fill="none" id="User-to-UC1" style="stroke:#181818;stroke-width:1;"/><polygon fill="#181818" points="269.67,527.7394,262.7063,520.7747,265.0034,525.9441,259.8339,528.2412,269.67,527.7394" style="stroke:#181818;stroke-width:1;"/></g><!--link User to UC2--><g class="link" data-entity-1="User" data-entity-2="UC2" data-source-line="20" data-uid="lnk14" id="link_User_UC2"><path d="M76.4,427.8294 C93.23,489.7394 134.34,610.0194 213,677.6094 C227.61,690.1594 240.5853,697.2806 258.4653,703.9206" fill="none" id="User-to-UC2" style="stroke:#181818;stroke-width:1;"/><polygon fill="#181818" points="264.09,706.0094,257.0455,699.1264,259.4028,704.2687,254.2605,706.6259,264.09,706.0094" style="stroke:#181818;stroke-width:1;"/></g><!--link User to UC3--><g class="link" data-entity-1="User" data-entity-2="UC3" data-source-line="21" data-uid="lnk15" id="link_User_UC3"><path d="M81.38,349.1694 C102.42,296.7594 146.49,204.6194 213,151.6094 C229.05,138.8194 243.6221,131.4046 262.5021,124.6346" fill="none" id="User-to-UC3" style="stroke:#181818;stroke-width:1;"/><polygon fill="#181818" points="268.15,122.6094,258.328,121.882,263.4434,124.2971,261.0283,129.4125,268.15,122.6094" style="stroke:#181818;stroke-width:1;"/></g><!--link User to UC4--><g class="link" data-entity-1="User" data-entity-2="UC4" data-source-line="22" data-uid="lnk16" id="link_User_UC4"><path d="M94.22,349.5394 C120.57,314.7594 163.69,265.2294 213,237.6094 C231.86,227.0494 248.1928,220.0464 267.7228,213.0364" fill="none" id="User-to-UC4" style="stroke:#181818;stroke-width:1;"/><polygon fill="#181818" points="273.37,211.0094,263.5478,210.285,268.664,212.6985,266.2505,217.8147,273.37,211.0094" style="stroke:#181818;stroke-width:1;"/></g><!--link User to UC5--><g class="link" data-entity-1="User" data-entity-2="UC5" data-source-line="23" data-uid="lnk17" id="link_User_UC5"><path d="M106.21,349.5294 C120.79,336.9694 138.14,324.1294 156,315.6094 C185.37,301.5994 214.3007,294.1604 244.7707,289.1104" fill="none" id="User-to-UC5" style="stroke:#181818;stroke-width:1;"/><polygon fill="#181818" points="250.69,288.1294,241.1571,285.6548,245.7573,288.9469,242.4651,293.5471,250.69,288.1294" style="stroke:#181818;stroke-width:1;"/></g><!--link User to UC6--><g class="link" data-entity-1="User" data-entity-2="UC6" data-source-line="24" data-uid="lnk18" id="link_User_UC6"><path d="M109.34,362.1294 C123.62,354.6094 140,347.4194 156,343.6094 C191.87,335.0594 226.8723,339.3416 259.5323,347.5816" fill="none" id="User-to-UC6" style="stroke:#181818;stroke-width:1;"/><polygon fill="#181818" points="265.35,349.0494,257.602,342.9692,260.5019,347.8262,255.6449,350.7262,265.35,349.0494" style="stroke:#181818;stroke-width:1;"/></g><!--link User to UC7--><g class="link" data-entity-1="User" data-entity-2="UC7" data-source-line="25" data-uid="lnk19" id="link_User_UC7"><path d="M109.35,412.8594 C123.76,420.1994 140.22,427.6294 156,432.6094 C189.89,443.2894 223.0406,448.9626 255.2006,452.7226" fill="none" id="User-to-UC7" style="stroke:#181818;stroke-width:1;"/><polygon fill="#181818" points="261.16,453.4194,252.6854,448.4013,256.1938,452.8388,251.7564,456.3472,261.16,453.4194" style="stroke:#181818;stroke-width:1;"/></g><!--link User to UC8--><g class="link" data-entity-1="User" data-entity-2="UC8" data-source-line="26" data-uid="lnk20" id="link_User_UC8"><path d="M86.19,427.7294 C102.51,459.0594 127.75,503.2994 156,537.6094 C174.6,560.2094 184.36,560.8594 205,581.6094 C208.77,585.3994 208.61,587.5494 213,590.6094 C228.73,601.5494 241.937,608.1495 259.677,614.8495" fill="none" id="User-to-UC8" style="stroke:#181818;stroke-width:1;"/><polygon fill="#181818" points="265.29,616.9694,258.2837,610.0475,260.6125,615.2028,255.4572,617.5315,265.29,616.9694" style="stroke:#181818;stroke-width:1;"/></g><!--link Developer to UC1--><g class="link" data-entity-1="Developer" data-entity-2="UC1" data-source-line="28" data-uid="lnk21" id="link_Developer_UC1"><path d="M123.43,643.5094 C149.93,626.0794 182.37,606.0494 213,590.6094 C231.33,581.3694 246.4805,574.9185 265.1605,567.8285" fill="none" id="Developer-to-UC1" style="stroke:#181818;stroke-width:1;"/><polygon fill="#181818" points="270.77,565.6994,260.9363,565.1533,266.0954,567.4736,263.7751,572.6327,270.77,565.6994" style="stroke:#181818;stroke-width:1;"/></g><!--link Developer to UC2--><g class="link" data-entity-1="Developer" data-entity-2="UC2" data-source-line="29" data-uid="lnk22" id="link_Developer_UC2"><path d="M126.22,696.0594 C136.13,698.0794 146.34,700.0094 156,701.6094 C187.23,706.7694 215.9261,710.4418 245.7661,713.7318" fill="none" id="Developer-to-UC2" style="stroke:#181818;stroke-width:1;"/><polygon fill="#181818" points="251.73,714.3894,243.2226,709.4272,246.7601,713.8414,242.3458,717.379,251.73,714.3894" style="stroke:#181818;stroke-width:1;"/></g><!--link Developer to UC8--><g class="link" data-entity-1="Developer" data-entity-2="UC8" data-source-line="30" data-uid="lnk23" id="link_Developer_UC8"><path d="M126.22,673.8794 C150.66,670.0894 179.24,665.4294 205,660.6094 C222.53,657.3294 235.5436,654.7084 253.0636,650.9484" fill="none" id="Developer-to-UC8" style="stroke:#181818;stroke-width:1;"/><polygon fill="#181818" points="258.93,649.6894,249.291,647.6669,254.0413,650.7385,250.9697,655.4888,258.93,649.6894" style="stroke:#181818;stroke-width:1;"/></g><!--link UC2 to UC3--><g class="link" data-entity-1="UC2" data-entity-2="UC3" data-source-line="32" data-uid="lnk24" id="link_UC2_UC3"><path d="M258.81,708.7794 C241.37,702.2594 224.35,692.4294 213,677.6094 C122.59,559.5194 167.42,492.7994 180,344.6094 C187.36,257.8994 157.88,218.9494 213,151.6094 C225.63,136.1794 238.6965,128.1304 257.3365,121.6104" fill="none" id="UC2-to-UC3" style="stroke:#181818;stroke-width:1;stroke-dasharray:7,7;"/><polygon fill="#181818" points="263,119.6294,253.184,118.8252,258.2804,121.2802,255.8254,126.3766,263,119.6294" style="stroke:#181818;stroke-width:1;"/><text fill="#000000" font-family="sans-serif" font-size="13" lengthAdjust="spacing" textLength="47.6963" x="157" y="359.1045">includes</text></g><!--link UC2 to UC4--><g class="link" data-entity-1="UC2" data-entity-2="UC4" data-source-line="33" data-uid="lnk25" id="link_UC2_UC4"><path d="M258.89,708.7194 C241.45,702.1994 224.41,692.3894 213,677.6094 C128.32,567.9394 162.82,505.0994 180,367.6094 C187.39,308.4594 173.28,282.0594 213,237.6094 C226.53,222.4694 240.2627,214.5511 259.2427,208.1711" fill="none" id="UC2-to-UC4" style="stroke:#181818;stroke-width:1;stroke-dasharray:7,7;"/><polygon fill="#181818" points="264.93,206.2594,255.1246,205.3355,260.1906,207.8525,257.6736,212.9185,264.93,206.2594" style="stroke:#181818;stroke-width:1;"/><text fill="#000000" font-family="sans-serif" font-size="13" lengthAdjust="spacing" textLength="47.6963" x="157" y="382.1045">includes</text></g><!--link UC2 to UC5--><g class="link" data-entity-1="UC2" data-entity-2="UC5" data-source-line="34" data-uid="lnk26" id="link_UC2_UC5"><path d="M258.98,708.6494 C241.54,702.1294 224.48,692.3294 213,677.6094 C138.93,582.6194 187.35,528.8394 180,408.6094 C177.53,368.1594 182.99,350.8394 213,323.6094 C226.86,311.0294 239.1375,304.0769 256.6275,297.6569" fill="none" id="UC2-to-UC5" style="stroke:#181818;stroke-width:1;stroke-dasharray:7,7;"/><polygon fill="#181818" points="262.26,295.5894,252.4329,294.9356,257.5662,297.3123,255.1895,302.4457,262.26,295.5894" style="stroke:#181818;stroke-width:1;"/><text fill="#000000" font-family="sans-serif" font-size="13" lengthAdjust="spacing" textLength="47.6963" x="157" y="405.1045">includes</text></g><!--link UC2 to UC6--><g class="link" data-entity-1="UC2" data-entity-2="UC6" data-source-line="35" data-uid="lnk27" id="link_UC2_UC6"><path d="M259.09,708.5694 C241.65,702.0494 224.56,692.2694 213,677.6094 C176.38,631.1894 144.69,461.0294 180,413.6094 C194.32,394.3794 210.9568,384.8276 234.0068,378.4576" fill="none" id="UC2-to-UC6" style="stroke:#181818;stroke-width:1;stroke-dasharray:7,7;"/><polygon fill="#181818" points="239.79,376.8594,230.0497,375.4012,234.9706,378.1912,232.1806,383.1122,239.79,376.8594" style="stroke:#181818;stroke-width:1;"/><text fill="#000000" font-family="sans-serif" font-size="13" lengthAdjust="spacing" textLength="47.6963" x="157" y="428.1045">includes</text></g><!--link UC2 to UC7--><g class="link" data-entity-1="UC2" data-entity-2="UC7" data-source-line="36" data-uid="lnk28" id="link_UC2_UC7"><path d="M260.28,707.9394 C242.75,701.3994 225.33,691.7694 213,677.6094 C165.62,623.1694 142.43,580.2294 180,518.6094 C197.65,489.6594 226.4568,476.1254 257.6668,468.3754" fill="none" id="UC2-to-UC7" style="stroke:#181818;stroke-width:1;stroke-dasharray:7,7;"/><polygon fill="#181818" points="263.49,466.9294,253.7913,465.2163,258.6374,468.1344,255.7193,472.9805,263.49,466.9294" style="stroke:#181818;stroke-width:1;"/><text fill="#000000" font-family="sans-serif" font-size="13" lengthAdjust="spacing" textLength="47.6963" x="157" y="533.1045">includes</text></g><!--SRC=[RL9DJyCm3BtdLrYz5yRObpWWJS0H64E8IozMwhM1DAdYj3iW_Zj9DPN0UlDxUSzsR7lbDS7-uIMVpURmRjqdjoW9NclI6hQcXBqDWXrMn9336nFS8HCBJGSFte9JLUsXL8waLzO8_bIcHOSDS8sbFIfJmG4ran0elNMGxJJwWtLDJEOoG1w2izTxwadRzYGPaH2n4fegT9Njwj0B97rdy2K0EYOP7xBdbWmmwU2WiZ2jinyXXEElF5Q_kqezJzYh2Zt1GJdskOw52-FY5DeuXPDdddhsr2iwWkt9nQ0mt3KDEZMghrFrLafYZlcR8pegJ6FBJe_QnOIs8LcZKHBrV_LoGerjguCsxWCkXs-NtR0T-EjTJVo1oVkmCmvro6E97a_YTIf-j4R5TMdLKx0mX-I5mN0kqXeEipgPDk9RYBXUoFFROT89cAVWEWMB52nJi4h1EWKR8SOZ6QlzP-PdJB056Yw67k06b96wAyE1Z-nYabrEigj9TfsmFm00]--></g></svg>