<svg xmlns="http://www.w3.org/2000/svg" xmlns:xlink="http://www.w3.org/1999/xlink" contentStyleType="text/css" data-diagram-type="SEQUENCE" height="557px" preserveAspectRatio="none" style="width:967px;height:557px;background:#FFFFFF;" version="1.1" viewBox="0 0 967 557" width="967px" zoomAndPan="magnify"><title>REQ-002 Workspace Shell And Role Pages - User Sequence</title><defs/><g><text fill="#000000" font-family="sans-serif" font-size="14" font-weight="bold" lengthAdjust="spacing" textLength="398.3574" x="283.5327" y="29.5332">REQ-002 Workspace Shell And Role Pages - User Sequence</text><g><title>User</title><rect fill="#000000" fill-opacity="0.00000" height="353.8672" width="8" x="18.7793" y="121.2188"/><line style="stroke:#181818;stroke-width:0.5;stroke-dasharray:5,5;" x1="22" x2="22" y1="121.2188" y2="475.0859"/></g><g><title>ProgramSelectorWindow</title><rect fill="#000000" fill-opacity="0.00000" height="353.8672" width="8" x="208.9736" y="121.2188"/><line style="stroke:#181818;stroke-width:0.5;stroke-dasharray:5,5;" x1="212.5566" x2="212.5566" y1="121.2188" y2="475.0859"/></g><g><title>ProjectWorkspaceWindow</title><rect fill="#000000" fill-opacity="0.00000" height="353.8672" width="8" x="392.0835" y="121.2188"/><line style="stroke:#181818;stroke-width:0.5;stroke-dasharray:5,5;" x1="395.3906" x2="395.3906" y1="121.2188" y2="475.0859"/></g><g><title>WorkspaceNavigationWidget</title><rect fill="#000000" fill-opacity="0.00000" height="353.8672" width="8" x="587.6484" y="121.2188"/><line style="stroke:#181818;stroke-width:0.5;stroke-dasharray:5,5;" x1="590.7764" x2="590.7764" y1="121.2188" y2="475.0859"/></g><g><title>WorkspacePageStack</title><rect fill="#000000" fill-opacity="0.00000" height="353.8672" width="8" x="770.3857" y="121.2188"/><line style="stroke:#181818;stroke-width:0.5;stroke-dasharray:5,5;" x1="773.5205" x2="773.5205" y1="121.2188" y2="475.0859"/></g><g><title>ConsolePanel</title><rect fill="#000000" fill-opacity="0.00000" height="353.8672" width="8" x="906.8369" y="121.2188"/><line style="stroke:#181818;stroke-width:0.5;stroke-dasharray:5,5;" x1="910.251" x2="910.251" y1="121.2188" y2="475.0859"/></g><g class="participant participant-head" data-participant="User"><text fill="#000000" font-family="sans-serif" font-size="14" lengthAdjust="spacing" textLength="29.5586" x="5" y="118.1426">User</text><ellipse cx="22.7793" cy="52.1094" fill="#E2E2F0" rx="8" ry="8" style="stroke:#181818;stroke-width:0.5;"/><path d="M22.7793,60.1094 L22.7793,87.1094 M9.7793,68.1094 L35.7793,68.1094 M22.7793,87.1094 L9.7793,102.1094 M22.7793,87.1094 L35.7793,102.1094" fill="none" style="stroke:#181818;stroke-width:0.5;"/></g><g class="participant participant-tail" data-participant="User"><text fill="#000000" font-family="sans-serif" font-size="14" lengthAdjust="spacing" textLength="29.5586" x="5" y="488.6191">User</text><ellipse cx="22.7793" cy="500.1953" fill="#E2E2F0" rx="8" ry="8" style="stroke:#181818;stroke-width:0.5;"/><path d="M22.7793,508.1953 L22.7793,535.1953 M9.7793,516.1953 L35.7793,516.1953 M22.7793,535.1953 L9.7793,550.1953 M22.7793,535.1953 L35.7793,550.1953" fill="none" style="stroke:#181818;stroke-width:0.5;"/></g><g class="participant participant-head" data-participant="Selector"><rect fill="#E2E2F0" height="31.6094" rx="2.5" ry="2.5" style="stroke:#181818;stroke-width:0.5;" width="168.834" x="128.5566" y="88.6094"/><text fill="#000000" font-family="sans-serif" font-size="14" lengthAdjust="spacing" textLength="154.834" x="135.5566" y="110.1426">ProgramSelectorWindow</text></g><g class="participant participant-tail" data-participant="Selector"><rect fill="#E2E2F0" height="31.6094" rx="2.5" ry="2.5" style="stroke:#181818;stroke-width:0.5;" width="168.834" x="128.5566" y="474.0859"/><text fill="#000000" font-family="sans-serif" font-size="14" lengthAdjust="spacing" textLength="154.834" x="135.5566" y="495.6191">ProgramSelectorWindow</text></g><g class="participant participant-head" data-participant="Workspace"><rect fill="#E2E2F0" height="31.6094" rx="2.5" ry="2.5" style="stroke:#181818;stroke-width:0.5;" width="177.3857" x="307.3906" y="88.6094"/><text fill="#000000" font-family="sans-serif" font-size="14" lengthAdjust="spacing" textLength="163.3857" x="314.3906" y="110.1426">ProjectWorkspaceWindow</text></g><g class="participant participant-tail" data-participant="Workspace"><rect fill="#E2E2F0" height="31.6094" rx="2.5" ry="2.5" style="stroke:#181818;stroke-width:0.5;" width="177.3857" x="307.3906" y="474.0859"/><text fill="#000000" font-family="sans-serif" font-size="14" lengthAdjust="spacing" textLength="163.3857" x="314.3906" y="495.6191">ProjectWorkspaceWindow</text></g><g class="participant participant-head" data-participant="Navigation"><rect fill="#E2E2F0" height="31.6094" rx="2.5" ry="2.5" style="stroke:#181818;stroke-width:0.5;" width="193.7441" x="494.7764" y="88.6094"/><text fill="#000000" font-family="sans-serif" font-size="14" lengthAdjust="spacing" textLength="179.7441" x="501.7764" y="110.1426">WorkspaceNavigationWidget</text></g><g class="participant participant-tail" data-participant="Navigation"><rect fill="#E2E2F0" height="31.6094" rx="2.5" ry="2.5" style="stroke:#181818;stroke-width:0.5;" width="193.7441" x="494.7764" y="474.0859"/><text fill="#000000" font-family="sans-serif" font-size="14" lengthAdjust="spacing" textLength="179.7441" x="501.7764" y="495.6191">WorkspaceNavigationWidget</text></g><g class="participant participant-head" data-participant="PageStack"><rect fill="#E2E2F0" height="31.6094" rx="2.5" ry="2.5" style="stroke:#181818;stroke-width:0.5;" width="151.7305" x="698.5205" y="88.6094"/><text fill="#000000" font-family="sans-serif" font-size="14" lengthAdjust="spacing" textLength="137.7305" x="705.5205" y="110.1426">WorkspacePageStack</text></g><g class="participant participant-tail" data-participant="PageStack"><rect fill="#E2E2F0" height="31.6094" rx="2.5" ry="2.5" style="stroke:#181818;stroke-width:0.5;" width="151.7305" x="698.5205" y="474.0859"/><text fill="#000000" font-family="sans-serif" font-size="14" lengthAdjust="spacing" textLength="137.7305" x="705.5205" y="495.6191">WorkspacePageStack</text></g><g class="participant participant-head" data-participant="Console"><rect fill="#E2E2F0" height="31.6094" rx="2.5" ry="2.5" style="stroke:#181818;stroke-width:0.5;" width="101.1719" x="860.251" y="88.6094"/><text fill="#000000" font-family="sans-serif" font-size="14" lengthAdjust="spacing" textLength="87.1719" x="867.251" y="110.1426">ConsolePanel</text></g><g class="participant participant-tail" data-participant="Console"><rect fill="#E2E2F0" height="31.6094" rx="2.5" ry="2.5" style="stroke:#181818;stroke-width:0.5;" width="101.1719" x="860.251" y="474.0859"/><text fill="#000000" font-family="sans-serif" font-size="14" lengthAdjust="spacing" textLength="87.1719" x="867.251" y="495.6191">ConsolePanel</text></g><g class="message" data-participant-1="User" data-participant-2="Selector"><polygon fill="#181818" points="200.9736,149.5703,210.9736,153.5703,200.9736,157.5703,204.9736,153.5703" style="stroke:#181818;stroke-width:1;"/><line style="stroke:#181818;stroke-width:1;" x1="22.7793" x2="206.9736" y1="153.5703" y2="153.5703"/><text fill="#000000" font-family="sans-serif" font-size="13" lengthAdjust="spacing" textLength="166.1943" x="29.7793" y="148.7139">select project and click Open</text></g><g class="message" data-participant-1="Selector" data-participant-2="Workspace"><polygon fill="#181818" points="384.0835,179.9219,394.0835,183.9219,384.0835,187.9219,388.0835,183.9219" style="stroke:#181818;stroke-width:1;"/><line style="stroke:#181818;stroke-width:1;" x1="212.9736" x2="390.0835" y1="183.9219" y2="183.9219"/><text fill="#000000" font-family="sans-serif" font-size="13" lengthAdjust="spacing" textLength="143.0762" x="219.9736" y="179.0654">create(project_definition)</text></g><g class="message" data-participant-1="Workspace" data-participant-2="Navigation"><polygon fill="#181818" points="579.6484,210.2734,589.6484,214.2734,579.6484,218.2734,583.6484,214.2734" style="stroke:#181818;stroke-width:1;"/><line style="stroke:#181818;stroke-width:1;" x1="396.0835" x2="585.6484" y1="214.2734" y2="214.2734"/><text fill="#000000" font-family="sans-serif" font-size="13" lengthAdjust="spacing" textLength="122.8271" x="403.0835" y="209.417">build first-level routes</text></g><g class="message" data-participant-1="Workspace" data-participant-2="PageStack"><polygon fill="#181818" points="762.3857,240.625,772.3857,244.625,762.3857,248.625,766.3857,244.625" style="stroke:#181818;stroke-width:1;"/><line style="stroke:#181818;stroke-width:1;" x1="396.0835" x2="768.3857" y1="244.625" y2="244.625"/><text fill="#000000" font-family="sans-serif" font-size="13" lengthAdjust="spacing" textLength="66.498" x="403.0835" y="239.7686">build pages</text></g><g class="message" data-participant-1="Workspace" data-participant-2="PageStack"><polygon fill="#181818" points="762.3857,270.9766,772.3857,274.9766,762.3857,278.9766,766.3857,274.9766" style="stroke:#181818;stroke-width:1;"/><line style="stroke:#181818;stroke-width:1;" x1="396.0835" x2="768.3857" y1="274.9766" y2="274.9766"/><text fill="#000000" font-family="sans-serif" font-size="13" lengthAdjust="spacing" textLength="88.1372" x="403.0835" y="270.1201">show Overview</text></g><g class="message" data-participant-1="Workspace" data-participant-2="Console"><polygon fill="#181818" points="898.8369,301.3281,908.8369,305.3281,898.8369,309.3281,902.8369,305.3281" style="stroke:#181818;stroke-width:1;"/><line style="stroke:#181818;stroke-width:1;" x1="396.0835" x2="904.8369" y1="305.3281" y2="305.3281"/><text fill="#000000" font-family="sans-serif" font-size="13" lengthAdjust="spacing" textLength="125.7344" x="403.0835" y="300.4717">initialize fixed console</text></g><g class="message" data-participant-1="Workspace" data-participant-2="User"><polygon fill="#181818" points="33.7793,331.6797,23.7793,335.6797,33.7793,339.6797,29.7793,335.6797" style="stroke:#181818;stroke-width:1;"/><line style="stroke:#181818;stroke-width:1;" x1="27.7793" x2="395.0835" y1="335.6797" y2="335.6797"/><text fill="#000000" font-family="sans-serif" font-size="13" lengthAdjust="spacing" textLength="126.4453" x="39.7793" y="330.8232">show workspace shell</text></g><g class="message" data-participant-1="User" data-participant-2="Navigation"><polygon fill="#181818" points="579.6484,362.0313,589.6484,366.0313,579.6484,370.0313,583.6484,366.0313" style="stroke:#181818;stroke-width:1;"/><line style="stroke:#181818;stroke-width:1;" x1="22.7793" x2="585.6484" y1="366.0313" y2="366.0313"/><text fill="#000000" font-family="sans-serif" font-size="13" lengthAdjust="spacing" textLength="182.1143" x="29.7793" y="361.1748">choose Application / Production</text></g><g class="message" data-participant-1="Navigation" data-participant-2="Workspace"><polygon fill="#181818" points="407.0835,392.3828,397.0835,396.3828,407.0835,400.3828,403.0835,396.3828" style="stroke:#181818;stroke-width:1;"/><line style="stroke:#181818;stroke-width:1;" x1="401.0835" x2="590.6484" y1="396.3828" y2="396.3828"/><text fill="#000000" font-family="sans-serif" font-size="13" lengthAdjust="spacing" textLength="164.6138" x="413.0835" y="391.5264">page_selected("application")</text></g><g class="message" data-participant-1="Workspace" data-participant-2="PageStack"><polygon fill="#181818" points="762.3857,422.7344,772.3857,426.7344,762.3857,430.7344,766.3857,426.7344" style="stroke:#181818;stroke-width:1;"/><line style="stroke:#181818;stroke-width:1;" x1="396.0835" x2="768.3857" y1="426.7344" y2="426.7344"/><text fill="#000000" font-family="sans-serif" font-size="13" lengthAdjust="spacing" textLength="142.9238" x="403.0835" y="421.8779">show page("application")</text></g><g class="message" data-participant-1="Workspace" data-participant-2="Console"><polygon fill="#181818" points="898.8369,453.0859,908.8369,457.0859,898.8369,461.0859,902.8369,457.0859" style="stroke:#181818;stroke-width:1;"/><line style="stroke:#181818;stroke-width:1;" x1="396.0835" x2="904.8369" y1="457.0859" y2="457.0859"/><text fill="#000000" font-family="sans-serif" font-size="13" lengthAdjust="spacing" textLength="156.0952" x="403.0835" y="452.2295">keep existing console state</text></g><!--SRC=[XP8zJyCm48Rt_8fJfdQ8g1Wx85M8bPPMg6DrEDVaYB6DxNw8Nu_j1gS10LjoUPxetjVsx2N1-k6fcirkOQjjvmmAWarBKi92rR3M0LXXGmugU7PaOKFl1rA22jUnCcZn3LoBjJwnQc2Fqb5HeF3Q9hm8X6V11fM7ScLr4uGDIOh4bbNmIa07NwCV_6iOvyMkX3mR6tdyY4TkqBDMMwuRyaaQXhzOCUd6e-WIdj_6zBrMBjIoGaKoSVsWA591rLrE0tDmwH7C9GbWw5H85Xqi3QaYWq4Qwf-3i8IU9hsrgsdFYkFUqsB0WZC42jBBWMKDUxRELvAE9C7gWoStLdAeR9XulBz3hjKdM1x97fbEOwmF7g2q7ah-eB30cKB8lfCHd_hf_tZA7royRRcxKIJHQkq85iQ4pYx36mYteZw8T8fNyBS6OwZTfNog9oKEVoYd_sIDwf_64BiZCa1dTZxU_ZupE1yExnC0]--></g></svg>