<svg xmlns="http://www.w3.org/2000/svg" xmlns:xlink="http://www.w3.org/1999/xlink" contentStyleType="text/css" data-diagram-type="ACTIVITY" height="944px" preserveAspectRatio="none" style="width:478px;height:944px;background:#FFFFFF;" version="1.1" viewBox="0 0 478 944" width="478px" zoomAndPan="magnify"><title>REQ-002 Workspace Shell And Role Pages - Main Flow</title><defs/><g><g class="title" data-source-line="1"><text fill="#000000" font-family="sans-serif" font-size="14" font-weight="bold" lengthAdjust="spacing" textLength="364.8613" x="55.4961" y="34.5332">REQ-002 Workspace Shell And Role Pages - Main Flow</text></g><ellipse cx="254.103" cy="58.6094" fill="#222222" rx="10" ry="10" style="stroke:#222222;stroke-width:1;"/><rect fill="#F1F1F1" height="35.0938" rx="12.5" ry="12.5" style="stroke:#181818;stroke-width:0.5;" width="104.7207" x="201.7427" y="88.6094"/><text fill="#000000" font-family="sans-serif" font-size="12" lengthAdjust="spacing" textLength="84.7207" x="211.7427" y="111.0664">Launch selector</text><rect fill="#F1F1F1" height="35.0938" rx="12.5" ry="12.5" style="stroke:#181818;stroke-width:0.5;" width="128.7266" x="189.7397" y="143.7031"/><text fill="#000000" font-family="sans-serif" font-size="12" lengthAdjust="spacing" textLength="108.7266" x="199.7397" y="166.1602">Choose valid project</text><polygon fill="#F1F1F1" points="191.4277,198.7969,316.7783,198.7969,328.7783,210.7969,316.7783,222.7969,191.4277,222.7969,179.4277,210.7969,191.4277,198.7969" style="stroke:#181818;stroke-width:0.5;"/><text fill="#000000" font-family="sans-serif" font-size="11" lengthAdjust="spacing" textLength="125.3506" x="191.4277" y="215.2979">Project context available?</text><text fill="#000000" font-family="sans-serif" font-size="11" lengthAdjust="spacing" textLength="17.1177" x="162.3101" y="208.3799">yes</text><text fill="#000000" font-family="sans-serif" font-size="11" lengthAdjust="spacing" textLength="12.2354" x="328.7783" y="208.3799">no</text><rect fill="#F1F1F1" height="35.0938" rx="12.5" ry="12.5" style="stroke:#181818;stroke-width:0.5;" width="199.3965" x="29.6914" y="232.7969"/><text fill="#000000" font-family="sans-serif" font-size="12" lengthAdjust="spacing" textLength="179.3965" x="39.6914" y="255.2539">Create ProjectWorkspaceWindow</text><rect fill="#F1F1F1" height="80.375" rx="12.5" ry="12.5" style="stroke:#181818;stroke-width:0.5;" width="113.3984" x="72.6904" y="287.8906"/><text fill="#000000" font-family="sans-serif" font-size="12" lengthAdjust="spacing" textLength="88.0605" x="82.6904" y="310.3477">Build navigation,</text><text fill="#000000" font-family="sans-serif" font-size="12" lengthAdjust="spacing" textLength="65.3613" x="82.6904" y="325.4414">live session,</text><text fill="#000000" font-family="sans-serif" font-size="12" lengthAdjust="spacing" textLength="61.3711" x="82.6904" y="340.5352">page stack,</text><text fill="#000000" font-family="sans-serif" font-size="12" lengthAdjust="spacing" textLength="93.3984" x="82.6904" y="355.6289">and fixed console</text><rect fill="#F1F1F1" height="35.0938" rx="12.5" ry="12.5" style="stroke:#181818;stroke-width:0.5;" width="116.0293" x="71.375" y="388.2656"/><text fill="#000000" font-family="sans-serif" font-size="12" lengthAdjust="spacing" textLength="96.0293" x="81.375" y="410.7227">Activate Overview</text><rect fill="#F1F1F1" height="35.0938" rx="12.5" ry="12.5" style="stroke:#181818;stroke-width:0.5;" width="172.0508" x="43.3643" y="443.3594"/><text fill="#000000" font-family="sans-serif" font-size="12" lengthAdjust="spacing" textLength="152.0508" x="53.3643" y="465.8164">Render overview summaries</text><rect fill="#F1F1F1" height="35.0938" rx="12.5" ry="12.5" style="stroke:#181818;stroke-width:0.5;" width="196.7773" x="31.001" y="498.4531"/><text fill="#000000" font-family="sans-serif" font-size="12" lengthAdjust="spacing" textLength="176.7773" x="41.001" y="520.9102">Keep console and session visible</text><rect fill="#F1F1F1" height="35.0938" rx="12.5" ry="12.5" style="stroke:#181818;stroke-width:0.5;" width="155.4102" x="51.6846" y="602.4648"/><text fill="#000000" font-family="sans-serif" font-size="12" lengthAdjust="spacing" textLength="135.4102" x="61.6846" y="624.9219">Switch stacked page only</text><rect fill="#F1F1F1" height="35.0938" rx="12.5" ry="12.5" style="stroke:#181818;stroke-width:0.5;" width="236.7793" x="11" y="672.5586"/><text fill="#000000" font-family="sans-serif" font-size="12" lengthAdjust="spacing" textLength="216.7793" x="21" y="695.0156">Preserve shell-level session and console</text><polygon fill="#F1F1F1" points="78.6328,553.5469,180.1465,553.5469,192.1465,565.5469,180.1465,577.5469,78.6328,577.5469,66.6328,565.5469,78.6328,553.5469" style="stroke:#181818;stroke-width:0.5;"/><text fill="#000000" font-family="sans-serif" font-size="11" lengthAdjust="spacing" textLength="17.1177" x="133.3896" y="588.9658">yes</text><text fill="#000000" font-family="sans-serif" font-size="11" lengthAdjust="spacing" textLength="101.5137" x="78.6328" y="570.0479">User changes page?</text><polygon fill="#F1F1F1" points="129.3896,727.6523,141.3896,739.6523,129.3896,751.6523,117.3896,739.6523,129.3896,727.6523" style="stroke:#181818;stroke-width:0.5;"/><rect fill="#F1F1F1" height="35.0938" rx="12.5" ry="12.5" style="stroke:#181818;stroke-width:0.5;" width="111.3711" x="73.7041" y="771.6523"/><text fill="#000000" font-family="sans-serif" font-size="12" lengthAdjust="spacing" textLength="91.3711" x="83.7041" y="794.1094">Close workspace</text><rect fill="#F1F1F1" height="35.0938" rx="12.5" ry="12.5" style="stroke:#181818;stroke-width:0.5;" width="128.0645" x="65.3574" y="826.7461"/><text fill="#000000" font-family="sans-serif" font-size="12" lengthAdjust="spacing" textLength="108.0645" x="75.3574" y="849.2031">Show selector again</text><rect fill="#F1F1F1" height="35.0938" rx="12.5" ry="12.5" style="stroke:#181818;stroke-width:0.5;" width="178.0742" x="289.7793" y="232.7969"/><text fill="#000000" font-family="sans-serif" font-size="12" lengthAdjust="spacing" textLength="158.0742" x="299.7793" y="255.2539">Show blocking error message</text><polygon fill="#F1F1F1" points="254.103,867.8398,266.103,879.8398,254.103,891.8398,242.103,879.8398,254.103,867.8398" style="stroke:#181818;stroke-width:0.5;"/><ellipse cx="254.103" cy="922.8398" fill="none" rx="11" ry="11" style="stroke:#222222;stroke-width:1;"/><ellipse cx="254.103" cy="922.8398" fill="#222222" rx="6" ry="6" style="stroke:#222222;stroke-width:1;"/><line style="stroke:#181818;stroke-width:1;" x1="254.103" x2="254.103" y1="68.6094" y2="88.6094"/><polygon fill="#181818" points="250.103,78.6094,254.103,88.6094,258.103,78.6094,254.103,82.6094" style="stroke:#181818;stroke-width:1;"/><line style="stroke:#181818;stroke-width:1;" x1="254.103" x2="254.103" y1="123.7031" y2="143.7031"/><polygon fill="#181818" points="250.103,133.7031,254.103,143.7031,258.103,133.7031,254.103,137.7031" style="stroke:#181818;stroke-width:1;"/><line style="stroke:#181818;stroke-width:1;" x1="129.3896" x2="129.3896" y1="267.8906" y2="287.8906"/><polygon fill="#181818" points="125.3896,277.8906,129.3896,287.8906,133.3896,277.8906,129.3896,281.8906" style="stroke:#181818;stroke-width:1;"/><line style="stroke:#181818;stroke-width:1;" x1="129.3896" x2="129.3896" y1="368.2656" y2="388.2656"/><polygon fill="#181818" points="125.3896,378.2656,129.3896,388.2656,133.3896,378.2656,129.3896,382.2656" style="stroke:#181818;stroke-width:1;"/><line style="stroke:#181818;stroke-width:1;" x1="129.3896" x2="129.3896" y1="423.3594" y2="443.3594"/><polygon fill="#181818" points="125.3896,433.3594,129.3896,443.3594,133.3896,433.3594,129.3896,437.3594" style="stroke:#181818;stroke-width:1;"/><line style="stroke:#181818;stroke-width:1;" x1="129.3896" x2="129.3896" y1="478.4531" y2="498.4531"/><polygon fill="#181818" points="125.3896,488.4531,129.3896,498.4531,133.3896,488.4531,129.3896,492.4531" style="stroke:#181818;stroke-width:1;"/><line style="stroke:#181818;stroke-width:1;" x1="129.3896" x2="129.3896" y1="637.5586" y2="672.5586"/><polygon fill="#181818" points="125.3896,662.5586,129.3896,672.5586,133.3896,662.5586,129.3896,666.5586" style="stroke:#181818;stroke-width:1;"/><line style="stroke:#181818;stroke-width:1;" x1="129.3896" x2="129.3896" y1="577.5469" y2="602.4648"/><polygon fill="#181818" points="125.3896,592.4648,129.3896,602.4648,133.3896,592.4648,129.3896,596.4648" style="stroke:#181818;stroke-width:1;"/><line style="stroke:#181818;stroke-width:1;" x1="192.1465" x2="257.7793" y1="565.5469" y2="565.5469"/><polygon fill="#181818" points="253.7793,645.0586,257.7793,655.0586,261.7793,645.0586,257.7793,649.0586" style="stroke:#181818;stroke-width:1;"/><line style="stroke:#181818;stroke-width:1;" x1="257.7793" x2="257.7793" y1="565.5469" y2="739.6523"/><line style="stroke:#181818;stroke-width:1;" x1="257.7793" x2="141.3896" y1="739.6523" y2="739.6523"/><polygon fill="#181818" points="151.3896,735.6523,141.3896,739.6523,151.3896,743.6523,147.3896,739.6523" style="stroke:#181818;stroke-width:1;"/><line style="stroke:#181818;stroke-width:1;" x1="129.3896" x2="129.3896" y1="707.6523" y2="727.6523"/><polygon fill="#181818" points="125.3896,717.6523,129.3896,727.6523,133.3896,717.6523,129.3896,721.6523" style="stroke:#181818;stroke-width:1;"/><line style="stroke:#181818;stroke-width:1;" x1="129.3896" x2="129.3896" y1="533.5469" y2="553.5469"/><polygon fill="#181818" points="125.3896,543.5469,129.3896,553.5469,133.3896,543.5469,129.3896,547.5469" style="stroke:#181818;stroke-width:1;"/><line style="stroke:#181818;stroke-width:1;" x1="129.3896" x2="129.3896" y1="751.6523" y2="771.6523"/><polygon fill="#181818" points="125.3896,761.6523,129.3896,771.6523,133.3896,761.6523,129.3896,765.6523" style="stroke:#181818;stroke-width:1;"/><line style="stroke:#181818;stroke-width:1;" x1="129.3896" x2="129.3896" y1="806.7461" y2="826.7461"/><polygon fill="#181818" points="125.3896,816.7461,129.3896,826.7461,133.3896,816.7461,129.3896,820.7461" style="stroke:#181818;stroke-width:1;"/><line style="stroke:#181818;stroke-width:1;" x1="179.4277" x2="129.3896" y1="210.7969" y2="210.7969"/><line style="stroke:#181818;stroke-width:1;" x1="129.3896" x2="129.3896" y1="210.7969" y2="232.7969"/><polygon fill="#181818" points="125.3896,222.7969,129.3896,232.7969,133.3896,222.7969,129.3896,226.7969" style="stroke:#181818;stroke-width:1;"/><line style="stroke:#181818;stroke-width:1;" x1="328.7783" x2="378.8164" y1="210.7969" y2="210.7969"/><line style="stroke:#181818;stroke-width:1;" x1="378.8164" x2="378.8164" y1="210.7969" y2="232.7969"/><polygon fill="#181818" points="374.8164,222.7969,378.8164,232.7969,382.8164,222.7969,378.8164,226.7969" style="stroke:#181818;stroke-width:1;"/><line style="stroke:#181818;stroke-width:1;" x1="129.3896" x2="129.3896" y1="861.8398" y2="879.8398"/><line style="stroke:#181818;stroke-width:1;" x1="129.3896" x2="242.103" y1="879.8398" y2="879.8398"/><polygon fill="#181818" points="232.103,875.8398,242.103,879.8398,232.103,883.8398,236.103,879.8398" style="stroke:#181818;stroke-width:1;"/><line style="stroke:#181818;stroke-width:1;" x1="378.8164" x2="378.8164" y1="267.8906" y2="879.8398"/><line style="stroke:#181818;stroke-width:1;" x1="378.8164" x2="266.103" y1="879.8398" y2="879.8398"/><polygon fill="#181818" points="276.103,875.8398,266.103,879.8398,276.103,883.8398,272.103,879.8398" style="stroke:#181818;stroke-width:1;"/><line style="stroke:#181818;stroke-width:1;" x1="254.103" x2="254.103" y1="178.7969" y2="198.7969"/><polygon fill="#181818" points="250.103,188.7969,254.103,198.7969,258.103,188.7969,254.103,192.7969" style="stroke:#181818;stroke-width:1;"/><line style="stroke:#181818;stroke-width:1;" x1="254.103" x2="254.103" y1="891.8398" y2="911.8398"/><polygon fill="#181818" points="250.103,901.8398,254.103,911.8398,258.103,901.8398,254.103,905.8398" style="stroke:#181818;stroke-width:1;"/><!--SRC=[NP51JyCm38Nl_HK-RXAJ4CVrWCO45q2CJMWNBbxhjgPfKiLPklrxd7QR44V7pdlVimC7Gx1z_bpStp_0tlbMUYm8TWqP0ojRmjRfm0Ph4bZ0ExA55-E6J5gsFNhiG1eitS2sXWgDK9P9G1-ovHiURT60aA4YE9zdotNZd114D5n2xzsFDlACAvXjfW8APmET0c14DdWmz3Y7q925sPbadW4irvumAD3quGQyPwiGUPfuEh8fmMBa6WCxU_Tj3KTI496fx3KDA6NHQe6QiU8JbSbSDEmeiYe2nsJq4Sb7fabwIxOa3-xo1dBiElHCCdPVYVgh22JPYoD45ZvCmYdibwX6qQ1DEqqi_qEgrcxWa9QN81Lj97RMdFEflV6a8YbKkjF2K2HpiqlMVx8eCrVZwapQ_d1TsSYyQznmEn5WhVVDCz8pmiow-MtYO5pHfXEJzphNgPCIwUIeBS7rlm00]--></g></svg>