<svg xmlns="http://www.w3.org/2000/svg" xmlns:xlink="http://www.w3.org/1999/xlink" contentStyleType="text/css" data-diagram-type="SEQUENCE" height="678px" preserveAspectRatio="none" style="width:1296px;height:678px;background:#FFFFFF;" version="1.1" viewBox="0 0 1296 678" width="1296px" zoomAndPan="magnify"><title>REQ-002 Workspace Shell And Role Pages - Selector to Workspace Sequence</title><defs/><g><text fill="#000000" font-family="sans-serif" font-size="14" font-weight="bold" lengthAdjust="spacing" textLength="518.1641" x="388.2588" y="29.5332">REQ-002 Workspace Shell And Role Pages - Selector to Workspace Sequence</text><g><title>User</title><rect fill="#000000" fill-opacity="0.00000" height="475.2734" width="8" x="18.7793" y="121.2188"/><line style="stroke:#181818;stroke-width:0.5;stroke-dasharray:5,5;" x1="22" x2="22" y1="121.2188" y2="596.4922"/></g><g><title>ProgramSelectorWindow</title><rect fill="#000000" fill-opacity="0.00000" height="475.2734" width="8" x="196.3354" y="121.2188"/><line style="stroke:#181818;stroke-width:0.5;stroke-dasharray:5,5;" x1="199.9185" x2="199.9185" y1="121.2188" y2="596.4922"/></g><g><title>ProjectWorkspaceWindow</title><rect fill="#000000" fill-opacity="0.00000" height="475.2734" width="8" x="379.4453" y="121.2188"/><line style="stroke:#181818;stroke-width:0.5;stroke-dasharray:5,5;" x1="382.7524" x2="382.7524" y1="121.2188" y2="596.4922"/></g><g><title>WorkspaceNavigationWidget</title><rect fill="#000000" fill-opacity="0.00000" height="475.2734" width="8" x="575.0103" y="121.2188"/><line style="stroke:#181818;stroke-width:0.5;stroke-dasharray:5,5;" x1="578.1382" x2="578.1382" y1="121.2188" y2="596.4922"/></g><g><title>WorkspacePageStack</title><rect fill="#000000" fill-opacity="0.00000" height="475.2734" width="8" x="777.7285" y="121.2188"/><line style="stroke:#181818;stroke-width:0.5;stroke-dasharray:5,5;" x1="780.8633" x2="780.8633" y1="121.2188" y2="596.4922"/></g><g><title>LiveSessionPanel</title><rect fill="#000000" fill-opacity="0.00000" height="475.2734" width="8" x="926.2417" y="121.2188"/><line style="stroke:#181818;stroke-width:0.5;stroke-dasharray:5,5;" x1="929.5938" x2="929.5938" y1="121.2188" y2="596.4922"/></g><g><title>ConsolePanel</title><rect fill="#000000" fill-opacity="0.00000" height="475.2734" width="8" x="1049.4756" y="121.2188"/><line style="stroke:#181818;stroke-width:0.5;stroke-dasharray:5,5;" x1="1052.8896" x2="1052.8896" y1="121.2188" y2="596.4922"/></g><g><title>WorkspaceRuntimeBridge</title><rect fill="#000000" fill-opacity="0.00000" height="475.2734" width="8" x="1198.3716" y="121.2188"/><line style="stroke:#181818;stroke-width:0.5;stroke-dasharray:5,5;" x1="1202.0615" x2="1202.0615" y1="121.2188" y2="596.4922"/></g><g class="participant participant-head" data-participant="User"><text fill="#000000" font-family="sans-serif" font-size="14" lengthAdjust="spacing" textLength="29.5586" x="5" y="118.1426">User</text><ellipse cx="22.7793" cy="52.1094" fill="#E2E2F0" rx="8" ry="8" style="stroke:#181818;stroke-width:0.5;"/><path d="M22.7793,60.1094 L22.7793,87.1094 M9.7793,68.1094 L35.7793,68.1094 M22.7793,87.1094 L9.7793,102.1094 M22.7793,87.1094 L35.7793,102.1094" fill="none" style="stroke:#181818;stroke-width:0.5;"/></g><g class="participant participant-tail" data-participant="User"><text fill="#000000" font-family="sans-serif" font-size="14" lengthAdjust="spacing" textLength="29.5586" x="5" y="610.0254">User</text><ellipse cx="22.7793" cy="621.6016" fill="#E2E2F0" rx="8" ry="8" style="stroke:#181818;stroke-width:0.5;"/><path d="M22.7793,629.6016 L22.7793,656.6016 M9.7793,637.6016 L35.7793,637.6016 M22.7793,656.6016 L9.7793,671.6016 M22.7793,656.6016 L35.7793,671.6016" fill="none" style="stroke:#181818;stroke-width:0.5;"/></g><g class="participant participant-head" data-participant="Selector"><rect fill="#E2E2F0" height="31.6094" rx="2.5" ry="2.5" style="stroke:#181818;stroke-width:0.5;" width="168.834" x="115.9185" y="88.6094"/><text fill="#000000" font-family="sans-serif" font-size="14" lengthAdjust="spacing" textLength="154.834" x="122.9185" y="110.1426">ProgramSelectorWindow</text></g><g class="participant participant-tail" data-participant="Selector"><rect fill="#E2E2F0" height="31.6094" rx="2.5" ry="2.5" style="stroke:#181818;stroke-width:0.5;" width="168.834" x="115.9185" y="595.4922"/><text fill="#000000" font-family="sans-serif" font-size="14" lengthAdjust="spacing" textLength="154.834" x="122.9185" y="617.0254">ProgramSelectorWindow</text></g><g class="participant participant-head" data-participant="Workspace"><rect fill="#E2E2F0" height="31.6094" rx="2.5" ry="2.5" style="stroke:#181818;stroke-width:0.5;" width="177.3857" x="294.7524" y="88.6094"/><text fill="#000000" font-family="sans-serif" font-size="14" lengthAdjust="spacing" textLength="163.3857" x="301.7524" y="110.1426">ProjectWorkspaceWindow</text></g><g class="participant participant-tail" data-participant="Workspace"><rect fill="#E2E2F0" height="31.6094" rx="2.5" ry="2.5" style="stroke:#181818;stroke-width:0.5;" width="177.3857" x="294.7524" y="595.4922"/><text fill="#000000" font-family="sans-serif" font-size="14" lengthAdjust="spacing" textLength="163.3857" x="301.7524" y="617.0254">ProjectWorkspaceWindow</text></g><g class="participant participant-head" data-participant="Navigation"><rect fill="#E2E2F0" height="31.6094" rx="2.5" ry="2.5" style="stroke:#181818;stroke-width:0.5;" width="193.7441" x="482.1382" y="88.6094"/><text fill="#000000" font-family="sans-serif" font-size="14" lengthAdjust="spacing" textLength="179.7441" x="489.1382" y="110.1426">WorkspaceNavigationWidget</text></g><g class="participant participant-tail" data-participant="Navigation"><rect fill="#E2E2F0" height="31.6094" rx="2.5" ry="2.5" style="stroke:#181818;stroke-width:0.5;" width="193.7441" x="482.1382" y="595.4922"/><text fill="#000000" font-family="sans-serif" font-size="14" lengthAdjust="spacing" textLength="179.7441" x="489.1382" y="617.0254">WorkspaceNavigationWidget</text></g><g class="participant participant-head" data-participant="PageStack"><rect fill="#E2E2F0" height="31.6094" rx="2.5" ry="2.5" style="stroke:#181818;stroke-width:0.5;" width="151.7305" x="705.8633" y="88.6094"/><text fill="#000000" font-family="sans-serif" font-size="14" lengthAdjust="spacing" textLength="137.7305" x="712.8633" y="110.1426">WorkspacePageStack</text></g><g class="participant participant-tail" data-participant="PageStack"><rect fill="#E2E2F0" height="31.6094" rx="2.5" ry="2.5" style="stroke:#181818;stroke-width:0.5;" width="151.7305" x="705.8633" y="595.4922"/><text fill="#000000" font-family="sans-serif" font-size="14" lengthAdjust="spacing" textLength="137.7305" x="712.8633" y="617.0254">WorkspacePageStack</text></g><g class="participant participant-head" data-participant="Session"><rect fill="#E2E2F0" height="31.6094" rx="2.5" ry="2.5" style="stroke:#181818;stroke-width:0.5;" width="125.2959" x="867.5938" y="88.6094"/><text fill="#000000" font-family="sans-serif" font-size="14" lengthAdjust="spacing" textLength="111.2959" x="874.5938" y="110.1426">LiveSessionPanel</text></g><g class="participant participant-tail" data-participant="Session"><rect fill="#E2E2F0" height="31.6094" rx="2.5" ry="2.5" style="stroke:#181818;stroke-width:0.5;" width="125.2959" x="867.5938" y="595.4922"/><text fill="#000000" font-family="sans-serif" font-size="14" lengthAdjust="spacing" textLength="111.2959" x="874.5938" y="617.0254">LiveSessionPanel</text></g><g class="participant participant-head" data-participant="Console"><rect fill="#E2E2F0" height="31.6094" rx="2.5" ry="2.5" style="stroke:#181818;stroke-width:0.5;" width="101.1719" x="1002.8896" y="88.6094"/><text fill="#000000" font-family="sans-serif" font-size="14" lengthAdjust="spacing" textLength="87.1719" x="1009.8896" y="110.1426">ConsolePanel</text></g><g class="participant participant-tail" data-participant="Console"><rect fill="#E2E2F0" height="31.6094" rx="2.5" ry="2.5" style="stroke:#181818;stroke-width:0.5;" width="101.1719" x="1002.8896" y="595.4922"/><text fill="#000000" font-family="sans-serif" font-size="14" lengthAdjust="spacing" textLength="87.1719" x="1009.8896" y="617.0254">ConsolePanel</text></g><g class="participant participant-head" data-participant="Bridge"><rect fill="#E2E2F0" height="31.6094" rx="2.5" ry="2.5" style="stroke:#181818;stroke-width:0.5;" width="176.6201" x="1114.0615" y="88.6094"/><text fill="#000000" font-family="sans-serif" font-size="14" lengthAdjust="spacing" textLength="162.6201" x="1121.0615" y="110.1426">WorkspaceRuntimeBridge</text></g><g class="participant participant-tail" data-participant="Bridge"><rect fill="#E2E2F0" height="31.6094" rx="2.5" ry="2.5" style="stroke:#181818;stroke-width:0.5;" width="176.6201" x="1114.0615" y="595.4922"/><text fill="#000000" font-family="sans-serif" font-size="14" lengthAdjust="spacing" textLength="162.6201" x="1121.0615" y="617.0254">WorkspaceRuntimeBridge</text></g><g class="message" data-participant-1="User" data-participant-2="Selector"><polygon fill="#181818" points="188.3354,149.5703,198.3354,153.5703,188.3354,157.5703,192.3354,153.5703" style="stroke:#181818;stroke-width:1;"/><line style="stroke:#181818;stroke-width:1;" x1="22.7793" x2="194.3354" y1="153.5703" y2="153.5703"/><text fill="#000000" font-family="sans-serif" font-size="13" lengthAdjust="spacing" textLength="153.5562" x="29.7793" y="148.7139">select valid project + Open</text></g><g class="message" data-participant-1="Selector" data-participant-2="Workspace"><polygon fill="#181818" points="371.4453,179.9219,381.4453,183.9219,371.4453,187.9219,375.4453,183.9219" style="stroke:#181818;stroke-width:1;"/><line style="stroke:#181818;stroke-width:1;" x1="200.3354" x2="377.4453" y1="183.9219" y2="183.9219"/><text fill="#000000" font-family="sans-serif" font-size="13" lengthAdjust="spacing" textLength="143.0762" x="207.3354" y="179.0654">create(project_definition)</text></g><g class="message" data-participant-1="Workspace" data-participant-2="Navigation"><polygon fill="#181818" points="567.0103,210.2734,577.0103,214.2734,567.0103,218.2734,571.0103,214.2734" style="stroke:#181818;stroke-width:1;"/><line style="stroke:#181818;stroke-width:1;" x1="383.4453" x2="573.0103" y1="214.2734" y2="214.2734"/><text fill="#000000" font-family="sans-serif" font-size="13" lengthAdjust="spacing" textLength="107.6309" x="390.4453" y="209.417">set first-level items</text></g><g class="message" data-participant-1="Workspace" data-participant-2="PageStack"><polygon fill="#181818" points="769.7285,240.625,779.7285,244.625,769.7285,248.625,773.7285,244.625" style="stroke:#181818;stroke-width:1;"/><line style="stroke:#181818;stroke-width:1;" x1="383.4453" x2="775.7285" y1="244.625" y2="244.625"/><text fill="#000000" font-family="sans-serif" font-size="13" lengthAdjust="spacing" textLength="374.2832" x="390.4453" y="239.7686">register overview/firmware/mechanical/application/settings pages</text></g><g class="message" data-participant-1="Workspace" data-participant-2="Session"><polygon fill="#181818" points="918.2417,270.9766,928.2417,274.9766,918.2417,278.9766,922.2417,274.9766" style="stroke:#181818;stroke-width:1;"/><line style="stroke:#181818;stroke-width:1;" x1="383.4453" x2="924.2417" y1="274.9766" y2="274.9766"/><text fill="#000000" font-family="sans-serif" font-size="13" lengthAdjust="spacing" textLength="161.1479" x="390.4453" y="270.1201">update_state(initial session)</text></g><g class="message" data-participant-1="Workspace" data-participant-2="Console"><polygon fill="#181818" points="1041.4756,301.3281,1051.4756,305.3281,1041.4756,309.3281,1045.4756,305.3281" style="stroke:#181818;stroke-width:1;"/><line style="stroke:#181818;stroke-width:1;" x1="383.4453" x2="1047.4756" y1="305.3281" y2="305.3281"/><text fill="#000000" font-family="sans-serif" font-size="13" lengthAdjust="spacing" textLength="130.0825" x="390.4453" y="300.4717">initialize console panel</text></g><g class="message" data-participant-1="Workspace" data-participant-2="Bridge"><polygon fill="#181818" points="1190.3716,331.6797,1200.3716,335.6797,1190.3716,339.6797,1194.3716,335.6797" style="stroke:#181818;stroke-width:1;"/><line style="stroke:#181818;stroke-width:1;" x1="383.4453" x2="1196.3716" y1="335.6797" y2="335.6797"/><text fill="#000000" font-family="sans-serif" font-size="13" lengthAdjust="spacing" textLength="138.0298" x="390.4453" y="330.8232">get_session_snapshot()</text></g><g class="message" data-participant-1="Bridge" data-participant-2="Workspace"><polygon fill="#181818" points="394.4453,362.0313,384.4453,366.0313,394.4453,370.0313,390.4453,366.0313" style="stroke:#181818;stroke-width:1;"/><line style="stroke:#181818;stroke-width:1;stroke-dasharray:2,2;" x1="388.4453" x2="1201.3716" y1="366.0313" y2="366.0313"/><text fill="#000000" font-family="sans-serif" font-size="13" lengthAdjust="spacing" textLength="141.6226" x="400.4453" y="361.1748">WorkspaceSessionState</text></g><g class="message" data-participant-1="Workspace" data-participant-2="PageStack"><polygon fill="#181818" points="769.7285,392.3828,779.7285,396.3828,769.7285,400.3828,773.7285,396.3828" style="stroke:#181818;stroke-width:1;"/><line style="stroke:#181818;stroke-width:1;" x1="383.4453" x2="775.7285" y1="396.3828" y2="396.3828"/><text fill="#000000" font-family="sans-serif" font-size="13" lengthAdjust="spacing" textLength="135.6812" x="390.4453" y="391.5264">show_page("overview")</text></g><g class="message" data-participant-1="Workspace" data-participant-2="User"><polygon fill="#181818" points="33.7793,422.7344,23.7793,426.7344,33.7793,430.7344,29.7793,426.7344" style="stroke:#181818;stroke-width:1;"/><line style="stroke:#181818;stroke-width:1;" x1="27.7793" x2="382.4453" y1="426.7344" y2="426.7344"/><text fill="#000000" font-family="sans-serif" font-size="13" lengthAdjust="spacing" textLength="126.4453" x="39.7793" y="421.8779">show workspace shell</text></g><g class="message" data-participant-1="User" data-participant-2="Navigation"><polygon fill="#181818" points="567.0103,453.0859,577.0103,457.0859,567.0103,461.0859,571.0103,457.0859" style="stroke:#181818;stroke-width:1;"/><line style="stroke:#181818;stroke-width:1;" x1="22.7793" x2="573.0103" y1="457.0859" y2="457.0859"/><text fill="#000000" font-family="sans-serif" font-size="13" lengthAdjust="spacing" textLength="112.5566" x="29.7793" y="452.2295">select "mechanical"</text></g><g class="message" data-participant-1="Navigation" data-participant-2="Workspace"><polygon fill="#181818" points="394.4453,483.4375,384.4453,487.4375,394.4453,491.4375,390.4453,487.4375" style="stroke:#181818;stroke-width:1;"/><line style="stroke:#181818;stroke-width:1;" x1="388.4453" x2="578.0103" y1="487.4375" y2="487.4375"/><text fill="#000000" font-family="sans-serif" font-size="13" lengthAdjust="spacing" textLength="168.2129" x="400.4453" y="482.5811">page_selected("mechanical")</text></g><g class="message" data-participant-1="Workspace" data-participant-2="PageStack"><polygon fill="#181818" points="769.7285,513.7891,779.7285,517.7891,769.7285,521.7891,773.7285,517.7891" style="stroke:#181818;stroke-width:1;"/><line style="stroke:#181818;stroke-width:1;" x1="383.4453" x2="775.7285" y1="517.7891" y2="517.7891"/><text fill="#000000" font-family="sans-serif" font-size="13" lengthAdjust="spacing" textLength="150.1411" x="390.4453" y="512.9326">show_page("mechanical")</text></g><g class="message" data-participant-1="Workspace" data-participant-2="Session"><polygon fill="#181818" points="918.2417,544.1406,928.2417,548.1406,918.2417,552.1406,922.2417,548.1406" style="stroke:#181818;stroke-width:1;"/><line style="stroke:#181818;stroke-width:1;" x1="383.4453" x2="924.2417" y1="548.1406" y2="548.1406"/><text fill="#000000" font-family="sans-serif" font-size="13" lengthAdjust="spacing" textLength="161.1353" x="390.4453" y="543.2842">keep shell-level state visible</text></g><g class="message" data-participant-1="Workspace" data-participant-2="Console"><polygon fill="#181818" points="1041.4756,574.4922,1051.4756,578.4922,1041.4756,582.4922,1045.4756,578.4922" style="stroke:#181818;stroke-width:1;"/><line style="stroke:#181818;stroke-width:1;" x1="383.4453" x2="1047.4756" y1="578.4922" y2="578.4922"/><text fill="#000000" font-family="sans-serif" font-size="13" lengthAdjust="spacing" textLength="177.7598" x="390.4453" y="573.6357">keep shell-level console visible</text></g><!--SRC=[ZLF1hfim4Bpp5IjEYIgKfnxVeL9RzLQrQQ8gHxI53Td6CQxjWDIlxzeu47X2wisiPtR7CujdhmWENtuKBo_luTJQgpDO4Hmlf1Hyr3KSMW7iiI471Hn9KULR2xvz1jEVE-cACdTbRT3Y3Tm5wxPdtS0PbQCimqZxwSXcWl1SiK7j8T_RjX72e_69jV1oG3VEUeF_BULn-1DXhCqPO_aRTjoWvrQVk6x8Hz9KN665fnyzLjS87x_cwA_SqP6SapPxrAJI0s9XZlpSQYUEJgXKM9b-k6lFD_faW-A87uvP5go4uiCKoIkuU8GE5TTW1gFW7NmtfBCH9fGfkLUeBA6dJKANDPrPSx1ZcqqmuKm-nK4UpcoTBnHrf80ztTmSFnebS4iDEozosuvinzJlX7phqTBkHjK5DLUeTcYCaaCOiPC1NfR7WGcBD- -SR9M-TrEBzjBvy88e6vLeYzSB-Sbb8IKS_oMeKj64CERumMM1ovwKgMNfD1ftQVrccwNxOk7cU4uYZq7QkZ7Ih2_34pVvmvfy8Jp6F22X7ozS-3t75LXa4vSWdvpDioV0Gd0ONWuKgZVFfEr_oLudJ35TYSoWEArB30mwTlnBqLfERrYFj1Bl7m00]--></g></svg>