<svg xmlns="http://www.w3.org/2000/svg" xmlns:xlink="http://www.w3.org/1999/xlink" contentStyleType="text/css" data-diagram-type="DESCRIPTION" height="754px" preserveAspectRatio="none" style="width:1747px;height:754px;background:#FFFFFF;" version="1.1" viewBox="0 0 1747 754" width="1747px" zoomAndPan="magnify"><title>REQ-002 Workspace Shell And Role Pages - Architecture</title><defs/><g><g class="title" data-source-line="1"><text fill="#000000" font-family="sans-serif" font-size="14" font-weight="bold" lengthAdjust="spacing" textLength="379.668" x="676.9163" y="24.5332">REQ-002 Workspace Shell And Role Pages - Architecture</text></g><!--cluster Entry Layer--><g class="cluster" data-entity="Entry Layer" data-source-line="7" data-uid="ent0003" id="cluster_Entry Layer"><rect fill="none" height="241" rx="2.5" ry="2.5" style="stroke:#181818;stroke-width:1;" width="228" x="962" y="45.6094"/><text fill="#000000" font-family="sans-serif" font-size="14" font-weight="bold" lengthAdjust="spacing" textLength="77.0342" x="1037.4829" y="62.1426">Entry Layer</text></g><!--cluster Project Context--><g class="cluster" data-entity="Project Context" data-source-line="12" data-uid="ent0006" id="cluster_Project Context"><rect fill="none" height="261.5" rx="2.5" ry="2.5" style="stroke:#181818;stroke-width:1;" width="174" x="1265" y="336.6094"/><text fill="#000000" font-family="sans-serif" font-size="14" font-weight="bold" lengthAdjust="spacing" textLength="103.4619" x="1300.269" y="353.1426">Project Context</text></g><!--cluster Workspace Shell--><g class="cluster" data-entity="Workspace Shell" data-source-line="17" data-uid="ent0009" id="cluster_Workspace Shell"><rect fill="none" height="261.5" rx="2.5" ry="2.5" style="stroke:#181818;stroke-width:1;" width="814" x="7" y="336.6094"/><text fill="#000000" font-family="sans-serif" font-size="14" font-weight="bold" lengthAdjust="spacing" textLength="112.041" x="357.9795" y="353.1426">Workspace Shell</text></g><!--cluster Role Pages--><g class="cluster" data-entity="Role Pages" data-source-line="25" data-uid="ent0015" id="cluster_Role Pages"><rect fill="none" height="100" rx="2.5" ry="2.5" style="stroke:#181818;stroke-width:1;" width="911" x="18" y="648.1094"/><text fill="#000000" font-family="sans-serif" font-size="14" font-weight="bold" lengthAdjust="spacing" textLength="75.4756" x="435.7622" y="664.6426">Role Pages</text></g><!--cluster Transition Layer--><g class="cluster" data-entity="Transition Layer" data-source-line="33" data-uid="ent0021" id="cluster_Transition Layer"><rect fill="none" height="250" rx="2.5" ry="2.5" style="stroke:#181818;stroke-width:1;" width="288" x="953" y="498.1094"/><text fill="#000000" font-family="sans-serif" font-size="14" font-weight="bold" lengthAdjust="spacing" textLength="108.917" x="1042.5415" y="514.6426">Transition Layer</text></g><!--entity MainEntry--><g class="entity" data-entity="MainEntry" data-source-line="8" data-uid="ent0004" id="entity_MainEntry"><rect fill="#F1F1F1" height="47.6094" rx="2.5" ry="2.5" style="stroke:#181818;stroke-width:0.5;" width="89.0205" x="1031.5" y="81.6094"/><rect fill="#F1F1F1" height="10" style="stroke:#181818;stroke-width:0.5;" width="15" x="1100.5205" y="86.6094"/><rect fill="#F1F1F1" height="2" style="stroke:#181818;stroke-width:0.5;" width="4" x="1098.5205" y="88.6094"/><rect fill="#F1F1F1" height="2" style="stroke:#181818;stroke-width:0.5;" width="4" x="1098.5205" y="92.6094"/><text fill="#000000" font-family="sans-serif" font-size="14" lengthAdjust="spacing" textLength="49.0205" x="1046.5" y="116.1426">main.py</text></g><!--entity Selector--><g class="entity" data-entity="Selector" data-source-line="9" data-uid="ent0005" id="entity_Selector"><rect fill="#F1F1F1" height="47.6094" rx="2.5" ry="2.5" style="stroke:#181818;stroke-width:0.5;" width="194.834" x="978.5" y="222.6094"/><rect fill="#F1F1F1" height="10" style="stroke:#181818;stroke-width:0.5;" width="15" x="1153.334" y="227.6094"/><rect fill="#F1F1F1" height="2" style="stroke:#181818;stroke-width:0.5;" width="4" x="1151.334" y="229.6094"/><rect fill="#F1F1F1" height="2" style="stroke:#181818;stroke-width:0.5;" width="4" x="1151.334" y="233.6094"/><text fill="#000000" font-family="sans-serif" font-size="14" lengthAdjust="spacing" textLength="154.834" x="993.5" y="257.1426">ProgramSelectorWindow</text></g><!--entity Loader--><g class="entity" data-entity="Loader" data-source-line="13" data-uid="ent0007" id="entity_Loader"><rect fill="#F1F1F1" height="47.6094" rx="2.5" ry="2.5" style="stroke:#181818;stroke-width:0.5;" width="128.7236" x="1281.5" y="372.6094"/><rect fill="#F1F1F1" height="10" style="stroke:#181818;stroke-width:0.5;" width="15" x="1390.2236" y="377.6094"/><rect fill="#F1F1F1" height="2" style="stroke:#181818;stroke-width:0.5;" width="4" x="1388.2236" y="379.6094"/><rect fill="#F1F1F1" height="2" style="stroke:#181818;stroke-width:0.5;" width="4" x="1388.2236" y="383.6094"/><text fill="#000000" font-family="sans-serif" font-size="14" lengthAdjust="spacing" textLength="88.7236" x="1296.5" y="407.1426">project_loader</text></g><!--entity ProjectDefinition--><g class="entity" data-entity="ProjectDefinition" data-source-line="14" data-uid="ent0008" id="entity_ProjectDefinition"><rect fill="#F1F1F1" height="47.6094" rx="2.5" ry="2.5" style="stroke:#181818;stroke-width:0.5;" width="141.9375" x="1281" y="534.1094"/><rect fill="#F1F1F1" height="10" style="stroke:#181818;stroke-width:0.5;" width="15" x="1402.9375" y="539.1094"/><rect fill="#F1F1F1" height="2" style="stroke:#181818;stroke-width:0.5;" width="4" x="1400.9375" y="541.1094"/><rect fill="#F1F1F1" height="2" style="stroke:#181818;stroke-width:0.5;" width="4" x="1400.9375" y="545.1094"/><text fill="#000000" font-family="sans-serif" font-size="14" lengthAdjust="spacing" textLength="101.9375" x="1296" y="568.6426">ProjectDefinition</text></g><!--entity Workspace--><g class="entity" data-entity="Workspace" data-source-line="18" data-uid="ent0010" id="entity_Workspace"><rect fill="#F1F1F1" height="47.6094" rx="2.5" ry="2.5" style="stroke:#181818;stroke-width:0.5;" width="203.3857" x="601.5" y="372.6094"/><rect fill="#F1F1F1" height="10" style="stroke:#181818;stroke-width:0.5;" width="15" x="784.8857" y="377.6094"/><rect fill="#F1F1F1" height="2" style="stroke:#181818;stroke-width:0.5;" width="4" x="782.8857" y="379.6094"/><rect fill="#F1F1F1" height="2" style="stroke:#181818;stroke-width:0.5;" width="4" x="782.8857" y="383.6094"/><text fill="#000000" font-family="sans-serif" font-size="14" lengthAdjust="spacing" textLength="163.3857" x="616.5" y="407.1426">ProjectWorkspaceWindow</text></g><!--entity Navigation--><g class="entity" data-entity="Navigation" data-source-line="19" data-uid="ent0011" id="entity_Navigation"><rect fill="#F1F1F1" height="47.6094" rx="2.5" ry="2.5" style="stroke:#181818;stroke-width:0.5;" width="219.7441" x="23" y="534.1094"/><rect fill="#F1F1F1" height="10" style="stroke:#181818;stroke-width:0.5;" width="15" x="222.7441" y="539.1094"/><rect fill="#F1F1F1" height="2" style="stroke:#181818;stroke-width:0.5;" width="4" x="220.7441" y="541.1094"/><rect fill="#F1F1F1" height="2" style="stroke:#181818;stroke-width:0.5;" width="4" x="220.7441" y="545.1094"/><text fill="#000000" font-family="sans-serif" font-size="14" lengthAdjust="spacing" textLength="179.7441" x="38" y="568.6426">WorkspaceNavigationWidget</text></g><!--entity Session--><g class="entity" data-entity="Session" data-source-line="20" data-uid="ent0012" id="entity_Session"><rect fill="#F1F1F1" height="47.6094" rx="2.5" ry="2.5" style="stroke:#181818;stroke-width:0.5;" width="151.2959" x="278.5" y="534.1094"/><rect fill="#F1F1F1" height="10" style="stroke:#181818;stroke-width:0.5;" width="15" x="409.7959" y="539.1094"/><rect fill="#F1F1F1" height="2" style="stroke:#181818;stroke-width:0.5;" width="4" x="407.7959" y="541.1094"/><rect fill="#F1F1F1" height="2" style="stroke:#181818;stroke-width:0.5;" width="4" x="407.7959" y="545.1094"/><text fill="#000000" font-family="sans-serif" font-size="14" lengthAdjust="spacing" textLength="111.2959" x="293.5" y="568.6426">LiveSessionPanel</text></g><!--entity Console--><g class="entity" data-entity="Console" data-source-line="21" data-uid="ent0013" id="entity_Console"><rect fill="#F1F1F1" height="47.6094" rx="2.5" ry="2.5" style="stroke:#181818;stroke-width:0.5;" width="127.1719" x="464.5" y="534.1094"/><rect fill="#F1F1F1" height="10" style="stroke:#181818;stroke-width:0.5;" width="15" x="571.6719" y="539.1094"/><rect fill="#F1F1F1" height="2" style="stroke:#181818;stroke-width:0.5;" width="4" x="569.6719" y="541.1094"/><rect fill="#F1F1F1" height="2" style="stroke:#181818;stroke-width:0.5;" width="4" x="569.6719" y="545.1094"/><text fill="#000000" font-family="sans-serif" font-size="14" lengthAdjust="spacing" textLength="87.1719" x="479.5" y="568.6426">ConsolePanel</text></g><!--entity PageStack--><g class="entity" data-entity="PageStack" data-source-line="22" data-uid="ent0014" id="entity_PageStack"><rect fill="#F1F1F1" height="47.6094" rx="2.5" ry="2.5" style="stroke:#181818;stroke-width:0.5;" width="177.7305" x="627" y="534.1094"/><rect fill="#F1F1F1" height="10" style="stroke:#181818;stroke-width:0.5;" width="15" x="784.7305" y="539.1094"/><rect fill="#F1F1F1" height="2" style="stroke:#181818;stroke-width:0.5;" width="4" x="782.7305" y="541.1094"/><rect fill="#F1F1F1" height="2" style="stroke:#181818;stroke-width:0.5;" width="4" x="782.7305" y="545.1094"/><text fill="#000000" font-family="sans-serif" font-size="14" lengthAdjust="spacing" textLength="137.7305" x="642" y="568.6426">WorkspacePageStack</text></g><!--entity OverviewPage--><g class="entity" data-entity="OverviewPage" data-source-line="26" data-uid="ent0016" id="entity_OverviewPage"><rect fill="#F1F1F1" height="47.6094" rx="2.5" ry="2.5" style="stroke:#181818;stroke-width:0.5;" width="131.041" x="781.5" y="684.1094"/><rect fill="#F1F1F1" height="10" style="stroke:#181818;stroke-width:0.5;" width="15" x="892.541" y="689.1094"/><rect fill="#F1F1F1" height="2" style="stroke:#181818;stroke-width:0.5;" width="4" x="890.541" y="691.1094"/><rect fill="#F1F1F1" height="2" style="stroke:#181818;stroke-width:0.5;" width="4" x="890.541" y="695.1094"/><text fill="#000000" font-family="sans-serif" font-size="14" lengthAdjust="spacing" textLength="91.041" x="796.5" y="718.6426">OverviewPage</text></g><!--entity FirmwarePage--><g class="entity" data-entity="FirmwarePage" data-source-line="27" data-uid="ent0017" id="entity_FirmwarePage"><rect fill="#F1F1F1" height="47.6094" rx="2.5" ry="2.5" style="stroke:#181818;stroke-width:0.5;" width="131.0273" x="34.5" y="684.1094"/><rect fill="#F1F1F1" height="10" style="stroke:#181818;stroke-width:0.5;" width="15" x="145.5273" y="689.1094"/><rect fill="#F1F1F1" height="2" style="stroke:#181818;stroke-width:0.5;" width="4" x="143.5273" y="691.1094"/><rect fill="#F1F1F1" height="2" style="stroke:#181818;stroke-width:0.5;" width="4" x="143.5273" y="695.1094"/><text fill="#000000" font-family="sans-serif" font-size="14" lengthAdjust="spacing" textLength="91.0273" x="49.5" y="718.6426">FirmwarePage</text></g><!--entity MechanicalPage--><g class="entity" data-entity="MechanicalPage" data-source-line="28" data-uid="ent0018" id="entity_MechanicalPage"><rect fill="#F1F1F1" height="47.6094" rx="2.5" ry="2.5" style="stroke:#181818;stroke-width:0.5;" width="143.5098" x="201" y="684.1094"/><rect fill="#F1F1F1" height="10" style="stroke:#181818;stroke-width:0.5;" width="15" x="324.5098" y="689.1094"/><rect fill="#F1F1F1" height="2" style="stroke:#181818;stroke-width:0.5;" width="4" x="322.5098" y="691.1094"/><rect fill="#F1F1F1" height="2" style="stroke:#181818;stroke-width:0.5;" width="4" x="322.5098" y="695.1094"/><text fill="#000000" font-family="sans-serif" font-size="14" lengthAdjust="spacing" textLength="103.5098" x="216" y="718.6426">MechanicalPage</text></g><!--entity ApplicationPage--><g class="entity" data-entity="ApplicationPage" data-source-line="29" data-uid="ent0019" id="entity_ApplicationPage"><rect fill="#F1F1F1" height="47.6094" rx="2.5" ry="2.5" style="stroke:#181818;stroke-width:0.5;" width="208.1162" x="380" y="684.1094"/><rect fill="#F1F1F1" height="10" style="stroke:#181818;stroke-width:0.5;" width="15" x="568.1162" y="689.1094"/><rect fill="#F1F1F1" height="2" style="stroke:#181818;stroke-width:0.5;" width="4" x="566.1162" y="691.1094"/><rect fill="#F1F1F1" height="2" style="stroke:#181818;stroke-width:0.5;" width="4" x="566.1162" y="695.1094"/><text fill="#000000" font-family="sans-serif" font-size="14" lengthAdjust="spacing" textLength="168.1162" x="395" y="718.6426">ApplicationProductionPage</text></g><!--entity SettingsPage--><g class="entity" data-entity="SettingsPage" data-source-line="30" data-uid="ent0020" id="entity_SettingsPage"><rect fill="#F1F1F1" height="47.6094" rx="2.5" ry="2.5" style="stroke:#181818;stroke-width:0.5;" width="123.2822" x="623.5" y="684.1094"/><rect fill="#F1F1F1" height="10" style="stroke:#181818;stroke-width:0.5;" width="15" x="726.7822" y="689.1094"/><rect fill="#F1F1F1" height="2" style="stroke:#181818;stroke-width:0.5;" width="4" x="724.7822" y="691.1094"/><rect fill="#F1F1F1" height="2" style="stroke:#181818;stroke-width:0.5;" width="4" x="724.7822" y="695.1094"/><text fill="#000000" font-family="sans-serif" font-size="14" lengthAdjust="spacing" textLength="83.2822" x="638.5" y="718.6426">SettingsPage</text></g><!--entity Bridge--><g class="entity" data-entity="Bridge" data-source-line="34" data-uid="ent0022" id="entity_Bridge"><rect fill="#F1F1F1" height="47.6094" rx="2.5" ry="2.5" style="stroke:#181818;stroke-width:0.5;" width="202.6201" x="982.5" y="534.1094"/><rect fill="#F1F1F1" height="10" style="stroke:#181818;stroke-width:0.5;" width="15" x="1165.1201" y="539.1094"/><rect fill="#F1F1F1" height="2" style="stroke:#181818;stroke-width:0.5;" width="4" x="1163.1201" y="541.1094"/><rect fill="#F1F1F1" height="2" style="stroke:#181818;stroke-width:0.5;" width="4" x="1163.1201" y="545.1094"/><text fill="#000000" font-family="sans-serif" font-size="14" lengthAdjust="spacing" textLength="162.6201" x="997.5" y="568.6426">WorkspaceRuntimeBridge</text></g><!--entity LegacyHooks--><g class="entity" data-entity="LegacyHooks" data-source-line="35" data-uid="ent0023" id="entity_LegacyHooks"><rect fill="#F1F1F1" height="47.6094" rx="2.5" ry="2.5" style="stroke:#181818;stroke-width:0.5;" width="256.3438" x="969" y="684.1094"/><rect fill="#F1F1F1" height="10" style="stroke:#181818;stroke-width:0.5;" width="15" x="1205.3438" y="689.1094"/><rect fill="#F1F1F1" height="2" style="stroke:#181818;stroke-width:0.5;" width="4" x="1203.3438" y="691.1094"/><rect fill="#F1F1F1" height="2" style="stroke:#181818;stroke-width:0.5;" width="4" x="1203.3438" y="695.1094"/><text fill="#000000" font-family="sans-serif" font-size="14" lengthAdjust="spacing" textLength="216.3438" x="984" y="718.6426">Existing dialogs and runtime hooks</text></g><!--entity User--><g class="entity" data-entity="User" data-source-line="5" data-uid="ent0002" id="entity_User"><ellipse cx="1220.7793" cy="75.1094" fill="#F1F1F1" rx="8" ry="8" style="stroke:#181818;stroke-width:0.5;"/><path d="M1220.7793,83.1094 L1220.7793,110.1094 M1207.7793,91.1094 L1233.7793,91.1094 M1220.7793,110.1094 L1207.7793,125.1094 M1220.7793,110.1094 L1233.7793,125.1094" fill="none" style="stroke:#181818;stroke-width:0.5;"/><text fill="#000000" font-family="sans-serif" font-size="14" lengthAdjust="spacing" textLength="29.5586" x="1206" y="141.1426">User</text></g><g class="entity" data-entity="GMN40" data-source-line="59" data-uid="ent0041" id="entity_GMN40"><path d="M1455,359.1094 L1455,434.5156 L1740.5005,434.5156 L1740.5005,369.1094 L1730.5005,359.1094 L1455,359.1094" fill="#FEFFDD" style="stroke:#181818;stroke-width:0.5;"/><path d="M1730.5005,359.1094 L1730.5005,369.1094 L1740.5005,369.1094 L1730.5005,359.1094" fill="#FEFFDD" style="stroke:#181818;stroke-width:1;"/><text fill="#000000" font-family="sans-serif" font-size="13" lengthAdjust="spacing" textLength="264.5005" x="1461" y="377.6045">Phase 2 changes the top-level runtime shape:</text><text fill="#000000" font-family="sans-serif" font-size="13" lengthAdjust="spacing" textLength="210.2725" x="1461" y="393.9561">- selector opens the workspace shell</text><text fill="#000000" font-family="sans-serif" font-size="13" lengthAdjust="spacing" textLength="175.6016" x="1461" y="410.3076">- shell owns routing and layout</text><text fill="#000000" font-family="sans-serif" font-size="13" lengthAdjust="spacing" textLength="219.6733" x="1461" y="426.6592">- legacy logic is bridged, not promoted</text></g><!--link User to Selector--><g class="link" data-entity-1="User" data-entity-2="Selector" data-source-line="38" data-uid="lnk24" id="link_User_Selector"><path d="M1205.94,138.2594 C1196.51,155.7594 1183.09,177.0394 1167,192.6094 C1155.04,204.1794 1145.3053,211.2528 1130.9953,219.3928" fill="none" id="User-to-Selector" style="stroke:#181818;stroke-width:1;"/><polygon fill="#181818" points="1125.78,222.3594,1135.5807,221.3863,1130.1261,219.8872,1131.6252,214.4326,1125.78,222.3594" style="stroke:#181818;stroke-width:1;"/><text fill="#000000" font-family="sans-serif" font-size="13" lengthAdjust="spacing" textLength="84.5508" x="1182" y="189.1045">choose project</text></g><!--link MainEntry to Selector--><g class="link" data-entity-1="MainEntry" data-entity-2="Selector" data-source-line="39" data-uid="lnk25" id="link_MainEntry_Selector"><path d="M1076,129.8794 C1076,155.5294 1076,190.5794 1076,216.2694" fill="none" id="MainEntry-to-Selector" style="stroke:#181818;stroke-width:1;"/><polygon fill="#181818" points="1076,222.2694,1080,213.2694,1076,217.2694,1072,213.2694,1076,222.2694" style="stroke:#181818;stroke-width:1;"/><text fill="#000000" font-family="sans-serif" font-size="13" lengthAdjust="spacing" textLength="81.2944" x="1077" y="189.1045">create + show</text></g><!--link Selector to Loader--><g class="link" data-entity-1="Selector" data-entity-2="Loader" data-source-line="40" data-uid="lnk26" id="link_Selector_Loader"><path d="M1118.19,270.7294 C1168.76,298.4594 1247.7587,341.7552 1298.3987,369.5152" fill="none" id="Selector-to-Loader" style="stroke:#181818;stroke-width:1;"/><polygon fill="#181818" points="1303.66,372.3994,1297.6908,364.5656,1299.2756,369.9959,1293.8452,371.5807,1303.66,372.3994" style="stroke:#181818;stroke-width:1;"/><text fill="#000000" font-family="sans-serif" font-size="13" lengthAdjust="spacing" textLength="144.5298" x="1203" y="317.1045">load_available_projects()</text></g><!--link Loader to ProjectDefinition--><g class="link" data-entity-1="Loader" data-entity-2="ProjectDefinition" data-source-line="41" data-uid="lnk27" id="link_Loader_ProjectDefinition"><path d="M1346.87,420.7994 C1348.01,451.0394 1349.764,497.6436 1350.904,527.8936" fill="none" id="Loader-to-ProjectDefinition" style="stroke:#181818;stroke-width:1;"/><polygon fill="#181818" points="1351.13,533.8894,1354.7882,524.7451,1350.9417,528.8929,1346.7939,525.0464,1351.13,533.8894" style="stroke:#181818;stroke-width:1;"/><text fill="#000000" font-family="sans-serif" font-size="13" lengthAdjust="spacing" textLength="105.5107" x="1350" y="478.6045">build typed project</text></g><!--link Selector to Workspace--><g class="link" data-entity-1="Selector" data-entity-2="Workspace" data-source-line="42" data-uid="lnk28" id="link_Selector_Workspace"><path d="M1017.72,270.7294 C947.75,298.4994 836.6768,342.566 766.7568,370.316" fill="none" id="Selector-to-Workspace" style="stroke:#181818;stroke-width:1;"/><polygon fill="#181818" points="761.18,372.5294,771.0208,372.9272,765.8274,370.6849,768.0697,365.4915,761.18,372.5294" style="stroke:#181818;stroke-width:1;"/><text fill="#000000" font-family="sans-serif" font-size="13" lengthAdjust="spacing" textLength="135.8652" x="934" y="317.1045">open(project_definition)</text></g><!--link Workspace to Navigation--><g class="link" data-entity-1="Workspace" data-entity-2="Navigation" data-source-line="44" data-uid="lnk29" id="link_Workspace_Navigation"><path d="M601.2,410.7594 C510.18,424.4094 374.1,449.5594 261,490.1094 C229.13,501.5394 200.4575,516.5344 175.5775,530.9944" fill="none" id="Workspace-to-Navigation" style="stroke:#181818;stroke-width:1;"/><polygon fill="#181818" points="170.39,534.0094,180.1812,532.9453,174.7129,531.4969,176.1613,526.0286,170.39,534.0094" style="stroke:#181818;stroke-width:1;"/></g><!--link Workspace to Session--><g class="link" data-entity-1="Workspace" data-entity-2="Session" data-source-line="45" data-uid="lnk30" id="link_Workspace_Session"><path d="M621.57,420.6594 C570.02,436.7794 502.8,460.6694 447,490.1094 C423.77,502.3694 404.4848,516.0885 386.6848,530.0985" fill="none" id="Workspace-to-Session" style="stroke:#181818;stroke-width:1;"/><polygon fill="#181818" points="381.97,533.8094,391.5161,531.3862,385.899,530.717,386.5682,525.0998,381.97,533.8094" style="stroke:#181818;stroke-width:1;"/></g><!--link Workspace to Console--><g class="link" data-entity-1="Workspace" data-entity-2="Console" data-source-line="46" data-uid="lnk31" id="link_Workspace_Console"><path d="M677.55,420.7994 C644.37,451.0394 591.1045,499.5977 557.9145,529.8477" fill="none" id="Workspace-to-Console" style="stroke:#181818;stroke-width:1;"/><polygon fill="#181818" points="553.48,533.8894,562.8262,530.7832,557.1754,530.5213,557.4373,524.8705,553.48,533.8894" style="stroke:#181818;stroke-width:1;"/></g><!--link Workspace to PageStack--><g class="link" data-entity-1="Workspace" data-entity-2="PageStack" data-source-line="47" data-uid="lnk32" id="link_Workspace_PageStack"><path d="M704.89,420.7994 C707.36,451.0394 711.1517,497.6593 713.6217,527.9093" fill="none" id="Workspace-to-PageStack" style="stroke:#181818;stroke-width:1;"/><polygon fill="#181818" points="714.11,533.8894,717.3643,524.5937,713.7031,528.906,709.3908,525.2448,714.11,533.8894" style="stroke:#181818;stroke-width:1;"/></g><!--link PageStack to OverviewPage--><g class="link" data-entity-1="PageStack" data-entity-2="OverviewPage" data-source-line="49" data-uid="lnk33" id="link_PageStack_OverviewPage"><path d="M736.47,582.2294 C760.94,609.8794 797.674,651.3759 822.264,679.1659" fill="none" id="PageStack-to-OverviewPage" style="stroke:#181818;stroke-width:1;"/><polygon fill="#181818" points="826.24,683.6594,823.2716,674.2685,822.9266,679.9148,817.2803,679.5699,826.24,683.6594" style="stroke:#181818;stroke-width:1;"/></g><!--link PageStack to FirmwarePage--><g class="link" data-entity-1="PageStack" data-entity-2="FirmwarePage" data-source-line="50" data-uid="lnk34" id="link_PageStack_FirmwarePage"><path d="M673.55,582.1994 C654.41,591.4294 631.16,601.0594 609,606.1094 C558.92,617.5294 429.18,609.8194 378,614.1094 C290.87,621.4094 263.33,605.5894 183,640.1094 C159.52,650.1994 141.5486,664.7037 125.9886,679.7837" fill="none" id="PageStack-to-FirmwarePage" style="stroke:#181818;stroke-width:1;"/><polygon fill="#181818" points="121.68,683.9594,130.9266,680.5683,125.2705,680.4797,125.3591,674.8235,121.68,683.9594" style="stroke:#181818;stroke-width:1;"/></g><!--link PageStack to MechanicalPage--><g class="link" data-entity-1="PageStack" data-entity-2="MechanicalPage" data-source-line="51" data-uid="lnk35" id="link_PageStack_MechanicalPage"><path d="M670.94,582.2194 C652.22,590.9394 629.99,600.1694 609,606.1094 C502.79,636.1494 465.14,598.2894 363,640.1094 C338.12,650.2994 318.4059,664.9962 301.3759,680.0462" fill="none" id="PageStack-to-MechanicalPage" style="stroke:#181818;stroke-width:1;"/><polygon fill="#181818" points="296.88,684.0194,306.2727,681.0568,300.6266,680.7084,300.9751,675.0622,296.88,684.0194" style="stroke:#181818;stroke-width:1;"/></g><!--link PageStack to ApplicationPage--><g class="link" data-entity-1="PageStack" data-entity-2="ApplicationPage" data-source-line="52" data-uid="lnk36" id="link_PageStack_ApplicationPage"><path d="M679.75,582.2294 C636.29,609.9594 568.9482,652.9122 525.4382,680.6722" fill="none" id="PageStack-to-ApplicationPage" style="stroke:#181818;stroke-width:1;"/><polygon fill="#181818" points="520.38,683.8994,530.1187,682.4307,524.5952,681.21,525.8158,675.6865,520.38,683.8994" style="stroke:#181818;stroke-width:1;"/></g><!--link PageStack to SettingsPage--><g class="link" data-entity-1="PageStack" data-entity-2="SettingsPage" data-source-line="53" data-uid="lnk37" id="link_PageStack_SettingsPage"><path d="M711.16,582.2294 C705.37,609.8794 696.9599,649.9968 691.1399,677.7868" fill="none" id="PageStack-to-SettingsPage" style="stroke:#181818;stroke-width:1;"/><polygon fill="#181818" points="689.91,683.6594,695.6699,675.6704,690.9349,678.7655,687.8398,674.0306,689.91,683.6594" style="stroke:#181818;stroke-width:1;"/></g><!--link Workspace to Bridge--><g class="link" data-entity-1="Workspace" data-entity-2="Bridge" data-source-line="55" data-uid="lnk38" id="link_Workspace_Bridge"><path d="M757.99,420.6294 C830.33,450.9094 951.1653,501.5028 1023.4853,531.7728" fill="none" id="Workspace-to-Bridge" style="stroke:#181818;stroke-width:1;"/><polygon fill="#181818" points="1029.02,534.0894,1022.2623,526.9246,1024.4077,532.1589,1019.1735,534.3043,1029.02,534.0894" style="stroke:#181818;stroke-width:1;"/><text fill="#000000" font-family="sans-serif" font-size="13" lengthAdjust="spacing" textLength="183.5552" x="894" y="478.6045">request transitional data/actions</text></g><!--link Bridge to LegacyHooks--><g class="link" data-entity-1="Bridge" data-entity-2="LegacyHooks" data-source-line="56" data-uid="lnk39" id="link_Bridge_LegacyHooks"><path d="M1086.03,582.2294 C1088.46,609.8794 1091.9752,649.8924 1094.4152,677.6824" fill="none" id="Bridge-to-LegacyHooks" style="stroke:#181818;stroke-width:1;"/><polygon fill="#181818" points="1094.94,683.6594,1098.1375,674.344,1094.5027,678.6785,1090.1681,675.0437,1094.94,683.6594" style="stroke:#181818;stroke-width:1;"/><text fill="#000000" font-family="sans-serif" font-size="13" lengthAdjust="spacing" textLength="118.5107" x="1091" y="628.6045">use narrow adapters</text></g><!--link Workspace to GMN40--><g class="link" data-entity-1="Workspace" data-entity-2="GMN40" data-source-line="59" data-uid="lnk42" id="link_Workspace_GMN40"><path d="M804.8,376.0494 C974.18,343.2594 1306.62,285.3894 1421.5,311.6094 C1462.12,320.8794 1504.28,340.7394 1537.2,358.9394" fill="none" id="Workspace-GMN40" style="stroke:#181818;stroke-width:1;stroke-dasharray:7,7;"/></g><!--SRC=[PLJ1RjGm4BtxAqOzjOA5giSUa0eKSMXXwO9wGAYQ9jF4hDSEjhFR5UBVcN4IRxozsU-z6SzudXrrD0HtrzyMv-SNSE_yEdHO4QnQCWQkR0rtZWLBR2Z00gvyrUf8LUmzgR3MjaEF6mWjrcwdRGDFQCASuMHhZbt5FMVn78YsCQGKLj5v-178ApLguEJQHh-76zoJFu6_2k3d1hLzq-r_0GQuvNLI2B7qhk7yAp8acUwrvGAIR8BKlrbcblzc53uu6-avZjcx0Nqm3cloAVecBSSJXFn8Jzhgg9rD_0kqEERe_iPZnfXCpehDcEZovWjkTOEI_LxN3SKaFO2YlT5RMb48l5sY9JEsdW3XkT70Wpjm8r2SiqoJuUA7rgPTqT9X_6CtNxVajvfsWgMuEI22JzflTkWf2-Q026wfQj7g2asMb928hhhEy5xwvVkh-ogj9lsS7GDM52CxC6JD72XQ-kxHXZIymclvMkvw6_M6tdkv_9HgM8he-ba7oGgrHkEQ0CXFn0y1q3gt3eEDgC5g_rdsShJu71QBTzcSS0aLgmF1w46LtVr2vmaZmIj-P6wdCY6gmQoi4GC_u1QrmKT33sFES7gcHeceNrYN0nzxRMg8-uxgN4bnnC7Hb-0wigVJcwbpcZEb3Yg9cJcr92P_bkZap18zk57bPI8AkvLKORIIEZ9OIHwxgMGB7nrLEHY3xyRJdvv2X9YzXGPgZFWMatE36gLfRWTtS6ZFBh3elTi1rjX5ya4fwtZcNZTj1FSq-oQMBRBy0gGR-P9ZIn1Tjp2q9PEDoFznHvTg0M6QfSnkKEzo0q7-A16blzxjME1TdzmjhZQuvntp9fNB9cjq1Jh0O-gaVWrSfBXcmxNMYZX4gluF]--></g></svg>