<svg xmlns="http://www.w3.org/2000/svg" xmlns:xlink="http://www.w3.org/1999/xlink" contentStyleType="text/css" data-diagram-type="CLASS" height="580px" preserveAspectRatio="none" style="width:1927px;height:580px;background:#FFFFFF;" version="1.1" viewBox="0 0 1927 580" width="1927px" zoomAndPan="magnify"><title>REQ-002 Workspace Shell And Role Pages - Core Classes</title><defs/><g><g class="title" data-source-line="1"><text fill="#000000" font-family="sans-serif" font-size="14" font-weight="bold" lengthAdjust="spacing" textLength="385.916" x="763.6831" y="24.5332">REQ-002 Workspace Shell And Role Pages - Core Classes</text></g><!--class ProjectDefinition--><g class="entity" data-entity="ProjectDefinition" data-source-line="4" data-uid="ent0002" id="entity_ProjectDefinition"><rect fill="#F1F1F1" height="153.6563" rx="2.5" ry="2.5" style="stroke:#181818;stroke-width:0.5;" width="183.1855" x="7" y="223.6094"/><ellipse cx="44.1616" cy="239.6094" fill="#ADD1B2" rx="11" ry="11" style="stroke:#181818;stroke-width:1;"/><path d="M46.9272,235.4844 Q47.0835,235.2656 47.271,235.1563 Q47.4585,235.0469 47.6772,235.0469 Q48.0522,235.0469 48.2866,235.3125 Q48.521,235.5625 48.521,236.1719 L48.521,237.625 Q48.521,238.2344 48.2866,238.5 Q48.0522,238.7656 47.6772,238.7656 Q47.3335,238.7656 47.1304,238.5625 Q46.9272,238.375 46.8179,237.8594 Q46.771,237.5 46.5835,237.3125 Q46.2554,236.9375 45.646,236.7188 Q45.0366,236.5 44.4116,236.5 Q43.646,236.5 43.0054,236.8281 Q42.3804,237.1563 41.8804,237.9063 Q41.396,238.6563 41.396,239.6875 L41.396,240.7813 Q41.396,242.0156 42.2866,242.8438 Q43.1772,243.6563 44.771,243.6563 Q45.7085,243.6563 46.3647,243.4063 Q46.7554,243.25 47.1772,242.8125 Q47.4429,242.5469 47.5835,242.4688 Q47.7397,242.3906 47.9429,242.3906 Q48.271,242.3906 48.521,242.6563 Q48.7866,242.9063 48.7866,243.25 Q48.7866,243.5938 48.4429,244 Q47.9429,244.5781 47.146,244.9063 Q46.0679,245.3594 44.771,245.3594 Q43.2554,245.3594 42.0522,244.7344 Q41.0679,244.2344 40.3804,243.1719 Q39.6929,242.0938 39.6929,240.8125 L39.6929,239.6563 Q39.6929,238.3281 40.3022,237.1875 Q40.9272,236.0313 42.021,235.4219 Q43.1147,234.7969 44.3491,234.7969 Q45.0835,234.7969 45.7241,234.9688 Q46.3804,235.125 46.9272,235.4844 Z " fill="#000000"/><text fill="#000000" font-family="sans-serif" font-size="14" lengthAdjust="spacing" textLength="101.9375" x="63.0864" y="245.3379">ProjectDefinition</text><line style="stroke:#181818;stroke-width:0.5;" x1="8" x2="189.1855" y1="255.6094" y2="255.6094"/><ellipse cx="18" cy="269.9141" fill="none" rx="3" ry="3" style="stroke:#038048;stroke-width:1;"/><text fill="#000000" font-family="sans-serif" font-size="14" lengthAdjust="spacing" textLength="58.3516" x="27" y="274.1426">name: str</text><ellipse cx="18" cy="287.5234" fill="none" rx="3" ry="3" style="stroke:#038048;stroke-width:1;"/><text fill="#000000" font-family="sans-serif" font-size="14" lengthAdjust="spacing" textLength="109.7168" x="27" y="291.752">display_name: str</text><ellipse cx="18" cy="305.1328" fill="none" rx="3" ry="3" style="stroke:#038048;stroke-width:1;"/><text fill="#000000" font-family="sans-serif" font-size="14" lengthAdjust="spacing" textLength="108.9717" x="27" y="309.3613">config_path: Path</text><ellipse cx="18" cy="322.7422" fill="none" rx="3" ry="3" style="stroke:#038048;stroke-width:1;"/><text fill="#000000" font-family="sans-serif" font-size="14" lengthAdjust="spacing" textLength="112.0479" x="27" y="326.9707">system_axes: int?</text><ellipse cx="18" cy="340.3516" fill="none" rx="3" ry="3" style="stroke:#038048;stroke-width:1;"/><text fill="#000000" font-family="sans-serif" font-size="14" lengthAdjust="spacing" textLength="157.1855" x="27" y="344.5801">features: ProjectFeatures</text><ellipse cx="18" cy="357.9609" fill="none" rx="3" ry="3" style="stroke:#038048;stroke-width:1;"/><text fill="#000000" font-family="sans-serif" font-size="14" lengthAdjust="spacing" textLength="115.9375" x="27" y="362.1895">ui: ProjectUiConfig</text><line style="stroke:#181818;stroke-width:0.5;" x1="8" x2="189.1855" y1="369.2656" y2="369.2656"/></g><!--class WorkspacePageDefinition--><g class="entity" data-entity="WorkspacePageDefinition" data-source-line="13" data-uid="ent0003" id="entity_WorkspacePageDefinition"><rect fill="#F1F1F1" height="118.4375" rx="2.5" ry="2.5" style="stroke:#181818;stroke-width:0.5;" width="193.082" x="290" y="446.6094"/><ellipse cx="305" cy="462.6094" fill="#ADD1B2" rx="11" ry="11" style="stroke:#181818;stroke-width:1;"/><path d="M307.7656,458.4844 Q307.9219,458.2656 308.1094,458.1563 Q308.2969,458.0469 308.5156,458.0469 Q308.8906,458.0469 309.125,458.3125 Q309.3594,458.5625 309.3594,459.1719 L309.3594,460.625 Q309.3594,461.2344 309.125,461.5 Q308.8906,461.7656 308.5156,461.7656 Q308.1719,461.7656 307.9688,461.5625 Q307.7656,461.375 307.6563,460.8594 Q307.6094,460.5 307.4219,460.3125 Q307.0938,459.9375 306.4844,459.7188 Q305.875,459.5 305.25,459.5 Q304.4844,459.5 303.8438,459.8281 Q303.2188,460.1563 302.7188,460.9063 Q302.2344,461.6563 302.2344,462.6875 L302.2344,463.7813 Q302.2344,465.0156 303.125,465.8438 Q304.0156,466.6563 305.6094,466.6563 Q306.5469,466.6563 307.2031,466.4063 Q307.5938,466.25 308.0156,465.8125 Q308.2813,465.5469 308.4219,465.4688 Q308.5781,465.3906 308.7813,465.3906 Q309.1094,465.3906 309.3594,465.6563 Q309.625,465.9063 309.625,466.25 Q309.625,466.5938 309.2813,467 Q308.7813,467.5781 307.9844,467.9063 Q306.9063,468.3594 305.6094,468.3594 Q304.0938,468.3594 302.8906,467.7344 Q301.9063,467.2344 301.2188,466.1719 Q300.5313,465.0938 300.5313,463.8125 L300.5313,462.6563 Q300.5313,461.3281 301.1406,460.1875 Q301.7656,459.0313 302.8594,458.4219 Q303.9531,457.7969 305.1875,457.7969 Q305.9219,457.7969 306.5625,457.9688 Q307.2188,458.125 307.7656,458.4844 Z " fill="#000000"/><text fill="#000000" font-family="sans-serif" font-size="14" lengthAdjust="spacing" textLength="161.082" x="319" y="468.3379">WorkspacePageDefinition</text><line style="stroke:#181818;stroke-width:0.5;" x1="291" x2="482.082" y1="478.6094" y2="478.6094"/><ellipse cx="301" cy="492.9141" fill="none" rx="3" ry="3" style="stroke:#038048;stroke-width:1;"/><text fill="#000000" font-family="sans-serif" font-size="14" lengthAdjust="spacing" textLength="73.9238" x="310" y="497.1426">route_id: str</text><ellipse cx="301" cy="510.5234" fill="none" rx="3" ry="3" style="stroke:#038048;stroke-width:1;"/><text fill="#000000" font-family="sans-serif" font-size="14" lengthAdjust="spacing" textLength="52.9102" x="310" y="514.752">label: str</text><ellipse cx="301" cy="528.1328" fill="none" rx="3" ry="3" style="stroke:#038048;stroke-width:1;"/><text fill="#000000" font-family="sans-serif" font-size="14" lengthAdjust="spacing" textLength="84.0752" x="310" y="532.3613">enabled: bool</text><ellipse cx="301" cy="545.7422" fill="none" rx="3" ry="3" style="stroke:#038048;stroke-width:1;"/><text fill="#000000" font-family="sans-serif" font-size="14" lengthAdjust="spacing" textLength="55.248" x="310" y="549.9707">order: int</text><line style="stroke:#181818;stroke-width:0.5;" x1="291" x2="482.082" y1="557.0469" y2="557.0469"/></g><!--class WorkspaceSessionState--><g class="entity" data-entity="WorkspaceSessionState" data-source-line="20" data-uid="ent0004" id="entity_WorkspaceSessionState"><rect fill="#F1F1F1" height="136.0469" rx="2.5" ry="2.5" style="stroke:#181818;stroke-width:0.5;" width="184.5166" x="644" y="437.6094"/><ellipse cx="659" cy="453.6094" fill="#ADD1B2" rx="11" ry="11" style="stroke:#181818;stroke-width:1;"/><path d="M661.7656,449.4844 Q661.9219,449.2656 662.1094,449.1563 Q662.2969,449.0469 662.5156,449.0469 Q662.8906,449.0469 663.125,449.3125 Q663.3594,449.5625 663.3594,450.1719 L663.3594,451.625 Q663.3594,452.2344 663.125,452.5 Q662.8906,452.7656 662.5156,452.7656 Q662.1719,452.7656 661.9688,452.5625 Q661.7656,452.375 661.6563,451.8594 Q661.6094,451.5 661.4219,451.3125 Q661.0938,450.9375 660.4844,450.7188 Q659.875,450.5 659.25,450.5 Q658.4844,450.5 657.8438,450.8281 Q657.2188,451.1563 656.7188,451.9063 Q656.2344,452.6563 656.2344,453.6875 L656.2344,454.7813 Q656.2344,456.0156 657.125,456.8438 Q658.0156,457.6563 659.6094,457.6563 Q660.5469,457.6563 661.2031,457.4063 Q661.5938,457.25 662.0156,456.8125 Q662.2813,456.5469 662.4219,456.4688 Q662.5781,456.3906 662.7813,456.3906 Q663.1094,456.3906 663.3594,456.6563 Q663.625,456.9063 663.625,457.25 Q663.625,457.5938 663.2813,458 Q662.7813,458.5781 661.9844,458.9063 Q660.9063,459.3594 659.6094,459.3594 Q658.0938,459.3594 656.8906,458.7344 Q655.9063,458.2344 655.2188,457.1719 Q654.5313,456.0938 654.5313,454.8125 L654.5313,453.6563 Q654.5313,452.3281 655.1406,451.1875 Q655.7656,450.0313 656.8594,449.4219 Q657.9531,448.7969 659.1875,448.7969 Q659.9219,448.7969 660.5625,448.9688 Q661.2188,449.125 661.7656,449.4844 Z " fill="#000000"/><text fill="#000000" font-family="sans-serif" font-size="14" lengthAdjust="spacing" textLength="152.5166" x="673" y="459.3379">WorkspaceSessionState</text><line style="stroke:#181818;stroke-width:0.5;" x1="645" x2="827.5166" y1="469.6094" y2="469.6094"/><ellipse cx="655" cy="483.9141" fill="none" rx="3" ry="3" style="stroke:#038048;stroke-width:1;"/><text fill="#000000" font-family="sans-serif" font-size="14" lengthAdjust="spacing" textLength="108.1582" x="664" y="488.1426">project_name: str</text><ellipse cx="655" cy="501.5234" fill="none" rx="3" ry="3" style="stroke:#038048;stroke-width:1;"/><text fill="#000000" font-family="sans-serif" font-size="14" lengthAdjust="spacing" textLength="121.3994" x="664" y="505.752">connection_text: str</text><ellipse cx="655" cy="519.1328" fill="none" rx="3" ry="3" style="stroke:#038048;stroke-width:1;"/><text fill="#000000" font-family="sans-serif" font-size="14" lengthAdjust="spacing" textLength="101.1514" x="664" y="523.3613">session_text: str</text><ellipse cx="655" cy="536.7422" fill="none" rx="3" ry="3" style="stroke:#038048;stroke-width:1;"/><text fill="#000000" font-family="sans-serif" font-size="14" lengthAdjust="spacing" textLength="98.834" x="664" y="540.9707">active_page: str</text><ellipse cx="655" cy="554.3516" fill="none" rx="3" ry="3" style="stroke:#038048;stroke-width:1;"/><text fill="#000000" font-family="sans-serif" font-size="14" lengthAdjust="spacing" textLength="95.7031" x="664" y="558.5801">alerts_text: str?</text><line style="stroke:#181818;stroke-width:0.5;" x1="645" x2="827.5166" y1="565.6563" y2="565.6563"/></g><!--class ProjectWorkspaceWindow--><g class="entity" data-entity="ProjectWorkspaceWindow" data-source-line="28" data-uid="ent0005" id="entity_ProjectWorkspaceWindow"><rect fill="#F1F1F1" height="118.4375" rx="2.5" ry="2.5" style="stroke:#181818;stroke-width:0.5;" width="362.1846" x="620.5" y="45.6094"/><ellipse cx="715.6494" cy="61.6094" fill="#ADD1B2" rx="11" ry="11" style="stroke:#181818;stroke-width:1;"/><path d="M718.415,57.4844 Q718.5713,57.2656 718.7588,57.1563 Q718.9463,57.0469 719.165,57.0469 Q719.54,57.0469 719.7744,57.3125 Q720.0088,57.5625 720.0088,58.1719 L720.0088,59.625 Q720.0088,60.2344 719.7744,60.5 Q719.54,60.7656 719.165,60.7656 Q718.8213,60.7656 718.6182,60.5625 Q718.415,60.375 718.3057,59.8594 Q718.2588,59.5 718.0713,59.3125 Q717.7432,58.9375 717.1338,58.7188 Q716.5244,58.5 715.8994,58.5 Q715.1338,58.5 714.4932,58.8281 Q713.8682,59.1563 713.3682,59.9063 Q712.8838,60.6563 712.8838,61.6875 L712.8838,62.7813 Q712.8838,64.0156 713.7744,64.8438 Q714.665,65.6563 716.2588,65.6563 Q717.1963,65.6563 717.8525,65.4063 Q718.2432,65.25 718.665,64.8125 Q718.9307,64.5469 719.0713,64.4688 Q719.2275,64.3906 719.4307,64.3906 Q719.7588,64.3906 720.0088,64.6563 Q720.2744,64.9063 720.2744,65.25 Q720.2744,65.5938 719.9307,66 Q719.4307,66.5781 718.6338,66.9063 Q717.5557,67.3594 716.2588,67.3594 Q714.7432,67.3594 713.54,66.7344 Q712.5557,66.2344 711.8682,65.1719 Q711.1807,64.0938 711.1807,62.8125 L711.1807,61.6563 Q711.1807,60.3281 711.79,59.1875 Q712.415,58.0313 713.5088,57.4219 Q714.6025,56.7969 715.8369,56.7969 Q716.5713,56.7969 717.2119,56.9688 Q717.8682,57.125 718.415,57.4844 Z " fill="#000000"/><text fill="#000000" font-family="sans-serif" font-size="14" lengthAdjust="spacing" textLength="163.3857" x="736.1494" y="67.3379">ProjectWorkspaceWindow</text><line style="stroke:#181818;stroke-width:0.5;" x1="621.5" x2="981.6846" y1="77.6094" y2="77.6094"/><ellipse cx="631.5" cy="91.9141" fill="none" rx="3" ry="3" style="stroke:#038048;stroke-width:1;"/><text fill="#000000" font-family="sans-serif" font-size="14" lengthAdjust="spacing" textLength="215.5645" x="640.5" y="96.1426">project_definition: ProjectDefinition</text><line style="stroke:#181818;stroke-width:0.5;" x1="621.5" x2="981.6846" y1="103.2188" y2="103.2188"/><ellipse cx="631.5" cy="117.5234" fill="#84BE84" rx="3" ry="3" style="stroke:#038048;stroke-width:1;"/><text fill="#000000" font-family="sans-serif" font-size="14" lengthAdjust="spacing" textLength="185.2129" x="640.5" y="121.752">set_active_page(route_id: str)</text><ellipse cx="631.5" cy="135.1328" fill="#84BE84" rx="3" ry="3" style="stroke:#038048;stroke-width:1;"/><text fill="#000000" font-family="sans-serif" font-size="14" lengthAdjust="spacing" textLength="192.2197" x="640.5" y="139.3613">append_console(message: str)</text><ellipse cx="631.5" cy="152.7422" fill="#84BE84" rx="3" ry="3" style="stroke:#038048;stroke-width:1;"/><text fill="#000000" font-family="sans-serif" font-size="14" lengthAdjust="spacing" textLength="336.1846" x="640.5" y="156.9707">update_session_state(state: WorkspaceSessionState)</text></g><!--class WorkspaceNavigationWidget--><g class="entity" data-entity="WorkspaceNavigationWidget" data-source-line="35" data-uid="ent0006" id="entity_WorkspaceNavigationWidget"><rect fill="#F1F1F1" height="83.2188" rx="2.5" ry="2.5" style="stroke:#181818;stroke-width:0.5;" width="322.4336" x="225.5" y="259.1094"/><ellipse cx="292.5947" cy="275.1094" fill="#ADD1B2" rx="11" ry="11" style="stroke:#181818;stroke-width:1;"/><path d="M295.3604,270.9844 Q295.5166,270.7656 295.7041,270.6563 Q295.8916,270.5469 296.1104,270.5469 Q296.4854,270.5469 296.7197,270.8125 Q296.9541,271.0625 296.9541,271.6719 L296.9541,273.125 Q296.9541,273.7344 296.7197,274 Q296.4854,274.2656 296.1104,274.2656 Q295.7666,274.2656 295.5635,274.0625 Q295.3604,273.875 295.251,273.3594 Q295.2041,273 295.0166,272.8125 Q294.6885,272.4375 294.0791,272.2188 Q293.4697,272 292.8447,272 Q292.0791,272 291.4385,272.3281 Q290.8135,272.6563 290.3135,273.4063 Q289.8291,274.1563 289.8291,275.1875 L289.8291,276.2813 Q289.8291,277.5156 290.7197,278.3438 Q291.6104,279.1563 293.2041,279.1563 Q294.1416,279.1563 294.7979,278.9063 Q295.1885,278.75 295.6104,278.3125 Q295.876,278.0469 296.0166,277.9688 Q296.1729,277.8906 296.376,277.8906 Q296.7041,277.8906 296.9541,278.1563 Q297.2197,278.4063 297.2197,278.75 Q297.2197,279.0938 296.876,279.5 Q296.376,280.0781 295.5791,280.4063 Q294.501,280.8594 293.2041,280.8594 Q291.6885,280.8594 290.4854,280.2344 Q289.501,279.7344 288.8135,278.6719 Q288.126,277.5938 288.126,276.3125 L288.126,275.1563 Q288.126,273.8281 288.7354,272.6875 Q289.3604,271.5313 290.4541,270.9219 Q291.5479,270.2969 292.7822,270.2969 Q293.5166,270.2969 294.1572,270.4688 Q294.8135,270.625 295.3604,270.9844 Z " fill="#000000"/><text fill="#000000" font-family="sans-serif" font-size="14" lengthAdjust="spacing" textLength="179.7441" x="313.0947" y="280.8379">WorkspaceNavigationWidget</text><line style="stroke:#181818;stroke-width:0.5;" x1="226.5" x2="546.9336" y1="291.1094" y2="291.1094"/><line style="stroke:#181818;stroke-width:0.5;" x1="226.5" x2="546.9336" y1="299.1094" y2="299.1094"/><ellipse cx="236.5" cy="313.4141" fill="#84BE84" rx="3" ry="3" style="stroke:#038048;stroke-width:1;"/><text fill="#000000" font-family="sans-serif" font-size="14" lengthAdjust="spacing" textLength="296.4336" x="245.5" y="317.6426">set_items(items: list[WorkspacePageDefinition])</text><ellipse cx="236.5" cy="331.0234" fill="#84BE84" rx="3" ry="3" style="stroke:#038048;stroke-width:1;"/><text fill="#000000" font-family="sans-serif" font-size="14" lengthAdjust="spacing" textLength="146.2822" x="245.5" y="335.252">set_active(route_id: str)</text></g><!--class LiveSessionPanel--><g class="entity" data-entity="LiveSessionPanel" data-source-line="40" data-uid="ent0007" id="entity_LiveSessionPanel"><rect fill="#F1F1F1" height="65.6094" rx="2.5" ry="2.5" style="stroke:#181818;stroke-width:0.5;" width="306.9297" x="583" y="267.6094"/><ellipse cx="676.5669" cy="283.6094" fill="#ADD1B2" rx="11" ry="11" style="stroke:#181818;stroke-width:1;"/><path d="M679.3325,279.4844 Q679.4888,279.2656 679.6763,279.1563 Q679.8638,279.0469 680.0825,279.0469 Q680.4575,279.0469 680.6919,279.3125 Q680.9263,279.5625 680.9263,280.1719 L680.9263,281.625 Q680.9263,282.2344 680.6919,282.5 Q680.4575,282.7656 680.0825,282.7656 Q679.7388,282.7656 679.5356,282.5625 Q679.3325,282.375 679.2231,281.8594 Q679.1763,281.5 678.9888,281.3125 Q678.6606,280.9375 678.0513,280.7188 Q677.4419,280.5 676.8169,280.5 Q676.0513,280.5 675.4106,280.8281 Q674.7856,281.1563 674.2856,281.9063 Q673.8013,282.6563 673.8013,283.6875 L673.8013,284.7813 Q673.8013,286.0156 674.6919,286.8438 Q675.5825,287.6563 677.1763,287.6563 Q678.1138,287.6563 678.77,287.4063 Q679.1606,287.25 679.5825,286.8125 Q679.8481,286.5469 679.9888,286.4688 Q680.145,286.3906 680.3481,286.3906 Q680.6763,286.3906 680.9263,286.6563 Q681.1919,286.9063 681.1919,287.25 Q681.1919,287.5938 680.8481,288 Q680.3481,288.5781 679.5513,288.9063 Q678.4731,289.3594 677.1763,289.3594 Q675.6606,289.3594 674.4575,288.7344 Q673.4731,288.2344 672.7856,287.1719 Q672.0981,286.0938 672.0981,284.8125 L672.0981,283.6563 Q672.0981,282.3281 672.7075,281.1875 Q673.3325,280.0313 674.4263,279.4219 Q675.52,278.7969 676.7544,278.7969 Q677.4888,278.7969 678.1294,278.9688 Q678.7856,279.125 679.3325,279.4844 Z " fill="#000000"/><text fill="#000000" font-family="sans-serif" font-size="14" lengthAdjust="spacing" textLength="111.2959" x="697.0669" y="289.3379">LiveSessionPanel</text><line style="stroke:#181818;stroke-width:0.5;" x1="584" x2="888.9297" y1="299.6094" y2="299.6094"/><line style="stroke:#181818;stroke-width:0.5;" x1="584" x2="888.9297" y1="307.6094" y2="307.6094"/><ellipse cx="594" cy="321.9141" fill="#84BE84" rx="3" ry="3" style="stroke:#038048;stroke-width:1;"/><text fill="#000000" font-family="sans-serif" font-size="14" lengthAdjust="spacing" textLength="280.9297" x="603" y="326.1426">update_state(state: WorkspaceSessionState)</text></g><!--class ConsolePanel--><g class="entity" data-entity="ConsolePanel" data-source-line="44" data-uid="ent0008" id="entity_ConsolePanel"><rect fill="#F1F1F1" height="83.2188" rx="2.5" ry="2.5" style="stroke:#181818;stroke-width:0.5;" width="191.7578" x="925.5" y="259.1094"/><ellipse cx="973.543" cy="275.1094" fill="#ADD1B2" rx="11" ry="11" style="stroke:#181818;stroke-width:1;"/><path d="M976.3086,270.9844 Q976.4648,270.7656 976.6523,270.6563 Q976.8398,270.5469 977.0586,270.5469 Q977.4336,270.5469 977.668,270.8125 Q977.9023,271.0625 977.9023,271.6719 L977.9023,273.125 Q977.9023,273.7344 977.668,274 Q977.4336,274.2656 977.0586,274.2656 Q976.7148,274.2656 976.5117,274.0625 Q976.3086,273.875 976.1992,273.3594 Q976.1523,273 975.9648,272.8125 Q975.6367,272.4375 975.0273,272.2188 Q974.418,272 973.793,272 Q973.0273,272 972.3867,272.3281 Q971.7617,272.6563 971.2617,273.4063 Q970.7773,274.1563 970.7773,275.1875 L970.7773,276.2813 Q970.7773,277.5156 971.668,278.3438 Q972.5586,279.1563 974.1523,279.1563 Q975.0898,279.1563 975.7461,278.9063 Q976.1367,278.75 976.5586,278.3125 Q976.8242,278.0469 976.9648,277.9688 Q977.1211,277.8906 977.3242,277.8906 Q977.6523,277.8906 977.9023,278.1563 Q978.168,278.4063 978.168,278.75 Q978.168,279.0938 977.8242,279.5 Q977.3242,280.0781 976.5273,280.4063 Q975.4492,280.8594 974.1523,280.8594 Q972.6367,280.8594 971.4336,280.2344 Q970.4492,279.7344 969.7617,278.6719 Q969.0742,277.5938 969.0742,276.3125 L969.0742,275.1563 Q969.0742,273.8281 969.6836,272.6875 Q970.3086,271.5313 971.4023,270.9219 Q972.4961,270.2969 973.7305,270.2969 Q974.4648,270.2969 975.1055,270.4688 Q975.7617,270.625 976.3086,270.9844 Z " fill="#000000"/><text fill="#000000" font-family="sans-serif" font-size="14" lengthAdjust="spacing" textLength="87.1719" x="994.043" y="280.8379">ConsolePanel</text><line style="stroke:#181818;stroke-width:0.5;" x1="926.5" x2="1116.2578" y1="291.1094" y2="291.1094"/><line style="stroke:#181818;stroke-width:0.5;" x1="926.5" x2="1116.2578" y1="299.1094" y2="299.1094"/><ellipse cx="936.5" cy="313.4141" fill="#84BE84" rx="3" ry="3" style="stroke:#038048;stroke-width:1;"/><text fill="#000000" font-family="sans-serif" font-size="14" lengthAdjust="spacing" textLength="165.7578" x="945.5" y="317.6426">append_line(message: str)</text><ellipse cx="936.5" cy="331.0234" fill="#84BE84" rx="3" ry="3" style="stroke:#038048;stroke-width:1;"/><text fill="#000000" font-family="sans-serif" font-size="14" lengthAdjust="spacing" textLength="39.6689" x="945.5" y="335.252">clear()</text></g><!--class WorkspacePageBase--><g class="entity" data-entity="WorkspacePageBase" data-source-line="49" data-uid="ent0009" id="entity_WorkspacePageBase"><rect fill="#F1F1F1" height="83.2188" rx="2.5" ry="2.5" style="stroke:#181818;stroke-width:0.5;" width="166.627" x="1383" y="259.1094"/><ellipse cx="1398" cy="275.1094" fill="#A9DCDF" rx="11" ry="11" style="stroke:#181818;stroke-width:1;"/><path d="M1400.1875,276.875 L1396.0469,276.875 L1395.625,277.9063 L1396.0469,277.9063 Q1396.6563,277.9063 1396.9219,278.1406 Q1397.1875,278.375 1397.1875,278.7656 Q1397.1875,279.1406 1396.9219,279.375 Q1396.6563,279.6094 1396.0469,279.6094 L1393.75,279.6094 Q1393.1406,279.6094 1392.8906,279.375 Q1392.625,279.1406 1392.625,278.75 Q1392.625,278.375 1392.9063,278.1406 Q1393.1719,277.8906 1393.7969,277.9063 L1396.4688,271.25 L1395.3594,271.25 Q1394.75,271.25 1394.4844,271.0156 Q1394.2188,270.7813 1394.2188,270.3906 Q1394.2188,270.0156 1394.4844,269.7813 Q1394.75,269.5469 1395.3594,269.5469 L1399.0313,269.5469 L1402.4219,277.9063 Q1403.0156,277.9063 1403.2031,278.0469 Q1403.5938,278.3125 1403.5938,278.7656 Q1403.5938,279.1406 1403.3281,279.375 Q1403.0781,279.6094 1402.4688,279.6094 L1400.1719,279.6094 Q1399.5625,279.6094 1399.2969,279.375 Q1399.0313,279.1406 1399.0313,278.75 Q1399.0313,278.375 1399.2969,278.1406 Q1399.5625,277.9063 1400.1719,277.9063 L1400.5938,277.9063 L1400.1875,276.875 Z M1399.4688,275.1719 L1398.1094,271.7969 L1396.7344,275.1719 L1399.4688,275.1719 Z " fill="#000000"/><text fill="#000000" font-family="sans-serif" font-size="14" font-style="italic" lengthAdjust="spacing" textLength="134.627" x="1412" y="280.8379">WorkspacePageBase</text><line style="stroke:#181818;stroke-width:0.5;" x1="1384" x2="1548.627" y1="291.1094" y2="291.1094"/><ellipse cx="1394" cy="305.4141" fill="none" rx="3" ry="3" style="stroke:#038048;stroke-width:1;"/><text fill="#000000" font-family="sans-serif" font-size="14" lengthAdjust="spacing" textLength="73.9238" x="1403" y="309.6426">route_id: str</text><line style="stroke:#181818;stroke-width:0.5;" x1="1384" x2="1548.627" y1="316.7188" y2="316.7188"/><ellipse cx="1394" cy="331.0234" fill="#84BE84" rx="3" ry="3" style="stroke:#038048;stroke-width:1;"/><text fill="#000000" font-family="sans-serif" font-size="14" lengthAdjust="spacing" textLength="52.8965" x="1403" y="335.252">refresh()</text></g><!--class OverviewPage--><g class="entity" data-entity="OverviewPage" data-source-line="54" data-uid="ent0010" id="entity_OverviewPage"><rect fill="#F1F1F1" height="48" rx="2.5" ry="2.5" style="stroke:#181818;stroke-width:0.5;" width="123.041" x="1082" y="80.6094"/><ellipse cx="1097" cy="96.6094" fill="#ADD1B2" rx="11" ry="11" style="stroke:#181818;stroke-width:1;"/><path d="M1099.7656,92.4844 Q1099.9219,92.2656 1100.1094,92.1563 Q1100.2969,92.0469 1100.5156,92.0469 Q1100.8906,92.0469 1101.125,92.3125 Q1101.3594,92.5625 1101.3594,93.1719 L1101.3594,94.625 Q1101.3594,95.2344 1101.125,95.5 Q1100.8906,95.7656 1100.5156,95.7656 Q1100.1719,95.7656 1099.9688,95.5625 Q1099.7656,95.375 1099.6563,94.8594 Q1099.6094,94.5 1099.4219,94.3125 Q1099.0938,93.9375 1098.4844,93.7188 Q1097.875,93.5 1097.25,93.5 Q1096.4844,93.5 1095.8438,93.8281 Q1095.2188,94.1563 1094.7188,94.9063 Q1094.2344,95.6563 1094.2344,96.6875 L1094.2344,97.7813 Q1094.2344,99.0156 1095.125,99.8438 Q1096.0156,100.6563 1097.6094,100.6563 Q1098.5469,100.6563 1099.2031,100.4063 Q1099.5938,100.25 1100.0156,99.8125 Q1100.2813,99.5469 1100.4219,99.4688 Q1100.5781,99.3906 1100.7813,99.3906 Q1101.1094,99.3906 1101.3594,99.6563 Q1101.625,99.9063 1101.625,100.25 Q1101.625,100.5938 1101.2813,101 Q1100.7813,101.5781 1099.9844,101.9063 Q1098.9063,102.3594 1097.6094,102.3594 Q1096.0938,102.3594 1094.8906,101.7344 Q1093.9063,101.2344 1093.2188,100.1719 Q1092.5313,99.0938 1092.5313,97.8125 L1092.5313,96.6563 Q1092.5313,95.3281 1093.1406,94.1875 Q1093.7656,93.0313 1094.8594,92.4219 Q1095.9531,91.7969 1097.1875,91.7969 Q1097.9219,91.7969 1098.5625,91.9688 Q1099.2188,92.125 1099.7656,92.4844 Z " fill="#000000"/><text fill="#000000" font-family="sans-serif" font-size="14" lengthAdjust="spacing" textLength="91.041" x="1111" y="102.3379">OverviewPage</text><line style="stroke:#181818;stroke-width:0.5;" x1="1083" x2="1204.041" y1="112.6094" y2="112.6094"/><line style="stroke:#181818;stroke-width:0.5;" x1="1083" x2="1204.041" y1="120.6094" y2="120.6094"/></g><!--class FirmwarePage--><g class="entity" data-entity="FirmwarePage" data-source-line="55" data-uid="ent0011" id="entity_FirmwarePage"><rect fill="#F1F1F1" height="48" rx="2.5" ry="2.5" style="stroke:#181818;stroke-width:0.5;" width="123.0273" x="1240" y="80.6094"/><ellipse cx="1255" cy="96.6094" fill="#ADD1B2" rx="11" ry="11" style="stroke:#181818;stroke-width:1;"/><path d="M1257.7656,92.4844 Q1257.9219,92.2656 1258.1094,92.1563 Q1258.2969,92.0469 1258.5156,92.0469 Q1258.8906,92.0469 1259.125,92.3125 Q1259.3594,92.5625 1259.3594,93.1719 L1259.3594,94.625 Q1259.3594,95.2344 1259.125,95.5 Q1258.8906,95.7656 1258.5156,95.7656 Q1258.1719,95.7656 1257.9688,95.5625 Q1257.7656,95.375 1257.6563,94.8594 Q1257.6094,94.5 1257.4219,94.3125 Q1257.0938,93.9375 1256.4844,93.7188 Q1255.875,93.5 1255.25,93.5 Q1254.4844,93.5 1253.8438,93.8281 Q1253.2188,94.1563 1252.7188,94.9063 Q1252.2344,95.6563 1252.2344,96.6875 L1252.2344,97.7813 Q1252.2344,99.0156 1253.125,99.8438 Q1254.0156,100.6563 1255.6094,100.6563 Q1256.5469,100.6563 1257.2031,100.4063 Q1257.5938,100.25 1258.0156,99.8125 Q1258.2813,99.5469 1258.4219,99.4688 Q1258.5781,99.3906 1258.7813,99.3906 Q1259.1094,99.3906 1259.3594,99.6563 Q1259.625,99.9063 1259.625,100.25 Q1259.625,100.5938 1259.2813,101 Q1258.7813,101.5781 1257.9844,101.9063 Q1256.9063,102.3594 1255.6094,102.3594 Q1254.0938,102.3594 1252.8906,101.7344 Q1251.9063,101.2344 1251.2188,100.1719 Q1250.5313,99.0938 1250.5313,97.8125 L1250.5313,96.6563 Q1250.5313,95.3281 1251.1406,94.1875 Q1251.7656,93.0313 1252.8594,92.4219 Q1253.9531,91.7969 1255.1875,91.7969 Q1255.9219,91.7969 1256.5625,91.9688 Q1257.2188,92.125 1257.7656,92.4844 Z " fill="#000000"/><text fill="#000000" font-family="sans-serif" font-size="14" lengthAdjust="spacing" textLength="91.0273" x="1269" y="102.3379">FirmwarePage</text><line style="stroke:#181818;stroke-width:0.5;" x1="1241" x2="1362.0273" y1="112.6094" y2="112.6094"/><line style="stroke:#181818;stroke-width:0.5;" x1="1241" x2="1362.0273" y1="120.6094" y2="120.6094"/></g><!--class MechanicalPage--><g class="entity" data-entity="MechanicalPage" data-source-line="56" data-uid="ent0012" id="entity_MechanicalPage"><rect fill="#F1F1F1" height="48" rx="2.5" ry="2.5" style="stroke:#181818;stroke-width:0.5;" width="135.5098" x="1398.5" y="80.6094"/><ellipse cx="1413.5" cy="96.6094" fill="#ADD1B2" rx="11" ry="11" style="stroke:#181818;stroke-width:1;"/><path d="M1416.2656,92.4844 Q1416.4219,92.2656 1416.6094,92.1563 Q1416.7969,92.0469 1417.0156,92.0469 Q1417.3906,92.0469 1417.625,92.3125 Q1417.8594,92.5625 1417.8594,93.1719 L1417.8594,94.625 Q1417.8594,95.2344 1417.625,95.5 Q1417.3906,95.7656 1417.0156,95.7656 Q1416.6719,95.7656 1416.4688,95.5625 Q1416.2656,95.375 1416.1563,94.8594 Q1416.1094,94.5 1415.9219,94.3125 Q1415.5938,93.9375 1414.9844,93.7188 Q1414.375,93.5 1413.75,93.5 Q1412.9844,93.5 1412.3438,93.8281 Q1411.7188,94.1563 1411.2188,94.9063 Q1410.7344,95.6563 1410.7344,96.6875 L1410.7344,97.7813 Q1410.7344,99.0156 1411.625,99.8438 Q1412.5156,100.6563 1414.1094,100.6563 Q1415.0469,100.6563 1415.7031,100.4063 Q1416.0938,100.25 1416.5156,99.8125 Q1416.7813,99.5469 1416.9219,99.4688 Q1417.0781,99.3906 1417.2813,99.3906 Q1417.6094,99.3906 1417.8594,99.6563 Q1418.125,99.9063 1418.125,100.25 Q1418.125,100.5938 1417.7813,101 Q1417.2813,101.5781 1416.4844,101.9063 Q1415.4063,102.3594 1414.1094,102.3594 Q1412.5938,102.3594 1411.3906,101.7344 Q1410.4063,101.2344 1409.7188,100.1719 Q1409.0313,99.0938 1409.0313,97.8125 L1409.0313,96.6563 Q1409.0313,95.3281 1409.6406,94.1875 Q1410.2656,93.0313 1411.3594,92.4219 Q1412.4531,91.7969 1413.6875,91.7969 Q1414.4219,91.7969 1415.0625,91.9688 Q1415.7188,92.125 1416.2656,92.4844 Z " fill="#000000"/><text fill="#000000" font-family="sans-serif" font-size="14" lengthAdjust="spacing" textLength="103.5098" x="1427.5" y="102.3379">MechanicalPage</text><line style="stroke:#181818;stroke-width:0.5;" x1="1399.5" x2="1533.0098" y1="112.6094" y2="112.6094"/><line style="stroke:#181818;stroke-width:0.5;" x1="1399.5" x2="1533.0098" y1="120.6094" y2="120.6094"/></g><!--class ApplicationProductionPage--><g class="entity" data-entity="ApplicationProductionPage" data-source-line="57" data-uid="ent0013" id="entity_ApplicationProductionPage"><rect fill="#F1F1F1" height="48" rx="2.5" ry="2.5" style="stroke:#181818;stroke-width:0.5;" width="200.1162" x="1569.5" y="80.6094"/><ellipse cx="1584.5" cy="96.6094" fill="#ADD1B2" rx="11" ry="11" style="stroke:#181818;stroke-width:1;"/><path d="M1587.2656,92.4844 Q1587.4219,92.2656 1587.6094,92.1563 Q1587.7969,92.0469 1588.0156,92.0469 Q1588.3906,92.0469 1588.625,92.3125 Q1588.8594,92.5625 1588.8594,93.1719 L1588.8594,94.625 Q1588.8594,95.2344 1588.625,95.5 Q1588.3906,95.7656 1588.0156,95.7656 Q1587.6719,95.7656 1587.4688,95.5625 Q1587.2656,95.375 1587.1563,94.8594 Q1587.1094,94.5 1586.9219,94.3125 Q1586.5938,93.9375 1585.9844,93.7188 Q1585.375,93.5 1584.75,93.5 Q1583.9844,93.5 1583.3438,93.8281 Q1582.7188,94.1563 1582.2188,94.9063 Q1581.7344,95.6563 1581.7344,96.6875 L1581.7344,97.7813 Q1581.7344,99.0156 1582.625,99.8438 Q1583.5156,100.6563 1585.1094,100.6563 Q1586.0469,100.6563 1586.7031,100.4063 Q1587.0938,100.25 1587.5156,99.8125 Q1587.7813,99.5469 1587.9219,99.4688 Q1588.0781,99.3906 1588.2813,99.3906 Q1588.6094,99.3906 1588.8594,99.6563 Q1589.125,99.9063 1589.125,100.25 Q1589.125,100.5938 1588.7813,101 Q1588.2813,101.5781 1587.4844,101.9063 Q1586.4063,102.3594 1585.1094,102.3594 Q1583.5938,102.3594 1582.3906,101.7344 Q1581.4063,101.2344 1580.7188,100.1719 Q1580.0313,99.0938 1580.0313,97.8125 L1580.0313,96.6563 Q1580.0313,95.3281 1580.6406,94.1875 Q1581.2656,93.0313 1582.3594,92.4219 Q1583.4531,91.7969 1584.6875,91.7969 Q1585.4219,91.7969 1586.0625,91.9688 Q1586.7188,92.125 1587.2656,92.4844 Z " fill="#000000"/><text fill="#000000" font-family="sans-serif" font-size="14" lengthAdjust="spacing" textLength="168.1162" x="1598.5" y="102.3379">ApplicationProductionPage</text><line style="stroke:#181818;stroke-width:0.5;" x1="1570.5" x2="1768.6162" y1="112.6094" y2="112.6094"/><line style="stroke:#181818;stroke-width:0.5;" x1="1570.5" x2="1768.6162" y1="120.6094" y2="120.6094"/></g><!--class SettingsPage--><g class="entity" data-entity="SettingsPage" data-source-line="58" data-uid="ent0014" id="entity_SettingsPage"><rect fill="#F1F1F1" height="48" rx="2.5" ry="2.5" style="stroke:#181818;stroke-width:0.5;" width="115.2822" x="1805" y="80.6094"/><ellipse cx="1820" cy="96.6094" fill="#ADD1B2" rx="11" ry="11" style="stroke:#181818;stroke-width:1;"/><path d="M1822.7656,92.4844 Q1822.9219,92.2656 1823.1094,92.1563 Q1823.2969,92.0469 1823.5156,92.0469 Q1823.8906,92.0469 1824.125,92.3125 Q1824.3594,92.5625 1824.3594,93.1719 L1824.3594,94.625 Q1824.3594,95.2344 1824.125,95.5 Q1823.8906,95.7656 1823.5156,95.7656 Q1823.1719,95.7656 1822.9688,95.5625 Q1822.7656,95.375 1822.6563,94.8594 Q1822.6094,94.5 1822.4219,94.3125 Q1822.0938,93.9375 1821.4844,93.7188 Q1820.875,93.5 1820.25,93.5 Q1819.4844,93.5 1818.8438,93.8281 Q1818.2188,94.1563 1817.7188,94.9063 Q1817.2344,95.6563 1817.2344,96.6875 L1817.2344,97.7813 Q1817.2344,99.0156 1818.125,99.8438 Q1819.0156,100.6563 1820.6094,100.6563 Q1821.5469,100.6563 1822.2031,100.4063 Q1822.5938,100.25 1823.0156,99.8125 Q1823.2813,99.5469 1823.4219,99.4688 Q1823.5781,99.3906 1823.7813,99.3906 Q1824.1094,99.3906 1824.3594,99.6563 Q1824.625,99.9063 1824.625,100.25 Q1824.625,100.5938 1824.2813,101 Q1823.7813,101.5781 1822.9844,101.9063 Q1821.9063,102.3594 1820.6094,102.3594 Q1819.0938,102.3594 1817.8906,101.7344 Q1816.9063,101.2344 1816.2188,100.1719 Q1815.5313,99.0938 1815.5313,97.8125 L1815.5313,96.6563 Q1815.5313,95.3281 1816.1406,94.1875 Q1816.7656,93.0313 1817.8594,92.4219 Q1818.9531,91.7969 1820.1875,91.7969 Q1820.9219,91.7969 1821.5625,91.9688 Q1822.2188,92.125 1822.7656,92.4844 Z " fill="#000000"/><text fill="#000000" font-family="sans-serif" font-size="14" lengthAdjust="spacing" textLength="83.2822" x="1834" y="102.3379">SettingsPage</text><line style="stroke:#181818;stroke-width:0.5;" x1="1806" x2="1919.2822" y1="112.6094" y2="112.6094"/><line style="stroke:#181818;stroke-width:0.5;" x1="1806" x2="1919.2822" y1="120.6094" y2="120.6094"/></g><!--class WorkspaceRuntimeBridge--><g class="entity" data-entity="WorkspaceRuntimeBridge" data-source-line="60" data-uid="ent0015" id="entity_WorkspaceRuntimeBridge"><rect fill="#F1F1F1" height="118.4375" rx="2.5" ry="2.5" style="stroke:#181818;stroke-width:0.5;" width="194.6201" x="1153" y="241.6094"/><ellipse cx="1168" cy="257.6094" fill="#ADD1B2" rx="11" ry="11" style="stroke:#181818;stroke-width:1;"/><path d="M1170.7656,253.4844 Q1170.9219,253.2656 1171.1094,253.1563 Q1171.2969,253.0469 1171.5156,253.0469 Q1171.8906,253.0469 1172.125,253.3125 Q1172.3594,253.5625 1172.3594,254.1719 L1172.3594,255.625 Q1172.3594,256.2344 1172.125,256.5 Q1171.8906,256.7656 1171.5156,256.7656 Q1171.1719,256.7656 1170.9688,256.5625 Q1170.7656,256.375 1170.6563,255.8594 Q1170.6094,255.5 1170.4219,255.3125 Q1170.0938,254.9375 1169.4844,254.7188 Q1168.875,254.5 1168.25,254.5 Q1167.4844,254.5 1166.8438,254.8281 Q1166.2188,255.1563 1165.7188,255.9063 Q1165.2344,256.6563 1165.2344,257.6875 L1165.2344,258.7813 Q1165.2344,260.0156 1166.125,260.8438 Q1167.0156,261.6563 1168.6094,261.6563 Q1169.5469,261.6563 1170.2031,261.4063 Q1170.5938,261.25 1171.0156,260.8125 Q1171.2813,260.5469 1171.4219,260.4688 Q1171.5781,260.3906 1171.7813,260.3906 Q1172.1094,260.3906 1172.3594,260.6563 Q1172.625,260.9063 1172.625,261.25 Q1172.625,261.5938 1172.2813,262 Q1171.7813,262.5781 1170.9844,262.9063 Q1169.9063,263.3594 1168.6094,263.3594 Q1167.0938,263.3594 1165.8906,262.7344 Q1164.9063,262.2344 1164.2188,261.1719 Q1163.5313,260.0938 1163.5313,258.8125 L1163.5313,257.6563 Q1163.5313,256.3281 1164.1406,255.1875 Q1164.7656,254.0313 1165.8594,253.4219 Q1166.9531,252.7969 1168.1875,252.7969 Q1168.9219,252.7969 1169.5625,252.9688 Q1170.2188,253.125 1170.7656,253.4844 Z " fill="#000000"/><text fill="#000000" font-family="sans-serif" font-size="14" lengthAdjust="spacing" textLength="162.6201" x="1182" y="263.3379">WorkspaceRuntimeBridge</text><line style="stroke:#181818;stroke-width:0.5;" x1="1154" x2="1346.6201" y1="273.6094" y2="273.6094"/><line style="stroke:#181818;stroke-width:0.5;" x1="1154" x2="1346.6201" y1="281.6094" y2="281.6094"/><ellipse cx="1164" cy="295.9141" fill="#84BE84" rx="3" ry="3" style="stroke:#038048;stroke-width:1;"/><text fill="#000000" font-family="sans-serif" font-size="14" lengthAdjust="spacing" textLength="136.1787" x="1173" y="300.1426">open_serial_monitor()</text><ellipse cx="1164" cy="313.5234" fill="#84BE84" rx="3" ry="3" style="stroke:#038048;stroke-width:1;"/><text fill="#000000" font-family="sans-serif" font-size="14" lengthAdjust="spacing" textLength="115.1855" x="1173" y="317.752">open_zposs_plot()</text><ellipse cx="1164" cy="331.1328" fill="#84BE84" rx="3" ry="3" style="stroke:#038048;stroke-width:1;"/><text fill="#000000" font-family="sans-serif" font-size="14" lengthAdjust="spacing" textLength="148.6475" x="1173" y="335.3613">get_session_snapshot()</text><ellipse cx="1164" cy="348.7422" fill="#84BE84" rx="3" ry="3" style="stroke:#038048;stroke-width:1;"/><text fill="#000000" font-family="sans-serif" font-size="14" lengthAdjust="spacing" textLength="133.0615" x="1173" y="352.9707">get_node_summary()</text></g><!--reverse link ProjectWorkspaceWindow to WorkspaceNavigationWidget--><g class="link" data-entity-1="ProjectWorkspaceWindow" data-entity-2="WorkspaceNavigationWidget" data-source-line="67" data-uid="lnk16" id="link_ProjectWorkspaceWindow_WorkspaceNavigationWidget"><path codeLine="67" d="M666.3995,168.7619 C600.6095,199.5219 532.3,231.4494 473.19,259.0794" fill="none" id="ProjectWorkspaceWindow-backto-WorkspaceNavigationWidget" style="stroke:#181818;stroke-width:1;"/><polygon fill="#181818" points="677.27,163.6794,670.1406,162.5971,666.3995,168.7619,673.5289,169.8441,677.27,163.6794" style="stroke:#181818;stroke-width:1;"/></g><!--reverse link ProjectWorkspaceWindow to LiveSessionPanel--><g class="link" data-entity-1="ProjectWorkspaceWindow" data-entity-2="LiveSessionPanel" data-source-line="68" data-uid="lnk17" id="link_ProjectWorkspaceWindow_LiveSessionPanel"><path codeLine="68" d="M778.1872,175.1975 C766.8172,209.1275 756.72,239.2594 747.3,267.3794" fill="none" id="ProjectWorkspaceWindow-backto-LiveSessionPanel" style="stroke:#181818;stroke-width:1;"/><polygon fill="#181818" points="782,163.8194,776.3009,168.2375,778.1872,175.1975,783.8863,170.7794,782,163.8194" style="stroke:#181818;stroke-width:1;"/></g><!--reverse link ProjectWorkspaceWindow to ConsolePanel--><g class="link" data-entity-1="ProjectWorkspaceWindow" data-entity-2="ConsolePanel" data-source-line="69" data-uid="lnk18" id="link_ProjectWorkspaceWindow_ConsolePanel"><path codeLine="69" d="M876.5101,171.7565 C911.3101,202.4465 944.15,231.4094 975.43,258.9894" fill="none" id="ProjectWorkspaceWindow-backto-ConsolePanel" style="stroke:#181818;stroke-width:1;"/><polygon fill="#181818" points="867.51,163.8194,869.3643,170.788,876.5101,171.7565,874.6558,164.7879,867.51,163.8194" style="stroke:#181818;stroke-width:1;"/></g><!--reverse link ProjectWorkspaceWindow to ProjectDefinition--><g class="link" data-entity-1="ProjectWorkspaceWindow" data-entity-2="ProjectDefinition" data-source-line="70" data-uid="lnk19" id="link_ProjectWorkspaceWindow_ProjectDefinition"><path codeLine="70" d="M608.4589,123.5266 C487.7589,139.1166 339.55,167.3894 207.5,223.6094 C201.66,226.0994 195.82,228.9194 190.05,231.9894" fill="none" id="ProjectWorkspaceWindow-backto-ProjectDefinition" style="stroke:#181818;stroke-width:1;"/><polygon fill="#181818" points="620.36,121.9894,613.897,118.7909,608.4589,123.5266,614.9218,126.725,620.36,121.9894" style="stroke:#181818;stroke-width:1;"/></g><!--reverse link WorkspaceNavigationWidget to WorkspacePageDefinition--><g class="link" data-entity-1="WorkspaceNavigationWidget" data-entity-2="WorkspacePageDefinition" data-source-line="71" data-uid="lnk20" id="link_WorkspaceNavigationWidget_WorkspacePageDefinition"><path codeLine="71" d="M386.5,354.1994 C386.5,384.0494 386.5,413.0594 386.5,446.3994" fill="none" id="WorkspaceNavigationWidget-backto-WorkspacePageDefinition" style="stroke:#181818;stroke-width:1;"/><polygon fill="none" points="386.5,342.1994,382.5,348.1994,386.5,354.1994,390.5,348.1994,386.5,342.1994" style="stroke:#181818;stroke-width:1;"/></g><!--reverse link LiveSessionPanel to WorkspaceSessionState--><g class="link" data-entity-1="LiveSessionPanel" data-entity-2="WorkspaceSessionState" data-source-line="72" data-uid="lnk21" id="link_LiveSessionPanel_WorkspaceSessionState"><path codeLine="72" d="M736.5,345.7794 C736.5,373.4994 736.5,402.4494 736.5,437.2994" fill="none" id="LiveSessionPanel-backto-WorkspaceSessionState" style="stroke:#181818;stroke-width:1;"/><polygon fill="none" points="736.5,333.7794,732.5,339.7794,736.5,345.7794,740.5,339.7794,736.5,333.7794" style="stroke:#181818;stroke-width:1;"/></g><!--link OverviewPage to WorkspacePageBase--><g class="link" data-entity-1="OverviewPage" data-entity-2="WorkspacePageBase" data-source-line="73" data-uid="lnk22" id="link_OverviewPage_WorkspacePageBase"><path codeLine="73" d="M1171.66,128.8094 C1186.26,140.1794 1204.73,153.5494 1222.5,163.6094 C1282.47,197.5694 1305.73,189.2894 1365.5,223.6094 C1383.29,233.8294 1387.258,235.7899 1403.288,248.0399" fill="none" id="OverviewPage-to-WorkspacePageBase" style="stroke:#181818;stroke-width:1;"/><polygon fill="none" points="1417.59,258.9694,1406.9312,243.2726,1399.6449,252.8072,1417.59,258.9694" style="stroke:#181818;stroke-width:1;"/></g><!--link FirmwarePage to WorkspacePageBase--><g class="link" data-entity-1="FirmwarePage" data-entity-2="WorkspacePageBase" data-source-line="74" data-uid="lnk23" id="link_FirmwarePage_WorkspacePageBase"><path codeLine="74" d="M1321.08,128.6294 C1348.39,160.7394 1386.7078,205.7983 1420.3478,245.3483" fill="none" id="FirmwarePage-to-WorkspacePageBase" style="stroke:#181818;stroke-width:1;"/><polygon fill="none" points="1432.01,259.0594,1424.9182,241.4609,1415.7774,249.2357,1432.01,259.0594" style="stroke:#181818;stroke-width:1;"/></g><!--link MechanicalPage to WorkspacePageBase--><g class="link" data-entity-1="MechanicalPage" data-entity-2="WorkspacePageBase" data-source-line="75" data-uid="lnk24" id="link_MechanicalPage_WorkspacePageBase"><path codeLine="75" d="M1466.5,128.6294 C1466.5,160.7394 1466.5,201.5094 1466.5,241.0594" fill="none" id="MechanicalPage-to-WorkspacePageBase" style="stroke:#181818;stroke-width:1;"/><polygon fill="none" points="1466.5,259.0594,1472.5,241.0594,1460.5,241.0594,1466.5,259.0594" style="stroke:#181818;stroke-width:1;"/></g><!--link ApplicationProductionPage to WorkspacePageBase--><g class="link" data-entity-1="ApplicationProductionPage" data-entity-2="WorkspacePageBase" data-source-line="76" data-uid="lnk25" id="link_ApplicationProductionPage_WorkspacePageBase"><path codeLine="76" d="M1645.42,128.6294 C1611.81,160.7394 1563.3339,207.074 1521.9439,246.624" fill="none" id="ApplicationProductionPage-to-WorkspacePageBase" style="stroke:#181818;stroke-width:1;"/><polygon fill="none" points="1508.93,259.0594,1526.089,250.962,1517.7988,242.286,1508.93,259.0594" style="stroke:#181818;stroke-width:1;"/></g><!--link SettingsPage to WorkspacePageBase--><g class="link" data-entity-1="SettingsPage" data-entity-2="WorkspacePageBase" data-source-line="77" data-uid="lnk26" id="link_SettingsPage_WorkspacePageBase"><path codeLine="77" d="M1835.92,128.8794 C1822.09,140.2694 1804.55,153.6294 1787.5,163.6094 C1710.84,208.4694 1633.4906,240.395 1567.0006,264.765" fill="none" id="SettingsPage-to-WorkspacePageBase" style="stroke:#181818;stroke-width:1;"/><polygon fill="none" points="1550.1,270.9594,1569.0654,270.3985,1564.9358,259.1314,1550.1,270.9594" style="stroke:#181818;stroke-width:1;"/></g><!--link ProjectWorkspaceWindow to WorkspaceRuntimeBridge--><g class="link" data-entity-1="ProjectWorkspaceWindow" data-entity-2="WorkspaceRuntimeBridge" data-source-line="78" data-uid="lnk27" id="link_ProjectWorkspaceWindow_WorkspaceRuntimeBridge"><path codeLine="78" d="M982.76,160.9994 C1032.92,178.6894 1086.69,199.9094 1134.5,223.6094 C1145.29,228.9594 1151.1389,232.0161 1161.8589,238.4661" fill="none" id="ProjectWorkspaceWindow-to-WorkspaceRuntimeBridge" style="stroke:#181818;stroke-width:1;stroke-dasharray:7,7;"/><polygon fill="#181818" points="1167,241.5594,1161.3505,233.492,1162.7157,238.9816,1157.2261,240.3468,1167,241.5594" style="stroke:#181818;stroke-width:1;"/></g><!--link ProjectWorkspaceWindow to WorkspacePageBase--><g class="link" data-entity-1="ProjectWorkspaceWindow" data-entity-2="WorkspacePageBase" data-source-line="79" data-uid="lnk28" id="link_ProjectWorkspaceWindow_WorkspacePageBase"><path codeLine="79" d="M982.84,146.1094 C1010.19,152.0694 1038.07,158.0594 1064.5,163.6094 C1198,191.6294 1241,167.8694 1365.5,223.6094 C1385.33,232.4894 1400.218,242.1449 1416.798,255.2149" fill="none" id="ProjectWorkspaceWindow-to-WorkspacePageBase" style="stroke:#181818;stroke-width:1;stroke-dasharray:7,7;"/><polygon fill="#181818" points="1421.51,258.9294,1416.9183,250.2164,1417.5833,255.834,1411.9657,256.499,1421.51,258.9294" style="stroke:#181818;stroke-width:1;"/></g><!--SRC=[bLDDZzem4BtdL_W8hLYjUkImgrssU-e71LKSgYeQae6uwzYMnu6b7_-zumI20mIrbqXvy_NcpRENNg6OlVyokhrz9nR6lP253CMyGAN4Wyx5p7325DP8OYGcng6OA212IkX5QWiEIa45v6OhzLgiG14cIHPInDIP7vZv9rn9BRqqMlnAX7YheSIn8E_2Jox9AjYb7J0pUYNNgGLVZ7csBm98E_9Ofl2AD1PI-_i0hX1yvGAo7_Qy1qAmaYtyLKxgdicV0xbsrx3RAKLdAe-fp5j62fQesZ_Ki5J8qQKnAW36vUXgLXS6p968EyyzU6pQsuRKsTAQGSvCFRxw5gUcl0i29swG5LeV6u12v-cOTt_aibUXfRIGcW_M9PEt6epFBzSGyMaqTz0HQLWpi1Prdl8cnAuPbCpyGB2ELpPd3TB3HXGK6TJVyMMvXXVa_0GRkOP0QY7pDVfcYq1EiZzeK7_7GadottgE_7tOtUTqbNRe1mxk-Kn1esfc7TRu7_gJHfEeorui9VK5fJA5u0PrFImPP9xYWcyVWR37iGvN_0oAGSJXymRTHk8sLEwXP-dABJYCe8-O5Q1b1Ye27wnL30Nns1jvLViqYi_HUtx_L4Ed5vjLsiiI7rsuLqFNyExi0oT1fQNXgvYmxI7mqngYr2hZ6v2lV3ID1aj57D4cvsDKPGbkrwpRO_Ster6_ZQuLdThWMcvyw6jvvq-it-4c9jwrSd9cqKvoxCOalhyOZNxVdPifYGtHbzDrI5zMhsNw2c8FzUNq27fpSzTZjt-gEBJ_2m00]--></g></svg>